<svg width="163" height="73" viewBox="0 0 163 73" fill="none" xmlns="http://www.w3.org/2000/svg">
<path d="M85.2756 57.8477H78.7161L73.5723 40.9534H73.2184V57.8477H65.9746V23.257H72.6521L77.7487 39.8917H77.7723V23.257H85.2756V57.8477Z" fill="#012121"/>
<path d="M99.1733 44.9647H95.6812L97.1913 30.7603H97.3329L99.1733 44.9647ZM103.067 23.257H91.552L86.6914 57.8477H94.4543L95.1385 51.4062H99.7632L100.447 57.8477H108.258L103.067 23.257Z" fill="#012121"/>
<path d="M117.013 50.3444H116.871L113.828 23.257H106.018L111.161 57.8477H122.676L127.537 23.257H119.797L117.013 50.3444Z" fill="#012121"/>
<path d="M140.136 43.3838V57.8477H132.09V43.3838L125.389 23.257H133.34L136.195 35.8569H136.29L139.145 23.257H147.073L140.136 43.3838Z" fill="#012121"/>
<path d="M138.013 14.6682H139.004C139.098 14.6682 139.169 14.739 139.169 14.8334V16.3671C139.169 16.4615 139.098 16.5322 139.004 16.5322H138.013C137.918 16.5322 137.848 16.4615 137.848 16.3671V14.8334C137.848 14.739 137.918 14.6682 138.013 14.6682Z" fill="#012121"/>
<path d="M69.5865 20.7086C69.5157 20.7086 69.4685 20.6614 69.4449 20.5906L69.2326 19.9064H67.4865L67.2741 20.5906C67.2505 20.6614 67.1798 20.7086 67.109 20.7086H66.1416C66.0472 20.7086 66 20.7086 66.0236 20.6378L67.7225 14.8334C67.7225 14.7626 67.7932 14.6682 67.8404 14.6682H68.855C68.9258 14.6682 68.9494 14.7862 68.973 14.857L70.6719 20.5906C70.6719 20.6614 70.6719 20.7086 70.5303 20.7086H69.5865ZM68.3831 17.0749L67.864 18.821H68.9022L68.3831 17.0749Z" fill="#012121"/>
<path d="M81.5254 20.7087C81.4546 20.7087 81.4074 20.7087 81.4074 20.6379V18.4907L80.7232 20.6379C80.6996 20.7087 80.6288 20.7323 80.558 20.7323H79.8501C79.7794 20.7323 79.7086 20.7323 79.685 20.6615L79.0243 18.5143L78.9771 20.6615C78.9771 20.7323 78.9771 20.7559 78.8591 20.7559H77.8445C77.7738 20.7559 77.7266 20.7559 77.7266 20.6851L77.9625 14.8806C77.9625 14.8098 77.9625 14.7155 78.0569 14.7155H79.1423C79.2131 14.7155 79.2603 14.8334 79.2839 14.8806L80.0625 18.2312L80.1569 18.9626L80.2277 18.2548L81.1007 14.8806C81.1007 14.8098 81.1715 14.7155 81.2423 14.7155H82.3277C82.3984 14.7155 82.422 14.857 82.422 14.9042L82.658 20.6379C82.658 20.7087 82.6108 20.7559 82.54 20.7559H81.5254V20.7087Z" fill="#012121"/>
<path d="M89.8063 20.7086H89.5703V14.9278C89.5703 14.857 89.7355 14.6682 89.8063 14.6682H92.9444C93.0152 14.6682 92.9444 14.857 92.9444 14.9278V15.9424C92.9444 16.0131 93.0152 16.0131 92.9444 16.0131H90.9152V17.0985H92.4725C92.5433 17.0985 92.5197 17.2165 92.5197 17.2873V18.3019C92.5197 18.3727 92.5197 18.4199 92.4725 18.4199H90.9152V19.5053H92.9444C93.0152 19.5053 92.9444 19.576 92.9444 19.6468V20.6614C92.9444 20.7322 93.0152 20.6614 92.9444 20.6614L89.8063 20.7086Z" fill="#012121"/>
<path d="M102.665 20.7086C102.594 20.7086 102.524 20.6142 102.5 20.567L101.627 18.4435H101.061V20.685C101.061 20.7558 101.179 20.685 101.108 20.685H99.8574V14.9278C99.8574 14.857 100.023 14.6682 100.093 14.6682H102.83C102.901 14.6682 102.996 14.7626 103.043 14.8334L103.468 15.3525C103.562 15.4469 103.468 15.5648 103.468 15.612V17.7828C103.468 17.9008 103.515 17.948 103.468 17.9952L102.996 18.4907L103.869 20.6142C103.869 20.6614 103.845 20.685 103.798 20.685H102.665V20.7086ZM102.335 17.1693V16.3199C102.335 16.3199 102.382 16.2491 102.335 16.2255L102.241 16.0839C102.241 16.0839 102.193 16.0131 102.146 16.0131H101.132V17.2165H102.193C102.193 17.2165 102.193 17.2637 102.241 17.2165L102.335 17.1693Z" fill="#012121"/>
<path d="M111.184 20.7086H110.9V14.9278C110.9 14.857 111.113 14.6682 111.184 14.6682H112.198C112.269 14.6682 112.198 14.857 112.198 14.9278V20.6614L111.184 20.7086Z" fill="#012121"/>
<path d="M122.511 20.6615C122.44 20.7323 122.345 20.7087 122.275 20.7087H120.057C119.986 20.7323 119.891 20.7087 119.821 20.6615L119.302 20.1896C119.207 20.1188 119.184 20.048 119.184 19.9772V15.6121C119.207 15.5177 119.254 15.4469 119.302 15.3998L119.797 14.8571C119.891 14.7627 119.962 14.6919 120.033 14.6919H122.251C122.322 14.6919 122.393 14.7863 122.487 14.8571L122.888 15.3762C122.959 15.4469 122.888 15.5413 122.888 15.6357V16.5323C122.888 16.5795 122.959 16.5323 122.888 16.5323H121.543V16.2964C121.543 16.2964 121.638 16.2492 121.614 16.2256L121.52 16.0604V16.0132H120.694C120.694 16.0132 120.647 16.0132 120.623 16.0604L120.434 16.2256C120.434 16.2256 120.34 16.2728 120.34 16.32V19.3638C120.34 19.3638 120.411 19.3638 120.434 19.411L120.599 19.5053H121.59V19.411C121.59 19.411 121.52 19.411 121.52 19.3638V19.1042C121.52 19.0334 121.779 18.9626 121.85 18.9626H122.864C122.935 18.9626 122.864 19.0334 122.864 19.1042V20.0716C122.864 20.1188 122.912 20.1188 122.864 20.2132L122.511 20.6615Z" fill="#012121"/>
<path d="M133.504 20.7086C133.434 20.7086 133.363 20.6614 133.363 20.5906L133.151 19.9064H131.404L131.192 20.5906C131.192 20.6614 131.098 20.7086 131.027 20.7086H130.06C129.942 20.7086 129.918 20.7086 129.918 20.6378L131.617 14.8334C131.617 14.7626 131.688 14.6682 131.735 14.6682H132.749C132.797 14.6682 132.844 14.7862 132.867 14.857L134.566 20.5906C134.566 20.6614 134.566 20.7086 134.425 20.7086H133.504ZM132.278 17.0749L131.758 18.821H132.797L132.278 17.0749Z" fill="#012121"/>
<path d="M146.671 20.6615C146.6 20.7087 146.53 20.7322 146.435 20.7086H144.217C144.123 20.7086 144.052 20.7087 143.981 20.6615L143.462 20.1896C143.391 20.1424 143.344 20.048 143.321 19.9772V19.1042C143.321 19.0334 143.462 18.9154 143.533 18.9154H144.548C144.618 18.9154 144.548 19.0334 144.548 19.1042V19.4581H145.798V19.3165C145.798 19.3165 145.727 19.3165 145.727 19.2693V18.6087C145.727 18.6087 145.822 18.5379 145.798 18.5143L145.727 18.3963H144.17C144.076 18.3963 144.005 18.3727 143.934 18.3019L143.415 17.83C143.344 17.7828 143.297 17.6884 143.273 17.5941V15.5649C143.273 15.4705 143.344 15.3997 143.415 15.3525L143.91 14.8098C144.005 14.7154 144.076 14.6447 144.146 14.6447H146.364C146.459 14.6447 146.506 14.739 146.6 14.8098L147.001 15.3289C147.072 15.3997 147.001 15.4941 147.001 15.5885V16.4615C147.001 16.5323 147.072 16.5087 147.001 16.5087H146.01C145.94 16.5087 145.68 16.5087 145.68 16.4615V15.9896H144.807L144.736 16.0368L144.524 16.1783C144.524 16.1783 144.43 16.2255 144.43 16.2491V16.9334H144.524L144.713 17.0278H146.317C146.435 17.0278 146.459 17.075 146.553 17.1694L146.954 17.6649C147.049 17.7592 146.954 17.83 146.954 17.9008V19.93C146.954 20.0008 147.001 20.0716 146.954 20.1424L146.671 20.6615Z" fill="#012121"/>
<path d="M21.5219 23.9413C21.3803 23.5638 21.2859 23.1862 21.2387 22.8087C21.2387 22.5492 21.2387 22.266 21.2387 22.0065L15.8354 18.4672V18.5379C15.7174 20.0481 16.5432 21.4874 17.8882 22.148L21.5219 23.9413Z" fill="#012121"/>
<path d="M21.4283 20.7087C21.5935 20.166 21.8531 19.6469 22.207 19.175L22.4429 18.8919L16.3318 14.4559V14.7155C16.0958 16.1548 16.7329 17.6177 17.9598 18.4199L21.4283 20.7087Z" fill="#012121"/>
<path d="M31.1485 37.3198C30.1811 37.2018 29.2609 36.8007 28.5294 36.1872L28.2935 35.8805L28.1991 35.7389C27.9159 35.4086 27.7272 35.0075 27.6092 34.5828L28.1047 34.3468C27.3497 33.9929 26.7362 33.3794 26.4294 32.6008C26.1935 31.9873 26.0519 31.3266 26.0047 30.6895L26.9957 30.8311C26.1935 30.5008 25.5328 29.9109 25.1317 29.1322C24.7306 28.2828 24.589 27.339 24.7306 26.3952V26.1356L25.9575 26.7019C25.9575 26.7019 24.707 25.6637 24.3059 25.3806C23.2913 24.8143 22.607 23.7997 22.4654 22.6435C22.3475 21.6761 22.607 20.7087 23.1733 19.9301L23.4328 19.5997L23.7632 19.8593L26.3822 21.7705C28.6474 23.4222 29.78 25.2626 29.7092 27.2682C29.7092 27.5985 29.6384 27.9053 29.5676 28.212C29.5676 28.2828 29.5676 28.3536 29.5204 28.4244C29.5204 28.4952 29.4732 28.5895 29.4496 28.6603C29.3789 28.8491 29.3081 29.0379 29.2137 29.2266C28.9305 29.8873 28.7654 30.5716 28.6946 31.2794C28.6946 31.5626 28.7418 31.8221 28.8598 32.0817C28.9541 32.2468 29.0957 32.412 29.2609 32.53C29.4968 32.6951 29.78 32.8131 30.0631 32.8367C30.2283 32.8603 30.3699 32.8603 30.535 32.8367H30.653C31.2665 33.167 31.1249 35.0075 31.1249 37.367" fill="#012121"/>
<path d="M23.4097 27.4097C23.4097 27.0558 23.4097 26.7018 23.4097 26.3479V26.2535L15.8828 22.5491C15.8828 22.7614 15.9536 22.9974 15.9772 23.2333C16.2131 24.6726 17.2749 25.8288 18.6671 26.2063L23.4097 27.4097Z" fill="#012121"/>
<path d="M24.5188 30.4771C24.3064 30.2175 24.1177 29.9108 23.9761 29.6041C23.8345 29.3209 23.7165 29.0378 23.6222 28.731L17.0391 26.985C17.1334 27.2445 17.2514 27.5041 17.3694 27.7636C17.9121 28.9198 18.9975 29.7456 20.2716 29.9108L24.5188 30.4771Z" fill="#012121"/>
<path d="M25.2256 33.0254C25.0605 32.6243 24.9425 32.1995 24.8717 31.7748L19.2324 31.0198C19.374 31.2321 19.5156 31.4209 19.6807 31.6333C20.4122 32.6243 21.592 33.1905 22.8425 33.1434L25.2256 33.0254Z" fill="#012121"/>
<path d="M26.1704 35.1726L26.4299 35.0547C26.4299 34.9839 26.3827 34.9367 26.3827 34.8659C26.3355 34.7007 26.2647 34.5592 26.1468 34.4412L25.9108 34.1816L22.0176 34.3468C23.103 35.4322 24.731 35.7625 26.1704 35.1726Z" fill="#012121"/>
<path d="M55.2871 23.9413C55.4287 23.5638 55.5231 23.1862 55.5703 22.8087C55.5938 22.5492 55.5938 22.266 55.5703 22.0065L60.9736 18.4672V18.5379C61.0916 20.0481 60.2657 21.4874 58.9208 22.148L55.2871 23.9413Z" fill="#012121"/>
<path d="M55.3818 20.7087C55.2166 20.166 54.9571 19.6469 54.6031 19.175L54.3672 18.8919L60.4784 14.4559V14.7155C60.7143 16.1548 60.0773 17.6177 58.8503 18.4199L55.3818 20.7087Z" fill="#012121"/>
<path d="M46.1558 32.7895H46.2738C46.4389 32.8131 46.5805 32.8131 46.7457 32.7895C47.0288 32.7659 47.312 32.6479 47.5479 32.4827C47.7131 32.3647 47.8547 32.1996 47.949 32.0344C48.067 31.7749 48.1142 31.5153 48.1142 31.2322C48.0434 30.5243 47.8782 29.84 47.5951 29.1794C47.5243 28.9906 47.4535 28.8019 47.3591 28.6131C47.3356 28.5423 47.312 28.4479 47.2884 28.3771C47.2884 28.3064 47.2884 28.2356 47.2412 28.1648C47.1704 27.858 47.1232 27.5277 47.0996 27.221C47.0288 25.239 48.1614 23.3749 50.4265 21.7233L53.0456 19.812L53.376 19.5525L53.6355 19.8828C54.2018 20.6615 54.4613 21.6289 54.3434 22.5963C54.2018 23.7525 53.5175 24.7671 52.5029 25.3333C52.1254 25.6165 50.8513 26.6547 50.8513 26.6547L52.0782 26.0884L52.1254 26.3479C52.267 27.2682 52.1254 28.2356 51.7243 29.085C51.3232 29.8636 50.6625 30.4535 49.8603 30.7839L50.8513 30.6423C50.8041 31.303 50.6625 31.94 50.4265 32.5535C50.0962 33.3322 49.5063 33.9456 48.7513 34.2996L49.2468 34.5355C49.1288 34.9602 48.94 35.3378 48.6569 35.6917L48.5625 35.8333L48.3266 36.14C47.5951 36.7771 46.6749 37.1546 45.7075 37.2726C45.7075 34.913 45.5659 33.0726 46.1794 32.7423" fill="#012121"/>
<path d="M53.3984 27.4098C53.422 27.0559 53.422 26.7019 53.3984 26.348V26.2536L60.9725 22.502C60.9725 22.7143 60.9017 22.9503 60.8782 23.1862C60.6422 24.6491 59.5804 25.8289 58.1411 26.2064L53.3984 27.4098Z" fill="#012121"/>
<path d="M52.3145 30.4771C52.5268 30.2175 52.7156 29.9108 52.8571 29.6041C52.9987 29.3209 53.1167 29.0378 53.2111 28.731L59.7942 26.985C59.6998 27.2445 59.5818 27.5041 59.4638 27.7636C58.9211 28.9198 57.8358 29.7456 56.5616 29.9108L52.3145 30.4771Z" fill="#012121"/>
<path d="M51.6055 33.0254C51.7706 32.6243 51.8886 32.1995 51.9594 31.7748L57.5987 31.0198L57.1504 31.6333C56.4189 32.6243 55.2391 33.1905 53.9886 33.1434L51.6055 33.0254Z" fill="#012121"/>
<path d="M50.6619 35.1726L50.4023 35.0547C50.4259 34.9839 50.4495 34.9367 50.4495 34.8659C50.4967 34.7007 50.5675 34.5592 50.6855 34.4412L50.9214 34.1816L54.8147 34.3468C53.7057 35.4322 52.0776 35.7625 50.6619 35.1726Z" fill="#012121"/>
<path d="M38.464 32.5063L38.228 32.5535C35.6797 32.5535 31.8809 32.6479 31.8809 32.6479C32.2584 33.049 32.164 33.9221 32.164 34.5119V35.9985C33.6269 36.14 36.0336 36.258 38.2752 36.258H38.4875C40.7055 36.258 42.8999 36.1164 44.5044 35.9985V34.5119C44.5044 33.8985 44.4572 33.049 44.8347 32.6479C44.8347 32.6479 40.9651 32.5299 38.3932 32.5063" fill="#012121"/>
<path d="M39.0295 36.6119H37.543V46.3332L38.2744 46.8523L39.0059 46.3332V36.6119H39.0295Z" fill="#012121"/>
<path d="M42.8984 36.4467V43.6433L44.0546 42.8646C44.3142 42.6759 44.4793 42.3927 44.5029 42.086V36.3287L42.8984 36.4467Z" fill="#012121"/>
<path d="M41.6955 36.5176C41.0112 36.5176 40.6101 36.5648 40.209 36.5884V45.4838L41.6955 44.4928V36.5176Z" fill="#012121"/>
<path d="M33.6506 36.4232L32.1641 36.3052V42.1096C32.1641 42.44 32.3528 42.7231 32.636 42.8883L33.6506 43.6197V36.4232Z" fill="#012121"/>
<path d="M34.8535 36.5176V44.4692L36.34 45.4838V36.5884C35.9389 36.5884 35.2546 36.5412 34.8535 36.5176Z" fill="#012121"/>
<path d="M41.2235 23.0682C40.728 21.5345 39.9729 20.8739 38.7696 20.8975H38.6752C36.2921 20.8975 34.9943 21.5345 34.6876 22.8087C34.2157 22.7851 33.7438 22.9503 33.3898 23.257C33.1303 23.5165 32.9887 23.8705 33.0123 24.248C33.0123 24.5075 33.0595 24.7671 33.1539 25.003C33.3426 25.4278 33.4134 25.4985 33.4134 25.4985C33.4134 25.4985 33.791 25.0266 35.0651 25.0502H35.3247L33.3191 31.8221C33.3191 31.8221 35.5842 31.6569 38.3684 31.6569C41.1527 31.6569 43.6066 31.7985 43.6066 31.7985C43.6066 31.7985 41.6954 24.5075 41.2235 23.0682ZM37.6134 28.094C37.5662 28.094 36.7404 27.0558 36.7404 27.0558L35.2775 28.7075L36.2921 25.0266H37.3067C37.4246 24.4839 37.3067 23.9413 37.0235 23.4693C37.5426 23.5165 38.0381 23.2806 38.3449 22.8559H35.8909C35.7966 22.8559 35.7022 22.6907 35.8202 22.5019C36.1741 21.9121 37.2359 21.5345 38.7224 21.5345C39.8786 21.5345 40.2797 22.5255 40.5156 23.4458C40.7516 24.366 41.4594 26.4188 41.9549 28.6839C41.9549 28.6839 40.5628 27.0794 40.492 27.0794C40.4212 27.0794 39.7134 28.1176 39.619 28.1176C39.5246 28.1176 38.6988 27.0794 38.628 27.0794C38.5572 27.0794 37.6606 28.1176 37.6134 28.1176M34.4752 24.2716C33.8146 24.2716 33.7438 24.4132 33.7438 24.4132V24.2244C33.7438 23.9649 33.9089 23.5401 34.9235 23.4929C35.9381 23.4458 36.4336 23.8233 36.4336 24.248H34.4516" fill="#012121"/>
<path d="M55.9703 47.7725C55.522 47.7725 55.1681 48.0557 54.7905 48.0557H51.7703V42.9119C51.7703 42.0389 51.6759 41.8737 50.8029 41.8737H50.6378C50.0007 41.8265 49.458 42.2984 49.4108 42.9355V43.0063C49.4108 43.3602 49.6232 43.5254 49.6232 43.6197V48.0321H44.8333L44.4558 47.0175C44.267 46.3332 43.6299 45.8849 42.9221 45.9321H41.6243C40.9637 45.9321 40.3502 46.3568 40.185 47.0175L39.9019 48.0321H36.9289L36.4806 47.0175C36.2446 46.3332 35.5839 45.8849 34.8761 45.9321H33.6491C32.9885 45.9321 32.3986 46.3568 32.2334 47.0175L31.9739 48.0321H24.2582C23.8807 48.0557 23.5503 47.7489 23.5267 47.3478C23.5267 47.277 23.5267 47.2062 23.5267 47.159C23.5739 46.9939 23.6211 46.8523 23.6919 46.7107C24.093 45.9085 24.6593 45.177 25.32 44.5636C25.32 44.7759 25.3672 44.9883 25.4144 45.2006C25.5323 45.4602 25.8391 45.5782 26.0986 45.4838C26.1694 45.4602 26.2402 45.413 26.2874 45.3422C27.066 44.2804 28.1042 43.431 29.3312 42.9119C29.4728 42.8647 29.5671 42.7231 29.5907 42.5816C29.6379 42.322 29.4963 42.0625 29.2368 41.9917C28.0334 41.4254 26.7121 41.1186 25.3908 41.1186C25.1076 41.0951 24.8009 41.0951 24.5177 41.1186C24.3526 41.1186 24.1874 41.213 24.093 41.3546C23.975 41.5434 23.975 41.7557 24.093 41.9445L24.1638 42.0389L24.4705 42.4164C22.6773 43.5018 21.4032 45.2714 20.9076 47.3006C20.7661 47.9849 20.4357 48.622 19.9638 49.1175C19.8931 49.1882 19.8459 49.259 19.8223 49.3534C19.8223 49.4242 19.8931 49.495 19.9402 49.5658C20.4121 50.0613 20.7425 50.6512 20.9076 51.3118C21.0492 51.9253 21.2852 52.4916 21.5447 53.0579C22.1582 54.45 23.1964 55.6298 24.5177 56.3848C24.5177 56.3848 24.4234 56.5028 24.2346 56.7151C24.0694 56.8567 24.0222 57.0927 24.093 57.2814C24.2346 57.6354 24.4469 57.6826 25.32 57.659C26.6413 57.659 27.9391 57.423 29.1424 56.9511C29.4492 56.8095 29.5671 56.4556 29.4492 56.1725C29.3784 56.0309 29.284 55.9365 29.1424 55.8657C27.9627 55.3702 26.9245 54.568 26.1458 53.577C26.0514 53.4354 25.8863 53.341 25.6975 53.341C25.4851 53.3646 25.2964 53.5298 25.2728 53.7421L25.1784 54.2612C24.3526 53.5298 23.7155 52.586 23.3616 51.5478C23.22 51.1231 23.4559 50.6748 23.8807 50.5332C23.9279 50.5096 23.9986 50.5096 24.0458 50.5096H32.6345C32.2806 51.0759 31.9739 51.6422 31.7143 52.232C31.4312 52.8927 31.1952 53.577 31.03 54.2848V54.4736L30.8649 55.2758L31.6435 54.686L31.8087 54.5444L32.4458 54.0253L32.8469 53.6478C32.9649 53.1759 33.13 52.7039 33.3424 52.2792C33.5547 51.7837 33.7907 51.3118 34.0738 50.8635C34.1682 50.7691 34.2154 50.6512 34.239 50.5096H35.5839C35.2064 51.4534 34.8289 51.8073 34.4278 52.6804C34.1446 53.1995 33.9795 53.7893 33.9323 54.3792V54.9219C33.9323 55.2994 33.9323 55.7006 33.9323 56.0781V56.2668L34.0031 57.1399L34.6165 56.4084L34.7345 56.2432C35.0648 55.7949 35.3716 55.323 35.6547 54.8275C35.7491 54.6624 35.8671 54.4972 35.9379 54.3084C35.8671 53.577 35.9379 52.8455 36.0558 52.1377C36.1502 51.595 36.2446 51.1703 36.3154 50.8399C36.3626 50.7219 36.3862 50.5804 36.3862 50.4388H37.5424C37.448 51.0995 37.33 51.4298 37.2356 52.0669C37.0469 53.0815 37.0704 54.1433 37.3064 55.1343C37.448 55.8421 37.6367 56.5264 37.8963 57.1871C37.9199 57.2578 37.9435 57.305 37.9671 57.3758L38.3446 58.296L38.7221 57.423C38.7457 57.3522 38.7693 57.305 38.7929 57.2342C39.0525 56.55 39.2648 55.8421 39.4064 55.1107C39.5951 54.1197 39.5951 53.1051 39.4064 52.1141C39.2884 51.477 39.194 51.0995 39.0996 50.4388H40.2558C40.2558 50.5568 40.2794 50.6983 40.3266 50.8163C40.3974 51.1467 40.4918 51.5714 40.5861 52.1141C40.7277 52.7983 40.7749 53.5062 40.7041 54.2141C40.7985 54.4028 40.8693 54.5916 40.9873 54.7567C41.294 55.2286 41.6007 55.7006 41.9547 56.1489L42.0962 56.314L42.7097 57.0455L42.7805 56.1725V56.0073C42.8041 55.6534 42.8041 55.2758 42.7805 54.9219V54.4264C42.7333 53.7421 42.5682 53.0815 42.2614 52.4916C41.8839 51.6893 41.53 51.359 41.176 50.4152H42.5446C42.5682 50.5568 42.6389 50.6748 42.7333 50.7927C42.9221 51.1231 43.158 51.5242 43.3704 52.0197C43.5828 52.468 43.7479 52.9399 43.8659 53.4354C44.0075 53.6242 44.1726 53.7893 44.3378 53.9309C44.5502 54.1197 44.7861 54.3084 44.9749 54.4736L45.14 54.6152L45.9187 55.2051L45.7535 54.4028V54.2141C45.5884 53.5062 45.376 52.7983 45.0693 52.1141C44.7389 51.5006 44.385 50.9107 43.9603 50.368H49.5524V53.2938V55.1815C49.458 55.3938 49.3872 55.6298 49.34 55.8657C49.2928 56.5028 49.7647 57.0219 50.4018 57.0691H50.7321C51.6052 57.0691 51.6995 56.7623 51.6995 55.8893V53.2702V50.3916H54.7669C55.0501 50.6983 55.4748 50.8163 55.8759 50.7219C56.631 50.7691 57.268 50.1792 57.3152 49.4242V49.2826C57.3152 48.268 56.9141 47.7017 55.8995 47.7017M35.9379 49.3534C35.6547 49.4242 35.3716 49.2826 35.2772 49.0231L34.8525 47.7725V48.8815C34.8525 49.1647 34.5929 49.377 34.3098 49.377C34.0266 49.377 33.7907 49.1411 33.7671 48.8579V47.7961L33.8143 48.0557L33.5076 48.9995C33.4132 49.259 33.13 49.4242 32.8705 49.3298C32.6109 49.259 32.4694 48.9759 32.5401 48.7163L32.7289 48.1029L32.9649 47.277C33.0592 46.9467 33.3424 46.7343 33.6727 46.7107H34.8053C35.1828 46.6871 35.5367 46.8995 35.6783 47.2298L36.0322 48.0085L36.221 48.6456C36.3154 48.9051 36.1738 49.2118 35.8907 49.3062M43.8659 49.3298C43.5828 49.4006 43.3232 49.2354 43.2288 48.9759L42.9693 48.0321L42.6625 47.8197V48.8579C42.6861 49.1175 42.4738 49.3534 42.2142 49.3534H42.1906C41.9311 49.3298 41.7187 49.1175 41.7187 48.8343V47.8197L41.3884 49.0231C41.3176 49.2826 41.0581 49.4242 40.7985 49.377H40.7749C40.539 49.259 40.4446 48.9995 40.5154 48.7635L40.7277 48.1265L40.9637 47.3478L41.0345 47.2062C41.1524 46.9939 41.3648 46.8523 41.6243 46.8523H42.9221C43.276 46.8523 43.5828 47.0647 43.7243 47.3714L44.0075 48.1501L44.1962 48.7871C44.267 49.0703 44.1254 49.3534 43.8659 49.4478" fill="#012121"/>
<path d="M143.416 55.2523H142.85V54.804H144.572V55.2523H143.982V57.8477H143.416V55.2523Z" fill="#012121"/>
<path d="M147.285 54.7803V57.8477H146.79V55.4645H146.766L146.247 57.8477H145.964L145.445 55.4645H145.421V57.8477H144.926V54.7803H145.681L146.106 56.5735L146.53 54.7803H147.285Z" fill="#012121"/>
</svg>
