<svg width="220" height="73" viewBox="0 0 220 73" fill="none" xmlns="http://www.w3.org/2000/svg">
<g clip-path="url(#clip0_676_67499)">
<mask id="mask0_676_67499" style="mask-type:luminance" maskUnits="userSpaceOnUse" x="22" y="14" width="181" height="45">
<path d="M202.229 14.376H22.2285V58.376H202.229V14.376Z" fill="white"/>
</mask>
<g mask="url(#mask0_676_67499)">
<path d="M84.8966 31.2426H89.3251V47.9626C89.3251 50.7003 87.468 52.3626 84.7061 52.3626H79.1347C76.3728 52.3626 74.5156 50.7003 74.5156 47.9626V31.2426H78.9918V47.4248C78.9918 47.8159 79.2775 48.1581 79.7061 48.1581H84.2299C84.6109 48.1581 84.8966 47.8648 84.8966 47.4248V31.2426ZM91.1823 47.767H95.6109V52.3626H91.1823V47.767ZM97.5156 38.4781V35.1537C97.5156 32.9537 99.0871 31.2426 101.516 31.2426H107.992C110.42 31.2426 111.992 32.9048 111.992 35.1537V38.2337H107.754V35.9848C107.754 35.5937 107.468 35.2514 107.039 35.2514H102.468C102.087 35.2514 101.754 35.5448 101.754 35.9848V38.0381C101.754 38.3314 101.897 38.6248 102.373 38.7714L109.087 40.7759C111.182 41.4114 111.944 42.5359 111.944 44.9314V48.5003C111.944 50.7003 110.325 52.4114 107.897 52.4114H101.42C98.9918 52.4114 97.4204 50.7003 97.4204 48.5003V45.0781H101.658V47.6203C101.658 48.0114 101.944 48.3537 102.325 48.3537H106.897C107.278 48.3537 107.563 48.0603 107.563 47.6203V45.3714C107.563 45.0292 107.373 44.7359 106.944 44.6381L100.23 42.6337C98.2299 41.9981 97.5156 40.8737 97.5156 38.4781ZM113.944 47.767H118.373V52.3626H113.944V47.767ZM137.087 48.8426H129.849L128.897 52.4114H124.278L130.42 31.2914H136.849L142.754 52.4114H138.039L137.087 48.8426ZM136.039 44.8337L133.516 35.3492L130.944 44.8337H136.039ZM158.135 43.6603L157.039 44.6381L160.706 52.4114H155.754L152.516 45.127H149.516V52.3626H145.039V31.2426H155.42C157.992 31.2426 159.754 32.8559 159.754 35.3003V39.407C159.706 41.5092 159.516 42.4381 158.135 43.6603ZM155.23 40.4337V36.1803C155.23 35.7892 154.944 35.447 154.516 35.447H149.42V41.1181H154.516C154.944 41.1181 155.23 40.8248 155.23 40.4337ZM175.944 31.2426H181.754V52.3626H177.468V39.0648L172.992 52.3626H171.706L167.278 39.1137V52.3626H163.182V31.2426H168.992L172.516 42.7803L175.944 31.2426ZM201.897 31.2426L194.944 44.2959V52.3626H190.468V44.3448L183.706 31.2426H188.944L192.897 39.4559L196.849 31.2426H201.897Z" fill="#012121"/>
<path d="M66.8482 31.2426H49.9435L44.7054 14.7181L39.4673 31.2426H22.5625L36.2768 41.4604L31.0387 57.9848L44.753 47.767L58.4196 58.0337L53.1815 41.5093L66.8482 31.2426ZM44.7054 42.7315L38.6101 47.2781L40.9435 39.9448L34.8482 35.3981H42.372L44.7054 28.0648L47.0387 35.3981H54.5625L48.4673 39.9448L50.8006 47.2781L44.7054 42.7315Z" fill="#012121"/>
</g>
</g>
<defs>
<clipPath id="clip0_676_67499">
<rect width="180" height="44" fill="white" transform="translate(22.2285 14.376)"/>
</clipPath>
</defs>
</svg>
