<svg width="240" height="73" viewBox="0 0 240 73" fill="none" xmlns="http://www.w3.org/2000/svg">
<g clip-path="url(#clip0_676_67308)">
<path d="M214.055 35.7533C214.055 34.1007 215.436 32.9348 217.36 32.9348C219.122 32.9348 220.124 33.7473 220.124 35.1566C220.124 36.4296 219.042 37.1351 217.36 37.8664L214.055 39.2757V35.7533ZM217.035 45.8614C218.932 45.8614 220.585 45.13 221.425 43.6396C221.696 43.1791 221.642 42.6373 221.236 42.3665C220.828 42.0957 220.286 42.1767 220.016 42.5838C219.285 43.6411 218.364 44.1552 217.035 44.1552C215.084 44.1552 214.055 43.1531 214.055 41.3367V41.0934L217.929 39.441C220.909 38.1678 222.02 37.3278 222.02 34.9974C222.02 32.6669 220.204 31.2302 217.332 31.2302C214.46 31.2302 212.21 33.1275 212.21 35.7549V41.3367C212.21 44.0742 214.08 45.8614 217.033 45.8614H217.035ZM209.232 31.3633C206.521 31.3633 204.624 33.3418 204.624 36.3225V44.8041C204.624 45.3181 205.004 45.7251 205.545 45.7251C206.087 45.7251 206.466 45.3181 206.466 44.8041V36.3225C206.466 34.5063 207.415 33.1521 209.257 33.1521C209.556 33.1521 210.016 33.2607 210.259 33.2607C210.748 33.2607 211.127 32.9348 211.127 32.3931C211.127 31.9861 210.884 31.6342 210.368 31.4995C209.989 31.3909 209.61 31.3633 209.23 31.3633H209.232ZM193.712 41.932C193.712 40.6589 194.794 39.9536 196.474 39.2221L199.781 37.8128V41.3352C199.781 42.9878 198.4 44.1537 196.474 44.1537C194.713 44.1537 193.712 43.3412 193.712 41.932ZM196.801 31.2286C194.904 31.2286 193.251 31.9601 192.411 33.4504C192.14 33.911 192.194 34.4527 192.6 34.7234C193.007 34.9943 193.55 34.9133 193.82 34.5063C194.551 33.4488 195.472 32.9348 196.801 32.9348C198.751 32.9348 199.781 33.937 199.781 35.7533V35.9966L195.907 37.6491C192.926 38.9223 191.816 39.7623 191.816 42.0926C191.816 44.423 193.632 45.8599 196.504 45.8599C199.376 45.8599 201.626 43.9625 201.626 41.3352V35.7533C201.626 33.0158 199.754 31.2286 196.801 31.2286ZM180.08 39.493V33.2607C180.08 30.6595 182.004 28.6534 184.47 28.6534C186.34 28.6534 187.723 29.4659 188.509 30.9839C188.726 31.4169 189.241 31.6066 189.701 31.3909C190.133 31.1736 190.298 30.6595 190.081 30.2249C189.05 28.0843 187.047 26.8922 184.47 26.8922C180.922 26.8922 178.157 29.6557 178.157 33.2607V39.493C178.157 43.0964 180.922 45.8614 184.47 45.8614C187.045 45.8614 189.05 44.6694 190.081 42.5288C190.298 42.0957 190.133 41.58 189.701 41.3627C189.241 41.1454 188.725 41.3352 188.509 41.7697C187.723 43.2876 186.34 44.1002 184.47 44.1002C182.004 44.1002 180.08 42.0957 180.08 39.493ZM165.168 44.9432C165.168 45.3197 165.548 45.7251 166.089 45.7251C166.631 45.7251 167.01 45.3181 167.01 44.8041V36.353C167.01 34.5368 168.473 33.0739 170.289 33.0739C172.106 33.0739 173.569 34.5368 173.569 36.353V44.8041C173.569 45.3181 173.948 45.7251 174.49 45.7251C175.031 45.7251 175.41 45.3181 175.41 44.8041V36.353C175.41 33.6157 173.243 31.3663 170.533 31.3663C169.15 31.3663 167.904 31.9632 167.01 32.9102V27.948C167.01 27.4339 166.631 27.0269 166.089 27.0269C165.548 27.0269 165.168 27.4339 165.168 28.0872V44.9432ZM159.153 31.4995V27.9495C159.153 27.4354 158.774 27.0284 158.232 27.0284C157.69 27.0284 157.311 27.4354 157.311 27.9495V31.4995H155.061C154.573 31.4995 154.221 31.8515 154.221 32.3671C154.221 32.8552 154.573 33.2071 155.061 33.2071H157.311V40.7676C157.311 42.1492 157.771 43.4239 158.611 44.3449C159.533 45.3473 160.699 45.7267 162.134 45.7267C162.731 45.7267 163.111 45.2661 163.082 44.778C163.055 44.2899 162.649 43.9655 162.161 43.9655C160.129 43.9655 159.153 42.6113 159.153 40.7676V33.2071H162.242C162.731 33.2071 163.082 32.8552 163.082 32.3395C163.082 31.8513 162.731 31.4995 162.242 31.4995H159.153ZM154.818 45.0213C154.846 44.5332 154.466 44.1537 153.978 44.1002C152.867 43.9915 152.245 43.3136 152.245 42.0406V27.9495C152.245 27.4354 151.865 27.0284 151.323 27.0284C150.782 27.0284 150.402 27.4354 150.402 27.9495V42.0406C150.402 43.0703 150.701 43.9639 151.242 44.6142C151.865 45.4008 152.76 45.8614 153.871 45.8614C154.413 45.8614 154.792 45.4818 154.82 45.0213H154.818ZM139.322 41.932C139.322 40.6589 140.406 39.9536 142.086 39.2221L145.392 37.8128V41.3352C145.392 42.9878 144.011 44.1537 142.086 44.1537C140.325 44.1537 139.322 43.3412 139.322 41.932ZM142.412 31.2286C140.514 31.2286 138.862 31.9601 138.022 33.4504C137.751 33.911 137.805 34.4527 138.212 34.7234C138.619 34.9943 139.16 34.9133 139.431 34.5063C140.162 33.4488 141.084 32.9348 142.412 32.9348C144.363 32.9348 145.392 33.937 145.392 35.7533V35.9966L141.518 37.6491C138.538 38.9223 137.427 39.7623 137.427 42.0926C137.427 44.423 139.243 45.8599 142.115 45.8599C144.987 45.8599 147.236 43.9625 147.236 41.3352V35.7533C147.236 33.0158 145.366 31.2286 142.413 31.2286H142.412ZM127.562 35.7533C127.562 34.1007 128.943 32.9348 130.869 32.9348C132.63 32.9348 133.632 33.7473 133.632 35.1566C133.632 36.4296 132.549 37.1351 130.869 37.8664L127.562 39.2757V35.7533ZM130.543 45.8614C132.44 45.8614 134.092 45.13 134.932 43.6396C135.203 43.1791 135.15 42.6373 134.743 42.3665C134.336 42.0957 133.794 42.1767 133.523 42.5838C132.792 43.6411 131.871 44.1552 130.543 44.1552C128.592 44.1552 127.562 43.1531 127.562 41.3367V41.0934L131.436 39.441C134.417 38.1678 135.528 37.3278 135.528 34.9974C135.528 32.6669 133.711 31.2302 130.839 31.2302C127.967 31.2302 125.718 33.1275 125.718 35.7549V41.3367C125.718 44.0742 127.588 45.8614 130.541 45.8614H130.543ZM122.471 44.7505V28.0047C122.471 27.4354 122.092 27.0284 121.495 27.0284C120.898 27.0284 120.519 27.4354 120.519 28.0047V35.2391H111.965V28.0047C111.965 27.4354 111.586 27.0284 110.989 27.0284C110.392 27.0284 110.013 27.4354 110.013 28.0047V44.7505C110.013 45.2921 110.42 45.7267 110.989 45.7267C111.558 45.7267 111.965 45.3197 111.965 44.7505V36.9468H120.519V44.7505C120.519 45.3197 120.898 45.7267 121.495 45.7267C122.092 45.7267 122.471 45.3197 122.471 44.7505ZM101.874 45.5906C102.362 45.5906 102.714 45.2385 102.714 44.7505C102.714 44.2364 102.362 43.8829 101.874 43.8829H93.9202V36.9452H101.224C101.712 36.9452 102.064 36.5933 102.064 36.1052C102.064 35.591 101.712 35.2376 101.224 35.2376H93.9202V28.8691H101.874C102.362 28.8691 102.714 28.5173 102.714 28.0015C102.714 27.5135 102.362 27.1616 101.874 27.1616H92.9715C92.4023 27.1616 92.0229 27.5686 92.0229 28.1103V44.6403C92.0229 45.182 92.4023 45.589 92.9715 45.589H101.874V45.5906ZM88.6367 39.493V36.5658C88.6367 36.0242 88.2572 35.617 87.6879 35.617H82.5666C82.0785 35.617 81.7265 35.969 81.7265 36.4572C81.7265 36.9712 82.0785 37.3248 82.5666 37.3248H86.7393V39.493C86.7393 42.0406 84.7884 44.1002 82.4304 44.1002C80.0724 44.1002 78.1491 42.0682 78.1491 39.493V33.2607C78.1491 30.6595 79.9913 28.6534 82.3768 28.6534C84.1931 28.6534 85.4937 29.4659 86.2787 30.9839C86.496 31.4169 87.01 31.6066 87.4706 31.3909C87.9038 31.1736 88.0675 30.6595 87.8502 30.2249C86.8203 28.0843 84.897 26.8922 82.3768 26.8922C78.908 26.8922 76.2258 29.6557 76.2258 33.2607V39.493C76.2258 43.0703 78.9356 45.8614 82.4304 45.8614C85.9253 45.8614 88.6351 42.9618 88.6351 39.493H88.6367ZM45.4775 30.456C45.4775 27.8731 47.2251 25.3621 48.1813 25.8395C49.2678 26.3842 47.3673 28.8187 45.4775 30.456ZM33.5715 31.4C33.5715 29.322 35.6235 25.3698 36.8782 25.786C38.3579 26.2787 35.6511 30.2647 33.5715 31.4ZM31.4936 46.2653C30.5496 46.3082 29.9207 45.7038 29.9207 44.697C29.9207 41.9886 33.6742 39.4042 36.5094 38.0163C36.0061 41.7957 34.7299 46.1169 31.4936 46.2653ZM48.8149 37.4471C46.6757 37.4471 45.0354 39.0232 45.0354 40.9114C45.0354 42.4874 45.9795 43.7452 47.2403 43.7452C47.6825 43.7452 48.1201 43.4943 48.1201 42.9265C48.1201 42.108 47.0352 41.909 47.1195 40.6834C47.1729 39.8755 47.9335 39.3354 48.6878 39.3354C50.1996 39.3354 50.9065 40.7997 50.9065 42.3115C50.8422 44.6418 49.1285 46.2637 47.1134 46.2637C44.4677 46.2637 42.7693 43.7437 42.7693 41.0337C42.7693 37.0035 45.4133 35.4289 46.7982 35.051C46.8118 35.051 50.4214 35.6952 50.3082 34.1038C50.2593 33.406 49.2187 33.1383 48.4644 33.1062C47.6274 33.0725 46.7874 33.3739 46.7874 33.3739C46.3467 33.1521 46.0423 32.7189 45.8555 32.2171C48.4368 30.2631 50.2638 28.375 50.2638 26.2328C50.2638 25.0989 49.5079 24.0906 48.059 24.0906C45.4775 24.0906 43.5236 27.3651 43.5236 30.3259C43.5236 30.8293 43.5236 31.3342 43.6505 31.7749C42.0134 32.9715 40.7954 33.7136 38.5904 35.0372C38.5904 34.7602 38.6486 34.0518 38.8337 33.1275C39.5895 32.3089 40.6271 31.0832 40.6271 30.1376C40.6271 29.6969 40.3761 29.3191 39.8712 29.3191C38.6118 29.3191 37.6678 31.2073 37.4152 32.5308C36.8476 33.224 35.7153 34.1068 34.7697 34.1068C34.0138 34.1068 33.7628 33.4122 33.6986 33.1612C36.0932 32.3411 39.0525 29.0665 39.0525 26.1057C39.0525 25.4753 38.8001 24.089 36.9119 24.089C34.0765 24.089 31.6834 28.3092 31.6834 31.5852C30.675 31.5852 30.2986 30.5141 30.2986 29.6955C30.2986 28.8768 30.6138 28.0567 30.6138 27.8057C30.6138 27.5548 30.4868 27.238 30.1089 27.238C29.1632 27.238 28.5971 28.4974 28.5971 29.9463C28.6614 31.9616 29.9834 33.2224 31.7476 33.3479C32.0001 34.5445 33.0712 35.6783 34.3932 35.6783C35.2134 35.6783 36.2202 35.4273 36.9134 34.7969C36.8491 35.2391 36.788 35.6156 36.7237 35.9935C33.9525 37.4426 31.9374 38.4509 30.1104 40.0866C28.6629 41.4102 27.8427 43.1729 27.8427 44.5608C27.8427 46.4505 29.0393 48.2117 31.4952 48.2117C34.3932 48.2117 36.5967 45.8827 37.6678 42.6694C38.1727 41.1577 38.3746 38.9589 38.5001 36.9422C41.3982 35.3049 42.7723 34.3562 44.2811 33.2851C44.4708 33.6003 44.6621 33.8528 44.9115 34.041C43.5894 34.7342 40.4404 36.6867 40.4404 41.2831C40.4404 44.5592 42.6452 48.2117 46.9909 48.2117C50.5806 48.2117 53.038 45.2539 53.038 42.4186C53.038 39.8357 51.5889 37.4426 48.8163 37.4426L48.8149 37.4471ZM59.6436 42.8562C59.6328 42.8761 59.5962 42.9051 59.5272 42.8806C59.4738 42.8607 59.4569 42.8332 59.4585 42.7996C59.4616 42.7628 60.2205 40.5227 60.2159 37.9505C60.2067 35.1779 59.0804 33.478 57.6346 33.478C56.7516 33.478 56.1228 34.1084 56.1228 35.0524C56.1228 36.7539 58.2006 36.8794 58.2006 40.5962C58.2006 42.108 57.8854 43.554 57.3821 45.1315C55.0517 53.0041 47.6183 56.6565 40.3761 56.6565C37.0374 56.6565 34.6641 55.971 33.9572 55.6542C33.9281 55.6405 33.9051 55.5838 33.9265 55.5288C33.9435 55.4844 33.9923 55.4522 34.0183 55.4645C34.306 55.5777 36.3427 56.2174 38.8612 56.2174C41.6324 56.2174 43.2711 55.085 43.2711 53.6956C43.2711 52.8158 42.578 52.1227 41.6951 52.1227C39.9951 52.1227 39.8681 54.2633 36.2157 54.2633C34.6411 54.2633 33.2563 53.9497 31.6176 53.4448C23.8078 51.0516 20.0849 43.6809 20.0911 36.3745C20.0941 32.817 21.0902 29.9831 21.1071 29.9556C21.1193 29.9372 21.1637 29.9174 21.2188 29.9372C21.2754 29.9556 21.2907 30.0046 21.2846 30.0182C21.1928 30.3137 20.5317 32.3442 20.5317 34.8627C20.5317 37.6353 21.6656 39.2726 23.1131 39.2726C23.9317 39.2726 24.6249 38.6421 24.6249 37.7623C24.6249 36.0608 22.5469 35.8727 22.5469 32.2187C22.5469 30.6425 22.8621 29.2578 23.3655 27.6206C25.7587 19.8108 33.1279 16.1491 40.373 16.0941C43.7393 16.0681 46.6865 17.0749 46.7966 17.1636C46.8165 17.1805 46.8378 17.2248 46.8165 17.2769C46.7935 17.335 46.7537 17.3426 46.7338 17.3396C46.6987 17.335 44.7829 16.5347 41.8832 16.5347C39.1764 16.5347 37.4765 17.667 37.4765 19.1176C37.4765 19.9362 38.1053 20.6279 39.0495 20.6279C40.751 20.6279 40.8779 18.5499 44.5289 18.5499C46.1049 18.5499 47.4881 18.8651 49.1269 19.3685C57.0026 21.7617 60.5861 29.1951 60.6535 36.3745C60.6887 40.0529 59.6513 42.8379 59.6421 42.8562H59.6436ZM40.3761 14.7062C28.4089 14.7062 18.7063 24.4073 18.7063 36.3729C18.7063 48.3387 28.4074 58.0397 40.3761 58.0397C52.3448 58.0397 62.0413 48.3417 62.0413 36.3729C62.0413 24.4042 52.3433 14.7062 40.3761 14.7062ZM40.3761 59.1123C27.8412 59.1123 17.6367 48.9721 17.6367 36.3745C17.6367 23.7769 27.8381 13.6382 40.373 13.6382C52.908 13.6382 63.1109 23.8411 63.1109 36.376C63.1109 48.911 52.9048 59.1139 40.373 59.1139L40.3761 59.1123Z" fill="#012121"/>
</g>
<defs>
<clipPath id="clip0_676_67308">
<rect width="204.641" height="45.4757" fill="white" transform="translate(17.6367 13.6382)"/>
</clipPath>
</defs>
</svg>
