<svg width="218" height="73" viewBox="0 0 218 73" fill="none" xmlns="http://www.w3.org/2000/svg">
<path d="M17.8809 32.5179C17.8809 31.137 19.0096 30.0141 20.3976 30.0141H20.6416C21.1755 22.6696 27.3376 16.8729 34.8648 16.8729C38.2281 16.8729 41.3244 18.0338 43.7648 19.9761C44.68 19.7182 45.6409 19.5892 46.6095 19.5892C52.3979 19.5892 57.0957 24.2553 57.0957 30.0141H57.3093C58.6973 30.0141 59.826 31.137 59.826 32.5179C59.826 40.0672 55.7535 46.8958 49.3397 50.5832V52.1234C49.3397 54.1947 47.6466 55.8791 45.5646 55.8791H32.1422C30.0602 55.8791 28.3671 54.1947 28.3671 52.1234V50.5832C21.9533 46.9034 17.8809 40.0672 17.8809 32.5179ZM29.5416 48.3677H48.1652C53.763 45.1128 57.3093 39.1264 57.3093 32.5103H20.3976C20.3976 39.1264 23.9438 45.1128 29.5416 48.3677ZM34.8877 26.8881C36.8401 26.8881 38.4874 28.2159 38.9526 30.0065H41.5227C41.0193 26.8274 38.2433 24.3919 34.8877 24.3919C31.5321 24.3919 28.7561 26.8274 28.2527 30.0065H30.8228C31.288 28.2159 32.9353 26.8881 34.8877 26.8881ZM25.675 30.0065C26.1936 25.439 30.106 21.8805 34.8496 21.8805C39.5932 21.8805 43.5055 25.439 44.0241 30.0065H46.5561C46.0222 24.0505 40.9888 19.3843 34.8496 19.3843C28.7103 19.3843 23.6769 24.0505 23.1431 30.0065H25.675ZM52.0547 30.0065H54.5638C54.5638 25.6514 51.0023 22.1157 46.6171 22.1157C46.3883 22.1157 46.1671 22.1233 45.946 22.1461C46.5866 22.9352 47.1509 23.7849 47.6161 24.703C50.1405 25.1658 52.0547 27.3661 52.0547 30.0065ZM49.6066 30.0065C49.6066 29.2781 49.3168 28.618 48.844 28.1097C48.9813 28.7243 49.0804 29.3616 49.1338 30.0065H49.6066ZM30.922 50.8715V52.1234C30.922 52.8139 31.4863 53.3753 32.1803 53.3753H45.6028C46.2968 53.3753 46.8611 52.8139 46.8611 52.1234V50.8715H30.922ZM81.4086 35.7728C84.3067 36.3722 86.3658 38.9974 86.2133 41.7668C86.015 44.9838 83.0941 46.8427 80.4935 47.2296C80.0359 47.2751 79.5707 47.3055 79.1207 47.3055C76.4286 47.3055 73.7594 46.1826 72.1045 44.2706C71.5325 43.5574 71.6087 42.5483 72.3332 41.9185C72.9891 41.3722 74.0034 41.4557 74.6212 42.1461C75.7956 43.5346 77.9692 44.3009 80.0359 43.9671C81.3553 43.8078 82.8424 42.9883 82.9339 41.615C83.0102 40.3631 82.0493 39.2099 80.7223 38.8836C80.1503 38.7774 79.5173 38.747 78.8919 38.7319C77.4506 38.6408 75.849 38.5574 74.3924 37.5179C72.3561 36.175 71.3647 33.6939 71.9519 31.524C72.6307 29.1264 74.8347 27.2903 77.4429 26.8957C79.9825 26.5543 82.6823 27.2675 84.6117 28.7925C85.321 29.3161 85.4583 30.3555 84.9168 31.0687C84.3601 31.7516 83.3152 31.8881 82.6289 31.3722C81.3553 30.3555 79.5707 29.8927 77.9005 30.1582C76.5964 30.3252 75.4372 31.2281 75.155 32.3586C74.8576 33.3373 75.4677 34.3464 76.2227 34.8624C76.9548 35.3555 77.9158 35.4162 79.0445 35.4693C79.8147 35.5225 80.585 35.5528 81.4086 35.7728ZM95.0599 33.6484C98.5833 33.6332 101.466 36.6681 101.466 40.4011V45.5604C101.466 46.4937 100.749 47.2296 99.8645 47.2296C98.9112 47.2296 98.1943 46.4937 98.1867 45.5604V40.4011C98.1943 38.4739 96.7682 36.9185 95.0599 36.9109C92.894 36.9185 91.7958 39.0505 91.7805 40.9322V45.5604C91.7958 46.4937 91.056 47.2296 90.179 47.2296C89.2409 47.2296 88.5012 46.4937 88.5012 45.5604V35.1658C88.5012 34.2326 89.2409 33.4966 90.179 33.4966C90.8654 33.4966 91.4678 33.9595 91.7043 34.6347C92.6728 33.9898 93.8015 33.6332 95.0599 33.6484ZM115.27 33.6484C116.185 33.6484 116.871 34.3616 116.871 35.2417V45.6363C116.871 46.5164 116.185 47.2296 115.27 47.2296C114.378 47.2296 113.828 46.5164 113.821 45.6363V45.3328C112.646 46.3571 111.274 46.9565 109.626 46.9261C105.95 46.9565 102.991 44.005 102.991 40.4011C102.991 36.7364 105.95 33.7546 109.626 33.7243C111.274 33.7546 112.646 34.3844 113.821 35.3176V35.2417C113.828 34.3616 114.378 33.6484 115.27 33.6484ZM109.626 43.7395C111.502 43.7395 113.058 42.2296 113.058 40.3252C113.058 38.4436 111.502 36.9109 109.626 36.9109C107.75 36.9109 106.194 38.4436 106.194 40.3252C106.194 42.2296 107.75 43.7395 109.626 43.7395ZM126.328 47.1537C124.536 47.1537 122.858 46.4709 121.6 45.2569C120.257 43.9671 119.518 42.2751 119.464 40.4769C119.441 38.6484 120.097 36.9033 121.447 35.6211C122.667 34.2857 124.368 33.5498 126.176 33.4966C128.036 33.4739 129.768 34.1492 131.056 35.4693C131.735 36.0308 131.766 37.093 131.133 37.7455C130.507 38.3753 129.463 38.4056 128.769 37.7455C128.12 37.1234 127.22 36.7668 126.252 36.7592C125.298 36.7668 124.421 37.1765 123.735 37.8214C123.11 38.5422 122.728 39.4375 122.744 40.4011C122.751 41.3191 123.163 42.2448 123.811 42.9049C124.536 43.5574 125.436 43.9064 126.404 43.8912C127.274 43.8836 128.12 43.527 128.769 42.9049C129.409 42.3055 130.477 42.3586 131.056 42.9807C131.712 43.6636 131.651 44.7031 130.98 45.3328C129.768 46.4709 128.151 47.1234 126.481 47.1537H126.328ZM144.936 44.3465C145.6 44.9534 145.661 45.9929 145.013 46.6985C144.7 47.0248 144.235 47.2144 143.792 47.2296C143.381 47.2144 142.999 47.0779 142.649 46.7744L137.081 41.615V45.7122C137.074 46.6454 136.334 47.3814 135.403 47.3814C134.465 47.3814 133.726 46.6454 133.726 45.7122V28.3373C133.726 27.4041 134.465 26.6681 135.403 26.6681C136.334 26.6681 137.074 27.4041 137.081 28.3373V37.5938L142.496 33.876C143.243 33.3297 144.288 33.4891 144.784 34.2554C145.356 34.9913 145.165 36.0308 144.403 36.6074L139.827 39.6423L144.936 44.3465ZM153.859 33.5725C157.673 33.5725 160.799 36.653 160.799 40.4769C160.799 44.3009 157.673 47.3814 153.859 47.3814C152.441 47.3814 151.129 46.9413 149.97 46.2433V52.6166C150.008 53.5498 149.268 54.2858 148.368 54.2858C147.43 54.2858 146.691 53.5498 146.691 52.6166V35.2417C146.691 34.3616 147.43 33.6256 148.368 33.6484C149.1 33.6256 149.733 34.1188 149.97 34.7865C151.045 34.0126 152.418 33.5725 153.859 33.5725ZM153.936 44.1188C155.873 44.1188 157.52 42.5103 157.52 40.5528C157.52 38.5194 155.873 36.9109 153.936 36.9109C151.892 36.9109 150.275 38.5194 150.275 40.5528C150.275 42.5103 151.892 44.1188 153.936 44.1188ZM174.374 33.6484C175.289 33.6484 175.976 34.3616 175.976 35.2417V45.6363C175.976 46.5164 175.289 47.2296 174.374 47.2296C173.482 47.2296 172.933 46.5164 172.925 45.6363V45.3328C171.751 46.3571 170.378 46.9565 168.731 46.9261C165.055 46.9565 162.096 44.005 162.096 40.4011C162.096 36.7364 165.055 33.7546 168.731 33.7243C170.378 33.7546 171.751 34.3844 172.925 35.3176V35.2417C172.933 34.3616 173.482 33.6484 174.374 33.6484ZM168.654 43.7395C170.531 43.7395 172.086 42.2296 172.086 40.3252C172.086 38.4436 170.531 36.9109 168.654 36.9109C166.778 36.9109 165.223 38.4436 165.223 40.3252C165.223 42.2296 166.778 43.7395 168.654 43.7395ZM183.45 47.3814C181.696 47.3814 179.942 46.6682 179.026 45.788C178.378 45.219 178.325 44.1795 178.95 43.5119C179.56 42.8366 180.597 42.8138 181.238 43.436C181.749 43.876 183.587 44.5058 184.594 43.8153C184.906 43.6636 185.066 43.3601 185.051 43.0566C185.066 42.6773 184.739 42.4041 184.441 42.2979C184.22 42.1537 183.778 42.1537 183.297 42.1461C182.626 42.1537 181.886 42.131 181.086 41.8427C179.697 41.3874 178.546 39.9155 178.416 38.5042C178.294 36.7668 179.034 35.697 179.636 35.09C181.04 33.8381 183.038 33.6484 184.517 33.876C185.585 34.0809 186.409 34.4678 187.11 35.09C187.759 35.697 187.812 36.7364 187.187 37.3662C186.851 37.7759 186.332 37.9731 185.814 37.8973C185.562 37.8897 185.318 37.8062 185.127 37.6696C184.708 37.3965 184.433 37.2068 183.907 37.1385C183.122 36.9868 181.589 37.0399 181.696 38.2008C181.726 38.3525 181.97 38.7091 182.153 38.8077C182.466 38.876 182.878 38.876 183.297 38.8836C184.029 38.8988 184.929 38.8988 185.814 39.3389C187.347 39.9914 188.331 41.4709 188.331 43.0566C188.331 44.4527 187.621 45.7653 186.424 46.5468C185.509 47.1613 184.494 47.3814 183.45 47.3814ZM195.194 47.3814C193.44 47.3814 191.686 46.6682 190.771 45.788C190.123 45.219 190.069 44.1795 190.695 43.5119C191.305 42.8366 192.342 42.8138 192.983 43.436C193.494 43.876 195.332 44.5058 196.338 43.8153C196.651 43.6636 196.811 43.3601 196.796 43.0566C196.811 42.6773 196.483 42.4041 196.186 42.2979C195.965 42.1537 195.522 42.1537 195.042 42.1461C194.371 42.1537 193.631 42.131 192.83 41.8427C191.442 41.3874 190.291 39.9155 190.161 38.5042C190.039 36.7668 190.779 35.697 191.381 35.09C192.784 33.8381 194.782 33.6484 196.262 33.876C197.33 34.0809 198.153 34.4678 198.855 35.09C199.503 35.697 199.557 36.7364 198.931 37.3662C198.596 37.7759 198.077 37.9731 197.559 37.8973C197.307 37.8897 197.063 37.8062 196.872 37.6696C196.453 37.3965 196.178 37.2068 195.652 37.1385C194.866 36.9868 193.333 37.0399 193.44 38.2008C193.471 38.3525 193.715 38.7091 193.898 38.8077C194.211 38.876 194.622 38.876 195.042 38.8836C195.774 38.8988 196.674 38.8988 197.559 39.3389C199.091 39.9914 200.075 41.4709 200.075 43.0566C200.075 44.4527 199.366 45.7653 198.169 46.5468C197.253 47.1613 196.239 47.3814 195.194 47.3814Z" fill="#012121"/>
</svg>
