<svg width="182" height="73" viewBox="0 0 182 73" fill="none" xmlns="http://www.w3.org/2000/svg">
<g clip-path="url(#clip0_676_67356)">
<path opacity="0.75" d="M38.4472 19.0863L46.744 32.4355L55.0477 45.7848H38.4472H21.8535L30.1504 32.4355L38.4472 19.0863Z" fill="#012121"/>
<path opacity="0.75" d="M51.0829 9.37598L59.3798 27.577L67.6766 45.7848H51.0829H34.4824L42.7793 27.577L51.0829 9.37598Z" fill="#012121"/>
<path opacity="0.75" d="M44.7617 14.5598L53.0653 30.1723L61.3622 45.7848H44.7617H28.168L36.4648 30.1723L44.7617 14.5598Z" fill="#012121"/>
<path d="M72.602 14.5801H71.6211V26.1539H72.602V14.5801Z" fill="#012121"/>
<path d="M81.7708 20.7397C83.5147 20.489 84.5501 19.3506 84.5501 17.6768C84.5501 15.7659 83.1741 14.5801 80.9602 14.5801H75.7832V26.1539H76.7641V20.821H80.6605L84.4002 26.1539H85.5446L81.7776 20.7397H81.7708ZM76.7641 15.4949H80.8989C82.6019 15.4949 83.576 16.3012 83.576 17.6972C83.576 19.0931 82.6291 19.9198 80.8989 19.9198H76.7641V15.4949Z" fill="#012121"/>
<path d="M92.6631 14.3904C89.3593 14.3904 86.8594 16.9654 86.8594 20.3738C86.8594 23.7823 89.3525 26.3573 92.6631 26.3573C95.9736 26.3573 98.4463 23.7823 98.4463 20.3738C98.4463 16.9654 95.96 14.3904 92.6631 14.3904ZM92.6631 25.4289C89.9247 25.4289 87.8607 23.2537 87.8607 20.3738C87.8607 17.4939 89.9247 15.3323 92.6631 15.3323C95.4014 15.3323 97.4518 17.5007 97.4518 20.3738C97.4518 23.2469 95.3946 25.4289 92.6631 25.4289Z" fill="#012121"/>
<path d="M109.517 24.426L101.922 14.614L101.895 14.5801H101.057V26.1539H102.038V16.3012L109.646 26.1268L109.667 26.1539H110.491V14.5801H109.517V24.426Z" fill="#012121"/>
<path d="M76.8327 39.8691L72.4595 34.1499H71.5059V45.7237H72.4868V35.7152L76.5058 40.9465L76.5262 40.9736H77.1325L81.1446 35.722V45.7237H82.1255V34.1499H81.1991L76.8327 39.8691Z" fill="#012121"/>
<path d="M90.5313 33.9535C87.2275 33.9535 84.7344 36.5285 84.7344 39.9369C84.7344 43.3454 87.2275 45.9204 90.5313 45.9204C93.835 45.9204 96.3145 43.3454 96.3145 39.9369C96.3145 36.5285 93.8282 33.9535 90.5313 33.9535ZM90.5313 44.992C87.7929 44.992 85.7289 42.8168 85.7289 39.9369C85.7289 37.057 87.7929 34.8954 90.5313 34.8954C93.2696 34.8954 95.32 37.0638 95.32 39.9369C95.32 42.8101 93.2628 44.992 90.5313 44.992Z" fill="#012121"/>
<path d="M107.119 40.7636C107.119 43.4063 105.743 44.9852 103.427 44.9852C101.111 44.9852 99.7211 43.4063 99.7211 40.7636V34.1432H98.7402V40.7636C98.7402 43.9417 100.539 45.9135 103.427 45.9135C106.315 45.9135 108.093 43.9417 108.093 40.7636V34.1432H107.112V40.7636H107.119Z" fill="#012121"/>
<path d="M119.462 43.989L111.867 34.177L111.847 34.1499H111.002V45.7237H111.983V35.8643L119.592 45.6899L119.619 45.7237H120.443V34.1499H119.462V43.989Z" fill="#012121"/>
<path d="M131.599 34.1499H122.424V35.0579H126.525V45.7237H127.505V35.0579H131.599V34.1499Z" fill="#012121"/>
<path d="M136.839 34.0822H135.98L130.763 45.6086L130.715 45.7238H131.743L133.249 42.3966H139.557L141.062 45.7238H142.091L136.859 34.1296L136.839 34.0822ZM139.182 41.5157H133.61L136.403 35.4103L139.182 41.5157Z" fill="#012121"/>
<path d="M145.04 34.1499H144.059V45.7237H145.04V34.1499Z" fill="#012121"/>
<path d="M156.682 43.989L149.094 34.177L149.066 34.1499H148.229V45.7237H149.203V35.8643L156.811 45.6899L156.839 45.7237H157.663V34.1499H156.682V43.989Z" fill="#012121"/>
<path d="M161.64 33.4587C160.448 33.4587 159.48 34.421 159.48 35.6068C159.48 36.7927 160.448 37.7549 161.633 37.7549C162.818 37.7549 163.799 36.7927 163.799 35.6136C163.799 34.4345 162.832 33.4587 161.64 33.4587ZM161.633 37.4567C160.598 37.4567 159.787 36.6504 159.787 35.6136C159.787 34.5768 160.604 33.7569 161.64 33.7569C162.675 33.7569 163.499 34.57 163.499 35.6136C163.499 36.6571 162.662 37.4567 161.633 37.4567Z" fill="#012121"/>
<path d="M162.615 35.1121C162.615 34.7056 162.315 34.4413 161.859 34.4413H160.803V36.7249H161.218V35.783H161.736L162.404 36.7249H162.894L162.179 35.722C162.458 35.6271 162.621 35.4035 162.621 35.1121H162.615ZM161.211 34.8208H161.845C162.077 34.8208 162.192 34.9224 162.192 35.1189C162.192 35.3154 162.077 35.4103 161.845 35.4103H161.211V34.8208Z" fill="#012121"/>
<path d="M22.4453 50.8127H163.226" stroke="#012121" stroke-width="0.25" stroke-miterlimit="10"/>
<path d="M25.1241 63.2269H23.2168V53.7401H25.1241V63.2269Z" fill="#012121"/>
<path d="M41.5684 63.2269H39.375L37.672 59.8116H35.7511V63.2269H33.8438V53.7401H38.2851C40.0834 53.7401 41.5684 54.7294 41.5684 56.7488C41.5684 58.1718 40.9553 59.0662 39.7428 59.5406L41.5684 63.2269ZM39.6066 56.7894C39.6066 55.9356 39.0889 55.5833 38.2442 55.5833H35.7511V58.0227H38.2442C39.1298 58.0227 39.6066 57.6161 39.6066 56.7894Z" fill="#012121"/>
<path d="M57.5758 58.47C57.5758 61.5328 55.8455 63.376 53.366 63.376C50.8865 63.376 49.1699 61.5599 49.1699 58.4971C49.1699 55.4342 50.9001 53.5911 53.3933 53.5911C55.8864 53.5911 57.5758 55.4071 57.5758 58.47ZM55.6139 58.4971C55.6139 56.5726 54.6875 55.4749 53.3524 55.4749C52.0173 55.4749 51.1317 56.5455 51.1317 58.47C51.1317 60.3944 52.0582 61.4922 53.3933 61.4922C54.7284 61.4922 55.6139 60.4215 55.6139 58.4971Z" fill="#012121"/>
<path d="M73.3516 63.2269H71.6486L68.1473 58.0498C67.9157 57.6974 67.6024 57.2231 67.4798 56.9792C67.4798 57.3315 67.507 58.5241 67.507 59.0527V63.2269H65.627V53.7401H67.4525L70.8312 58.7545C71.0628 59.1069 71.3762 59.5812 71.4988 59.8252C71.4988 59.4728 71.4715 58.2802 71.4715 57.7517V53.7401H73.3516V63.2269Z" fill="#012121"/>
<path d="M99.2364 55.6917L97.4653 56.5049C97.1247 55.8543 96.5797 55.4749 95.7214 55.4749C94.291 55.4749 93.4735 56.7217 93.4735 58.4835C93.4735 60.2454 94.3046 61.4922 95.7351 61.4922C96.5934 61.4922 97.0974 61.1263 97.6015 60.286L99.2091 61.2347C98.5552 62.5764 97.4108 63.376 95.6806 63.376C93.1874 63.376 91.5117 61.4786 91.5117 58.4835C91.5117 55.4884 93.2556 53.5911 95.7487 53.5911C97.547 53.5911 98.6369 54.4584 99.2364 55.6917Z" fill="#012121"/>
<path d="M113.965 63.2269H107.275V53.7401H109.183V61.3566H113.965V63.2269Z" fill="#012121"/>
<path d="M129.359 58.47C129.359 61.5328 127.629 63.376 125.149 63.376C122.67 63.376 120.953 61.5599 120.953 58.4971C120.953 55.4342 122.683 53.5911 125.176 53.5911C127.67 53.5911 129.359 55.4071 129.359 58.47ZM127.397 58.4971C127.397 56.5726 126.471 55.4749 125.136 55.4749C123.8 55.4749 122.915 56.5455 122.915 58.47C122.915 60.3944 123.841 61.4922 125.176 61.4922C126.512 61.4922 127.397 60.4215 127.397 58.4971Z" fill="#012121"/>
<path d="M145.066 59.0391C145.066 61.7903 143.622 63.376 141.197 63.376C138.772 63.376 137.342 61.831 137.342 59.0663V53.7401H139.249V59.0391C139.249 60.557 139.985 61.5193 141.197 61.5193C142.41 61.5193 143.159 60.5841 143.159 59.0663V53.7401H145.066V59.0391Z" fill="#012121"/>
<path d="M161.307 58.4835C161.307 61.8174 158.882 63.2269 156.429 63.2269H153.582V53.7401H156.566C159.29 53.7401 161.307 55.014 161.307 58.4835ZM159.345 58.4835C159.345 56.5455 158.514 55.5833 156.498 55.5833H155.489V61.3837H156.429C158.432 61.3837 159.345 60.2182 159.345 58.4835Z" fill="#012121"/>
<path d="M163.854 53.7673C163.854 54.3568 163.404 54.8108 162.805 54.8108C162.205 54.8108 161.756 54.3636 161.756 53.7673C161.756 53.171 162.212 52.7238 162.805 52.7238C163.398 52.7238 163.854 53.171 163.854 53.7673ZM163.67 53.7673C163.67 53.2794 163.302 52.9135 162.812 52.9135C162.321 52.9135 161.953 53.2794 161.953 53.7673C161.953 54.2552 162.321 54.6211 162.812 54.6211C163.302 54.6211 163.67 54.2552 163.67 53.7673ZM163.302 53.5369C163.302 53.7334 163.2 53.8215 163.077 53.8689L163.295 54.3162H163.023L162.819 53.9028H162.621V54.3162H162.383V53.1778H162.914C163.132 53.1778 163.302 53.293 163.302 53.5369ZM163.057 53.5369C163.057 53.4353 162.996 53.3946 162.893 53.3946H162.621V53.686H162.893C162.996 53.686 163.057 53.6318 163.057 53.5369Z" fill="#012121"/>
</g>
<defs>
<clipPath id="clip0_676_67356">
<rect width="142" height="54" fill="white" transform="translate(21.8535 9.37598)"/>
</clipPath>
</defs>
</svg>
