<svg width="170" height="73" viewBox="0 0 170 73" fill="none" xmlns="http://www.w3.org/2000/svg">
<path fill-rule="evenodd" clip-rule="evenodd" d="M18.1523 9.0861C18.1523 9.75739 19.3768 12.4553 20.4073 14.0551C20.8873 14.8002 21.4493 15.4892 22.0827 16.1091L22.1819 16.2062L22.4607 16.479C22.9746 16.9819 23.5461 17.4223 24.1633 17.7911C25.3426 18.4957 26.742 19.0612 28.371 19.4913C29.2224 19.716 30.0962 19.8446 30.9762 19.8746L32.3172 19.9203L34.7853 20.0043C34.9071 20.0084 35.0219 19.947 35.086 19.8434C35.1484 19.7423 35.142 19.6133 35.0699 19.5189L34.5978 18.9006C34.2048 18.3859 33.7496 17.9218 33.2427 17.5189L32.8182 17.1816C31.677 16.2748 29.6709 14.965 27.7492 13.8725L27.0647 13.4832C27.0022 13.4476 27.0267 13.3523 27.0986 13.3513C29.4479 13.3182 33.9758 16.5268 36.6435 20.1152C37.2119 20.8798 37.677 21.4659 37.677 21.4178C37.677 21.196 36.055 18.4255 35.2288 17.236C34.6172 16.3553 33.9272 15.5318 33.1672 14.7755L32.8081 14.4182L32.3615 13.9738C31.6625 13.2781 30.8602 12.6946 29.983 12.244C27.646 11.0432 24.962 10.2333 21.048 9.54775C19.9559 9.35647 18.8577 9.1594 18.6074 9.1096C18.357 9.05996 18.1523 9.04937 18.1523 9.0861ZM29.8175 22.401C28.0912 22.6395 26.11 23.4369 24.6521 24.4795L24.089 24.8822C24.013 24.9365 23.9922 25.0404 24.0414 25.1198C24.0956 25.2076 24.1913 25.261 24.2945 25.261H24.6435H24.7453C25.0113 25.261 25.2678 25.1622 25.465 24.9837L25.5673 24.8911C25.6816 24.7875 25.8571 24.7919 25.9662 24.9009C26.0732 25.008 26.3097 25.0955 26.4917 25.0955H26.5323C26.6402 25.0955 26.6946 25.2255 26.6189 25.3024C26.5068 25.4162 25.9578 25.6953 25.3988 25.9228L24.5739 26.2586C24.4524 26.308 24.3589 26.4084 24.3182 26.5331C24.2787 26.6535 24.3103 26.786 24.4 26.8756L24.5952 27.0708L24.7249 27.2006C24.8603 27.336 25.0439 27.412 25.2353 27.412C25.4229 27.412 25.5988 27.3208 25.7069 27.1675L26.0593 26.6674L26.3894 26.1991C26.5116 26.0259 26.7103 25.9228 26.9222 25.9228C27.1396 25.9228 27.349 26.0046 27.5088 26.152L28.009 26.613L28.5021 27.0676C28.662 27.2151 28.7392 27.4318 28.7084 27.6471C28.6785 27.8567 28.529 28.0295 28.3259 28.0892L28.1114 28.1523C27.7524 28.2579 27.4273 28.4558 27.1685 28.7262L26.4245 29.504L26.0766 29.8676C25.5522 30.4157 25.1119 31.0385 24.7701 31.7157L24.6608 31.9321C24.3959 32.4569 24.2934 33.0487 24.3663 33.632L24.4658 34.4294C24.4723 34.4812 24.4319 34.5269 24.3797 34.5269C24.3255 34.5269 24.1292 34.2291 23.9436 33.8651L23.7171 33.4212C23.6488 33.2874 23.5113 33.2032 23.3611 33.2032C23.2264 33.2032 23.1162 33.26 23.1162 33.3295C23.1162 33.3988 22.9486 33.5294 22.744 33.6192C22.5185 33.7183 22.3747 33.9432 22.3795 34.1894L22.3849 34.4709C22.3935 34.9261 22.481 35.3763 22.6434 35.8017L22.688 35.9185L22.8944 36.4588C22.9448 36.5908 23.0714 36.678 23.2127 36.678C23.3422 36.678 23.4472 36.573 23.4472 36.4435V36.2643V35.9984C23.4472 35.9168 23.5133 35.8506 23.5949 35.8506C23.7958 35.8506 23.9436 36.2749 23.9436 36.8512V36.9604C23.9436 37.1869 24.0682 37.3949 24.2679 37.5018C24.4788 37.6147 24.6494 37.7905 24.756 38.0047L24.982 38.459L25.2093 38.9157C25.3112 39.1205 25.507 39.2624 25.7334 39.2956L25.9458 39.3266C26.0242 39.3381 26.0946 39.2773 26.0946 39.198C26.0946 39.1152 26.29 38.9586 26.5288 38.8498C26.8091 38.722 27.1257 38.6975 27.4224 38.7807L27.8111 38.8896C28.2775 39.0201 29.0077 39.1755 29.4336 39.2345L29.6911 39.2703C30.0295 39.3173 30.3493 39.4534 30.6179 39.6647C30.8836 39.8738 31.2114 39.9883 31.5495 39.9904L31.912 39.9925L32.4021 39.9955C32.6577 39.997 32.906 40.0812 33.1099 40.2354C33.3085 40.3858 33.4281 40.618 33.4352 40.867L33.4642 41.8856L33.4905 42.8135C33.4993 43.1266 33.3982 43.4328 33.2046 43.6789C33.0089 43.9276 32.8884 44.2271 32.8574 44.5421L32.7876 45.2501L32.6927 46.2146C32.6801 46.3427 32.5723 46.4403 32.4436 46.4403C32.3169 46.4403 32.2129 46.5404 32.2081 46.667L32.187 47.2263C32.1706 47.6586 32.1762 48.2728 32.1992 48.5913C32.2265 48.9692 32.3634 49.3309 32.5931 49.6322L32.6451 49.7004L32.7539 49.8432C32.8419 49.9586 32.7263 50.118 32.5892 50.0702C32.2862 49.9646 32.01 49.794 31.7799 49.5704L31.3396 49.1423C30.8177 48.6351 30.3939 48.0359 30.0895 47.3748L29.9712 47.1181C29.653 46.4267 29.2276 45.5266 29.0259 45.1178L29.0187 45.103C28.7847 44.6286 28.4105 44.2377 27.9468 43.9833L27.9108 43.9636C27.4666 43.7199 27.0884 43.3717 26.8087 42.9492C26.5291 42.5266 26.3558 42.0426 26.3036 41.5385L26.2688 41.2024C26.1951 40.4911 25.865 39.8309 25.3401 39.3452L24.7595 38.8078C23.9922 38.0978 23.2718 37.5142 23.1586 37.5111C23.0289 37.5074 22.9083 37.4437 22.8322 37.3387L22.4643 36.8309C22.1956 36.4599 21.85 35.827 21.6962 35.4244C21.5425 35.0218 21.362 34.6924 21.2952 34.6924C21.1889 34.6924 21.0766 34.3487 20.7276 32.955C20.6821 32.773 20.6793 33.257 20.7215 34.0306C20.7725 34.9656 20.9214 35.8927 21.1656 36.7968L21.2005 36.9262C22.0492 40.0693 23.8775 44.0029 25.7845 46.788L25.9468 47.0251C26.4871 47.8143 27.0946 48.5553 27.7625 49.24L27.9362 49.4181C28.4877 49.9833 29.1007 50.485 29.7639 50.9138C30.3129 51.2685 31.1824 51.7254 31.6962 51.9291C32.3134 52.1737 32.9714 52.2989 33.6353 52.2979L34.5332 52.2966L35.3459 52.2954C36.068 52.2944 36.7852 52.1775 37.4702 51.9491C38.1394 51.7261 38.8665 51.7198 39.5385 51.934C40.2253 52.1529 40.9365 52.2862 41.656 52.3307L41.9791 52.3507L42.3225 52.3719C43.0268 52.4155 43.7336 52.3485 44.4172 52.1733C49.0498 50.9854 53.9758 44.2977 55.8618 36.6359L55.9004 36.4792C56.0982 35.6756 56.2255 34.8563 56.2808 34.0306L56.3638 32.7896L56.1259 34.1369C55.8901 35.4732 54.9191 38.7526 54.7959 38.6294C54.7606 38.594 54.871 38.0847 55.0411 37.4975C55.2112 36.9103 55.398 36.1506 55.4562 35.8093L55.5451 35.2888C55.554 35.2365 55.5137 35.1888 55.4607 35.1888C55.405 35.1888 54.9574 36.0265 54.4663 37.0503C53.4967 39.0714 53.4483 39.0744 53.79 37.0916L53.8921 36.4988C53.9756 36.0145 53.9829 35.5202 53.914 35.0336L53.8935 34.8892C53.8429 34.533 53.5802 34.2437 53.2306 34.1591C52.8534 34.0678 52.5129 33.8641 52.2542 33.5749L52.1137 33.418C51.382 32.6005 51.2113 33.0983 51.8751 34.1133L51.9688 34.2565C52.021 34.3364 52.1414 34.3255 52.1784 34.2374C52.2262 34.1237 52.3336 34.0306 52.417 34.0306C52.5008 34.0306 52.5687 34.0985 52.5687 34.1823V34.7861V35.135C52.5687 35.4021 52.5051 35.6653 52.3831 35.9029C51.9479 36.7499 50.7993 37.6707 50.1778 37.6707C50.036 37.6707 49.9209 37.5561 49.9205 37.4143L49.9175 36.5539C49.915 35.8124 49.816 35.0745 49.623 34.3586L49.6015 34.2787L49.388 33.4865C49.3708 33.4225 49.277 33.433 49.2744 33.4993C49.2499 34.1209 49.5964 37.0428 49.7757 37.7273L49.837 37.9612C49.8954 38.1839 50.1221 38.318 50.3454 38.2619L50.4471 38.2365C50.6002 38.1981 50.7486 38.3139 50.7486 38.4718C50.7486 38.6745 50.6881 38.8727 50.5748 39.0408L50.315 39.4263C50.0765 39.7804 49.5654 40.4097 49.1792 40.8248C48.3077 41.7617 48.1974 41.9677 47.852 43.3003C47.6692 44.0064 47.3354 44.6644 46.8736 45.2289L46.6734 45.4735C46.1777 46.0794 45.4417 46.8798 45.0377 47.2522L44.5321 47.7183C44.3848 47.8541 44.1918 47.9295 43.9915 47.9295C43.8216 47.9295 43.686 47.7879 43.6933 47.6182L43.7495 46.3162L43.7863 45.466C43.8082 44.9602 43.9063 44.4606 44.0772 43.984L44.0988 43.9236C44.2534 43.4924 44.2902 43.0277 44.2052 42.5776C44.1337 42.1995 44.0838 41.469 44.094 40.9544L44.1044 40.4362C44.1093 40.1919 43.9447 39.9765 43.7077 39.9171L43.4602 39.855C43.3677 39.8318 43.3028 39.7486 43.3028 39.6532C43.3028 39.5635 43.2301 39.4908 43.1405 39.4908H42.9816C42.8049 39.4908 42.6196 39.5569 42.5698 39.6376C42.52 39.7182 42.2079 39.8352 41.8767 39.8972C41.4987 39.9682 41.1099 39.8513 40.8338 39.5836L40.7186 39.472C40.3526 39.1173 40.068 38.6873 39.8845 38.2119L39.8714 38.1781C39.6787 37.6788 39.5807 37.1479 39.5823 36.6127L39.5838 36.0988L39.5843 35.9648C39.5867 35.1812 39.7607 34.4076 40.0941 33.6985L40.2744 33.3151C40.49 32.8565 40.7835 32.4387 41.1418 32.0804C41.4397 31.7826 41.9167 31.4182 42.2021 31.2706C42.5445 31.0936 42.9193 30.9881 43.3037 30.9606L43.8144 30.9241L44.4217 30.8807C44.6996 30.8608 44.9489 31.0507 45.0034 31.3239C45.0637 31.6252 45.2613 31.8809 45.5377 32.0152L45.8289 32.1567L46.3074 32.389C46.4633 32.4647 46.6475 32.4528 46.7922 32.3576C46.9442 32.2576 47.1232 32.2069 47.305 32.2124L48.087 32.2358L48.7425 32.2554C48.985 32.2626 49.205 32.1143 49.2893 31.8868L49.3278 31.7824C49.3911 31.6113 49.3583 31.4194 49.2418 31.2791C49.1225 31.1354 48.9454 31.0522 48.7587 31.0522H48.6858C48.4516 31.0522 48.2283 30.9531 48.0712 30.7795L48.0241 30.7274L47.9228 30.6155C47.8046 30.4849 47.7699 30.299 47.833 30.1346L47.8595 30.0655C47.89 29.986 47.8143 29.9069 47.7336 29.9338C47.6078 29.9757 47.5127 30.0797 47.4822 30.2088L47.4394 30.3904C47.3889 30.6043 47.2666 30.8065 47.1679 30.8394C47.0667 30.8731 46.9567 30.8229 46.9159 30.7244L46.7879 30.4155C46.5757 29.9032 45.68 28.9012 45.4341 28.9012C45.1494 28.9012 45.2927 29.1553 45.8246 29.5941L46.1451 29.8585C46.2626 29.9554 46.2715 30.1322 46.1643 30.2404C46.0527 30.3532 45.8721 30.3582 45.7543 30.2519L45.2764 29.8202L44.9802 29.5525C44.7334 29.3295 44.3962 29.2352 44.0695 29.2978C43.7334 29.3623 43.4283 29.5367 43.2022 29.7936L43.1787 29.8203C42.9738 30.053 42.8064 30.3389 42.8064 30.4557C42.8064 30.5851 42.7308 30.7026 42.6131 30.7563L42.3793 30.8628C42.1085 30.9861 41.797 30.9833 41.5284 30.8552L41.5107 30.8467C41.2376 30.7165 41.0555 30.4497 41.0337 30.1481L41.0182 29.9342L41.0152 29.8919C40.9893 29.5355 41.2715 29.2321 41.6288 29.2321H42.0837C42.2122 29.2321 42.3316 29.1656 42.3992 29.0562C42.4636 28.952 42.4513 28.8178 42.3692 28.727L42.2435 28.5881C41.8758 28.1819 41.8781 28.1784 42.8299 27.7484L43.2206 27.5718C43.5152 27.4387 43.7448 27.1939 43.8589 26.8915L43.9685 26.601C44.0098 26.4916 44.1145 26.4192 44.2314 26.4192C44.3383 26.4192 44.4685 26.5309 44.5209 26.6674C44.5782 26.8169 44.7218 26.9156 44.8819 26.9156H45.2366H45.2656C45.641 26.9156 45.9976 26.7519 46.2422 26.4672L46.4041 26.2788C46.5124 26.1527 46.4618 25.9573 46.306 25.8997C46.1289 25.8342 45.9376 25.7054 45.8809 25.6138C45.8244 25.5223 45.8544 25.4022 45.9474 25.3481L46.0708 25.2762L46.1494 25.2305C46.2093 25.1956 46.1851 25.1038 46.1157 25.1031C45.9792 25.1016 45.7558 25.1716 45.6193 25.2585C45.4817 25.346 45.4401 25.5278 45.526 25.6664L45.568 25.7342C45.6867 25.9259 45.6778 26.1712 45.5448 26.3532C45.4166 26.5286 45.1828 26.5897 44.9851 26.4996L44.885 26.454C44.6432 26.3439 44.2719 26.2538 44.0598 26.2538H44.0281C43.8039 26.2538 43.5914 26.154 43.4482 25.9816C43.33 25.839 43.3681 25.6244 43.5282 25.5313L43.5363 25.5266C43.709 25.426 44.0906 25.1389 44.3843 24.8887C44.729 24.595 45.1672 24.4339 45.62 24.4343L45.972 24.4347L46.3817 24.435C46.8091 24.4353 47.2344 24.4935 47.6462 24.6079L48.0829 24.7291C48.1915 24.7593 48.2667 24.8582 48.2667 24.9709C48.2667 25.0413 48.3518 25.0766 48.4016 25.0268L48.4653 24.9632C48.5924 24.836 48.7648 24.7646 48.9446 24.7646H49.1064C49.3498 24.7646 49.7817 24.7181 50.0661 24.6612L50.3601 24.6024C50.4898 24.5764 50.5832 24.4625 50.5832 24.3303C50.5832 24.2046 50.685 24.1027 50.8107 24.1027H50.9141H51.0824C51.1722 24.1027 51.245 24.0299 51.245 23.9401C51.245 23.8403 51.1889 23.749 51.0999 23.7039L50.4473 23.3732C49.4122 22.8485 47.9363 22.4718 46.4191 22.3445C45.613 22.2769 44.8017 22.3057 44.0024 22.4302L43.9881 22.4324C42.3525 22.6872 40.9669 23.1639 39.6212 23.9343C38.9293 24.3305 38.0794 24.3305 37.3875 23.9343C35.1013 22.6255 32.2988 22.0578 29.8175 22.401ZM29.7469 23.9113C29.3274 23.9705 28.518 24.4302 28.6321 24.5444C28.6684 24.5808 29.0554 24.5303 29.4921 24.4325L30.1038 24.2953C30.2128 24.2709 30.3253 24.3183 30.3841 24.4133C30.4459 24.5134 30.551 24.5787 30.6681 24.5898L31.06 24.6271L31.2214 24.6424C31.4478 24.6639 31.61 24.8705 31.5771 25.0955C31.5438 25.323 31.5066 25.6536 31.4943 25.8302C31.4808 26.0264 31.5809 26.213 31.7518 26.3103L31.9257 26.4093L32.1357 26.5288C32.284 26.6132 32.468 26.6027 32.6057 26.502C32.7303 26.411 33.0235 26.201 33.2575 26.0355C33.5374 25.8374 33.859 25.7062 34.1976 25.652L35.0237 25.5198C35.7611 25.4016 36.3829 25.2765 36.4056 25.2416C36.4284 25.2067 36.5431 25.0523 36.6606 24.8983C36.7721 24.7521 36.7249 24.5407 36.5618 24.4559L36.1587 24.2464C35.6886 24.0019 35.1668 23.8734 34.6369 23.8714L32.7959 23.8645C31.3398 23.859 29.9678 23.88 29.7469 23.9113ZM63.6548 31.4659V32.5414H66.7966H69.9386L69.9818 39.0358L70.0251 45.5303L71.2228 45.5789L72.4205 45.6274L72.4637 39.1258L72.5071 32.6241L75.6923 32.5791L78.8774 32.5343V31.4622V30.3904H71.2661H63.6548V31.4659ZM82.6831 38.0017V45.613H89.5498H96.4166V44.4548V43.2965H90.7081H84.9996V38.0017V32.7068H90.7081H96.4166V31.5486V30.3904H89.5498H82.6831V38.0017ZM100.222 30.4731C100.222 30.5184 101.93 33.925 104.017 38.043L107.811 45.5303L108.47 45.5804L109.128 45.6305L112.95 38.0104L116.771 30.3904H115.403H114.036L111.252 35.9618L108.468 41.5335L105.627 35.9623L102.787 30.3912L101.505 30.3907C100.799 30.3905 100.222 30.4276 100.222 30.4731ZM120.574 38.0017V45.613H127.441H134.308V44.4569V43.3008L128.558 43.2573L122.808 43.2138L122.764 37.9603L122.721 32.7068H128.514H134.308V31.5486V30.3904H127.441H120.574V38.0017ZM138.153 37.9603L138.196 45.5303H145.063H151.93L151.978 44.4155L152.027 43.3008L146.353 43.2573L140.678 43.2138L140.635 36.8021L140.591 30.3904H139.351H138.11L138.153 37.9603ZM87.1506 38.0017V39.1599H91.7836H96.4166V38.0017V36.8434H91.7836H87.1506V38.0017ZM124.91 37.9603L124.959 39.0772H129.592H134.225L134.274 37.9603L134.323 36.8434H129.592H124.861L124.91 37.9603Z" fill="#012121"/>
</svg>
