<svg width="198" height="73" viewBox="0 0 198 73" fill="none" xmlns="http://www.w3.org/2000/svg">
<path d="M18.1035 34.9535H23.393V40.3514H18.1035V34.9535Z" fill="#012121"/>
<path d="M30.8068 24.1792H31.4344C35.4878 24.1792 37.377 26.3476 38.1665 32.1303L39.4216 32.0748L39.2541 22.9001H18.6283L18.425 32.0748L19.6329 32.1303C19.8421 29.9619 20.0929 28.7942 20.6374 27.6264C21.5999 25.4577 23.6087 24.1792 26.0776 24.1792H26.9564V44.1404C26.9564 46.2533 26.8309 46.9206 26.3292 47.4211C25.9105 47.8102 25.0734 47.977 24.1105 47.977H23.148V49.3113H34.6152V47.977H33.6468C32.6902 47.977 31.8472 47.8099 31.4347 47.4211C30.9326 46.9206 30.8072 46.253 30.8072 44.1404L30.8068 24.1792Z" fill="#012121"/>
<path d="M34.2849 34.9535H39.5744V40.3514H34.2849V34.9535Z" fill="#012121"/>
<path d="M49.9037 34.9535H55.199V40.3514H49.9037V34.9535Z" fill="#012121"/>
<path d="M65.7746 34.9535H71.0644V40.3514H65.7746V34.9535Z" fill="#012121"/>
<path d="M85.3676 49.3116L92.0504 25.9936V44.2921C92.0504 46.2891 91.9368 46.9908 91.4836 47.4765C91.1434 47.8542 90.3549 48.0164 89.4807 48.0164H89.1408V49.3116H98.5871V48.0164H98.0955C97.2266 48.0164 96.4332 47.8545 96.0933 47.4765C95.6395 46.9908 95.5262 46.2891 95.5262 44.2921V28.6927C95.5262 26.6954 95.6395 25.9398 96.0933 25.4541C96.4709 25.1303 97.2266 24.9142 98.0955 24.9142H98.5871V23.6725H91.257L85.7403 42.5106L80.3425 23.6725H73.0502V24.9142H73.7299C75.7328 24.9142 76.1105 25.346 76.1105 27.9371V42.7805C76.1105 45.1554 75.9972 46.1272 75.657 46.8289C75.2793 47.5307 74.4803 48.0164 73.6544 48.0164H73.0498V49.3116H80.8331V48.0164H80.3422C79.3599 48.0164 78.5662 47.6384 78.1074 46.8828C77.6595 46.1272 77.5462 45.4254 77.5462 42.7805V25.9939L84.1906 49.3119L85.3676 49.3116Z" fill="#012121"/>
<path d="M106.71 31.0673C102.025 31.0673 98.9648 34.7378 98.9648 40.5136C98.9648 46.0733 102.025 49.8518 106.592 49.8518C111.201 49.8518 114.262 46.0733 114.262 40.4597C114.262 34.8997 111.201 31.0673 106.71 31.0673ZM106.559 32.3086C107.914 32.3086 109.085 33.1723 109.728 34.6297C110.332 35.9791 110.597 37.8145 110.597 40.4594C110.597 45.9108 109.274 48.6095 106.592 48.6095C103.914 48.6095 102.624 45.9104 102.624 40.4052C102.624 37.8142 102.894 35.9791 103.498 34.6297C104.098 33.2265 105.312 32.3086 106.559 32.3086Z" fill="#012121"/>
<path d="M120.539 23.4026L115.174 23.6725V24.86H115.433C117.02 24.86 117.365 25.3999 117.365 27.9367V45.4792C117.365 47.7462 117.29 48.3402 116.988 49.3116H118.235C119.174 47.7462 119.406 47.4765 119.784 47.4765C119.967 47.4765 120.151 47.5304 120.421 47.8003C122.277 49.3116 123.071 49.6354 124.771 49.6354C128.846 49.6354 131.793 45.695 131.793 40.0814C131.793 34.7916 129.067 31.2292 124.992 31.2292C122.877 31.2292 121.333 32.2548 120.539 34.0899V23.4026ZM124.458 32.5786C126.882 32.5786 128.129 35.1696 128.129 40.2433C128.129 45.587 126.844 48.3399 124.388 48.3399C121.667 48.3399 120.237 45.5328 120.237 40.4052C120.237 37.8142 120.577 36.0333 121.371 34.6836C122.083 33.3884 123.298 32.5786 124.458 32.5786Z" fill="#012121"/>
<path d="M138.784 31.3373L133.273 31.6611V32.8485H133.688C135.27 32.8485 135.61 33.3884 135.61 35.8714V44.9935C135.61 47.4769 135.27 48.0706 133.688 48.0706H133.089V49.3116H141.316V48.0706H140.722C139.129 48.0706 138.784 47.5304 138.784 44.9935L138.784 31.3373ZM136.975 23.4564C135.804 23.4564 134.86 24.374 134.86 25.6156C134.86 26.7493 135.804 27.7206 136.938 27.7206C138.109 27.7206 139.016 26.8031 139.016 25.6156C139.016 24.4282 138.109 23.4564 136.975 23.4564Z" fill="#012121"/>
<path d="M148.343 23.4026L142.831 23.6725V24.86H143.242C144.829 24.86 145.169 25.3999 145.169 27.9367V44.9932C145.169 47.5304 144.829 48.0703 143.242 48.0703H142.643V49.3113H150.874V48.0703H150.27C148.677 48.0703 148.343 47.5301 148.343 44.9932V23.4026Z" fill="#012121"/>
<path d="M165.907 40.3514C165.724 34.6297 163.003 31.0673 158.89 31.0673C154.917 31.0673 152.051 34.9535 152.051 40.3514C152.051 46.1268 154.88 49.8515 159.263 49.8515C162.096 49.8515 164.061 48.3399 165.686 44.9932L164.553 44.3995C163.23 47.2063 161.908 48.3399 159.867 48.3399C156.882 48.3399 155.603 45.9653 155.565 40.3514H165.907ZM155.603 39.0017C155.636 34.9535 156.952 32.4167 159.074 32.4167C161.189 32.4167 162.436 34.8997 162.399 39.0017H155.603Z" fill="#012121"/>
<path d="M170.68 34.9535H175.97V40.3514H170.68V34.9535Z" fill="#012121"/>
<path d="M177.954 30.6273C178.273 30.6273 178.584 30.709 178.889 30.8729C179.193 31.0368 179.429 31.2713 179.599 31.576C179.769 31.8808 179.854 32.1986 179.854 32.5297C179.854 32.8574 179.77 33.1723 179.602 33.4745C179.436 33.7769 179.201 34.0117 178.9 34.1789C178.598 34.346 178.283 34.4298 177.953 34.4298C177.624 34.4298 177.309 34.3463 177.007 34.1789C176.705 34.0117 176.47 33.7772 176.303 33.4745C176.135 33.1723 176.051 32.8574 176.051 32.5297C176.051 32.1986 176.136 31.8808 176.306 31.576C176.477 31.2713 176.714 31.0365 177.018 30.8729C177.323 30.709 177.635 30.6273 177.954 30.6273ZM177.954 30.9438C177.687 30.9438 177.427 31.0122 177.175 31.1491C176.922 31.286 176.724 31.4811 176.582 31.7353C176.439 31.9894 176.368 32.2545 176.368 32.5293C176.368 32.8029 176.438 33.0649 176.578 33.3158C176.718 33.5667 176.914 33.7621 177.166 33.9023C177.418 34.0426 177.68 34.1125 177.954 34.1125C178.227 34.1125 178.49 34.0426 178.741 33.9023C178.993 33.7625 179.188 33.5671 179.328 33.3158C179.467 33.0649 179.537 32.8029 179.537 32.5293C179.537 32.2545 179.466 31.9894 179.324 31.7353C179.182 31.4814 178.985 31.286 178.731 31.1491C178.478 31.0122 178.219 30.9438 177.954 30.9438ZM177.119 33.5786V31.5327H177.824C178.064 31.5327 178.239 31.5517 178.346 31.5895C178.454 31.6272 178.54 31.6932 178.603 31.7875C178.668 31.8814 178.7 31.9816 178.7 32.0873C178.7 32.2367 178.646 32.3671 178.539 32.4778C178.432 32.5884 178.29 32.6508 178.113 32.6643C178.186 32.6945 178.244 32.7306 178.287 32.7727C178.37 32.8531 178.471 32.9884 178.59 33.1782L178.84 33.5789H178.435L178.253 33.2561C178.11 33.0035 177.995 32.8453 177.909 32.7809C177.849 32.7333 177.76 32.7096 177.644 32.7096H177.45V33.5789L177.119 33.5786ZM177.45 32.4285H177.853C178.045 32.4285 178.176 32.3999 178.246 32.3425C178.316 32.285 178.351 32.2091 178.351 32.1146C178.351 32.0538 178.334 31.9993 178.3 31.9514C178.266 31.9034 178.22 31.8673 178.159 31.8436C178.1 31.82 177.989 31.8085 177.827 31.8085H177.45V32.4285Z" fill="#012121"/>
</svg>
