<svg width="246" height="73" viewBox="0 0 246 73" fill="none" xmlns="http://www.w3.org/2000/svg">
<path d="M41.8705 47.6848L36.7266 51.4224L42.9879 55.9883L44.953 49.9196L41.8705 47.6848Z" fill="#012121"/>
<path d="M43.9121 56.6626L49.0753 60.4001L54.2193 56.6626L49.0753 52.9058L43.9121 56.6626Z" fill="#012121"/>
<path d="M46.5132 45.084L27.6328 31.3668L32.0447 40.5373L38.306 45.084H46.5132Z" fill="#012121"/>
<path d="M48.4975 39.0344L22.1035 19.865L26.5154 29.0355L46.9178 43.8701L48.4975 39.0344Z" fill="#012121"/>
<path d="M25.8593 12.3514L22.7383 18.8247L32.2941 25.7604L25.8593 12.3514Z" fill="#012121"/>
<path d="M53.1797 49.9196L55.1448 55.9883L61.4061 51.4224L56.2622 47.6848L53.1797 49.9196Z" fill="#012121"/>
<path d="M59.8263 45.084L66.0877 40.5373L70.4995 31.3668L51.6191 45.084H59.8263Z" fill="#012121"/>
<path d="M49.6348 39.0344L51.2146 43.8701L71.6169 29.0355L76.0288 19.865L49.6348 39.0344Z" fill="#012121"/>
<path d="M72.2707 12.3514L65.8359 25.7604L75.3917 18.8247L72.2707 12.3514Z" fill="#012121"/>
<path d="M46.2051 48.5903C46.2051 47.0105 47.4959 45.7197 49.0757 45.7197C50.6555 45.7197 51.9463 47.0105 51.9463 48.5903C51.9463 50.1701 50.6555 51.4609 49.0757 51.4609C47.4959 51.4416 46.2051 50.1701 46.2051 48.5903Z" fill="#012121"/>
<path d="M78.668 34.0061H82.5211V40.1326C82.5211 40.8069 82.5789 41.2885 82.8294 41.7124C83.311 42.5601 84.2936 42.7913 85.0834 42.7913C86.0853 42.7913 86.6632 42.4445 86.933 42.194C87.588 41.5775 87.6073 40.6142 87.6073 40.0941V34.0254H91.4604V39.6702C91.4604 40.9418 91.4219 42.2711 90.8439 43.1766C89.6687 45.0068 86.8174 45.1802 85.122 45.1802C82.7138 45.1802 81.3652 44.8527 80.556 44.3518C78.8799 43.5234 78.7065 41.8087 78.7065 40.9418L78.668 34.0061Z" fill="#012121"/>
<path d="M92.0781 41.9823H95.5845V44.7951H92.0781V41.9823Z" fill="#012121"/>
<path d="M102.673 36.7804C102.673 36.9345 102.712 37.0694 102.789 37.1657C103.04 37.4932 104.138 37.7437 104.735 37.8593C105.467 38.0327 106.218 38.1675 106.95 38.3409C107.432 38.4372 107.875 38.5336 108.338 38.7262C109.783 39.2657 110.226 40.3253 110.226 41.3078C110.226 42.0207 109.975 42.6757 109.667 43.1573C108.761 44.5252 106.95 45.1224 104.041 45.1224C102.962 45.1224 100.805 45.0261 99.5332 43.9087C98.6084 43.0803 98.4543 42.0977 98.3965 41.5968L102.192 41.4812C102.327 42.1748 103.04 42.7142 104.581 42.7142C104.985 42.7142 105.544 42.6757 105.929 42.4638C106.18 42.3096 106.469 42.0014 106.469 41.6353C106.469 41.1344 106.064 40.9225 105.756 40.8069C105.274 40.6528 102.847 40.2289 102.327 40.1133C101.903 40.017 101.498 39.9207 101.094 39.7858C100.689 39.6317 98.9552 39.0152 98.9552 37.0501C98.9552 36.2409 99.2827 35.4896 99.8221 34.9501C101.036 33.6979 103.194 33.5823 104.388 33.5823C105.698 33.5823 107.008 33.7557 107.683 33.9869C109.705 34.6226 109.956 36.1446 110.072 36.7226L106.276 36.9345C106.18 36.5877 106.006 35.9327 104.388 35.9327C103.868 35.9134 102.673 35.9905 102.673 36.7804Z" fill="#012121"/>
<path d="M110.996 41.9823H114.502V44.7951H110.996V41.9823Z" fill="#012121"/>
<path d="M126.427 40.6528H123.922L125.155 36.9923L126.427 40.6528ZM118.297 44.7949H122.535L123.113 43.0417H127.236L127.814 44.7949H132.014L127.332 34.0061H122.94L118.297 44.7949Z" fill="#012121"/>
<path d="M137.312 34.0061V44.7949H133.439V34.0061H137.312Z" fill="#012121"/>
<path d="M144.056 36.4528H147.273C147.562 36.4528 147.967 36.4914 148.275 36.7611C148.468 36.9538 148.545 37.2042 148.545 37.4547C148.545 38.4179 147.562 38.4372 146.965 38.4372H144.056V36.4528ZM140.184 44.7949H144.056V40.8647H146.117L148.333 44.7949H152.61L149.913 40.4794C150.375 40.3638 151.107 40.2097 151.724 39.4776C152.167 38.9381 152.417 38.1868 152.417 37.4354C152.417 36.3565 151.936 35.2969 151.146 34.6997C150.24 34.0446 149.084 34.0254 148.14 34.0061H140.203V44.7949H140.184Z" fill="#012121"/>
<path d="M158.369 34.0061H168.946V36.4336H162.242V38.495H168.407V40.9032H162.242V44.7756H158.369V34.0061Z" fill="#012121"/>
<path d="M177.617 36.0099C180.257 36.0484 180.777 38.2062 180.777 39.3814C180.777 40.4603 180.372 41.8667 179.178 42.4639C178.696 42.7144 178.157 42.7722 177.617 42.7722C175.286 42.7722 174.381 41.0382 174.381 39.3814C174.361 37.8979 175.19 35.9714 177.617 36.0099ZM177.386 33.6017C175.479 33.6402 172.916 33.987 171.394 36.1255C170.701 37.108 170.393 38.3025 170.393 39.497C170.393 40.73 170.682 41.7703 171.414 42.7529C172.204 43.8318 173.745 45.1611 177.502 45.1611C179.447 45.1611 181.201 44.8914 182.665 43.7162C183.185 43.3116 183.609 42.83 183.956 42.2713C184.495 41.385 184.726 40.3447 184.726 39.3429C184.726 37.4934 183.859 35.2393 181.374 34.2182C180.16 33.7365 178.715 33.6017 177.386 33.6017Z" fill="#012121"/>
<path d="M190.755 36.4528H193.973C194.262 36.4528 194.666 36.4914 194.975 36.7611C195.167 36.9538 195.244 37.2042 195.244 37.4547C195.244 38.4179 194.262 38.4372 193.665 38.4372H190.755V36.4528ZM186.902 44.7949H190.775V40.8647H192.836L195.052 44.7949H199.329L196.632 40.4794C197.094 40.3638 197.826 40.2097 198.443 39.4776C198.886 38.9381 199.136 38.1868 199.136 37.4354C199.136 36.3565 198.654 35.2969 197.865 34.6997C196.959 34.0446 195.803 34.0254 194.859 34.0061H186.922L186.902 44.7949Z" fill="#012121"/>
<path d="M204.936 39.4006C204.936 41.0382 205.9 42.7336 208.115 42.7336C208.963 42.7336 209.734 42.4638 210.292 42.0207C210.793 41.6162 210.947 41.2501 211.063 40.9419L214.743 41.3272C214.627 41.7317 214.492 42.1171 214.126 42.6758C212.855 44.6409 210.389 45.1803 208.019 45.1803C206.959 45.1803 205.919 45.084 204.936 44.7757C202.721 44.0822 200.891 42.3868 200.891 39.4199C200.891 37.3199 201.989 33.5438 208.135 33.5438C213.375 33.5438 214.203 35.9328 214.55 36.9539L210.967 37.5896C210.812 37.2814 210.639 36.8768 210.061 36.5107C209.483 36.1447 208.77 36.0291 208.212 36.0291C206.497 36.0291 204.936 37.108 204.936 39.4006Z" fill="#012121"/>
<path d="M227.824 34.0061V36.4336H220.329V38.1868H227.265V40.6335H220.31V42.3482H227.978V44.7949H216.457V34.0061H227.824Z" fill="#012121"/>
</svg>
