<svg width="129" height="73" viewBox="0 0 129 73" fill="none" xmlns="http://www.w3.org/2000/svg">
<g clip-path="url(#clip0_676_67349)">
<path d="M28.9734 19.8501H22.6035V26.1941H28.9734V19.8501Z" fill="#012121"/>
<path d="M28.8111 52.9019V30.0546H22.7812V52.9019H28.8111ZM68.8894 53.1276V47.5287C68.0054 47.5287 67.2573 47.4835 66.7133 47.3932C66.0785 47.3029 65.6025 47.0772 65.2851 46.7611C64.9678 46.445 64.7637 45.9935 64.6504 45.4065C64.5597 44.8421 64.5144 44.0971 64.5144 43.194V35.202H68.8894V30.0546H64.5144V21.1369H58.4618V43.2392C58.4618 45.113 58.6205 46.6934 58.9379 47.9576C59.2552 49.1993 59.7993 50.2153 60.5474 50.9829C61.2954 51.7505 62.2928 52.2923 63.4943 52.631C64.7184 52.9696 66.2599 53.1276 68.096 53.1276H68.8894ZM103.527 52.9019V19.376H97.4747V52.9019H103.527ZM52.636 32.2897C50.9585 30.4835 48.6009 29.5805 45.6087 29.5805C44.1579 29.5805 42.8431 29.874 41.6416 30.461C40.4629 31.048 39.4428 31.8607 38.6494 32.8992L38.3093 33.3282V32.9444V30.0546H32.3475V52.9019H38.3547V40.7332V41.5685C38.3547 41.4331 38.3547 41.2976 38.3547 41.1622C38.4227 39.0174 38.9441 37.4371 39.9415 36.4211C41.0069 35.3375 42.299 34.7956 43.7725 34.7956C45.518 34.7956 46.8554 35.3375 47.7395 36.376C48.6009 37.4145 49.0543 38.882 49.0543 40.7558V40.8009V52.8793H55.1522V39.9205C55.1749 36.6695 54.3135 34.0958 52.636 32.2897ZM94.3464 41.4331C94.3464 39.785 94.0518 38.2498 93.485 36.8049C92.8956 35.3826 92.0796 34.1183 91.0595 33.0347C90.0167 31.951 88.7699 31.1157 87.3191 30.5061C85.8683 29.8966 84.2589 29.6031 82.5134 29.6031C80.8585 29.6031 79.2944 29.9191 77.8436 30.5287C76.3928 31.1608 75.1233 31.9962 74.0579 33.0573C72.9925 34.1183 72.1311 35.3826 71.519 36.8275C70.8843 38.2724 70.5896 39.8302 70.5896 41.4782C70.5896 43.1263 70.8843 44.6841 71.4737 46.129C72.0631 47.5739 72.9018 48.8381 73.9446 49.8992C74.9873 50.9603 76.2795 51.8182 77.7756 52.4278C79.2717 53.0599 80.9265 53.376 82.6947 53.376C87.8178 53.376 90.9915 51.0506 92.8956 48.8833L88.5432 45.5871C87.6365 46.6708 85.4603 48.1383 82.74 48.1383C81.0399 48.1383 79.6344 47.7545 78.569 46.9643C77.5036 46.1967 76.7782 45.113 76.3928 43.781L76.3248 43.5778H94.3464V41.4331ZM76.3701 39.3335C76.3701 37.6628 78.297 34.7505 82.4454 34.7279C86.5937 34.7279 88.5432 37.6403 88.5432 39.3109L76.3701 39.3335Z" fill="#012121"/>
<path d="M110.42 49.9218C110.307 49.6509 110.148 49.4252 109.944 49.222C109.74 49.0188 109.513 48.8608 109.241 48.7479C108.969 48.635 108.674 48.5673 108.38 48.5673C108.062 48.5673 107.79 48.635 107.518 48.7479C107.246 48.8608 107.02 49.0188 106.816 49.222C106.612 49.4252 106.453 49.6509 106.34 49.9218C106.226 50.1928 106.158 50.4863 106.158 50.7797C106.158 51.0958 106.226 51.3667 106.34 51.6376C106.453 51.9086 106.612 52.1343 106.816 52.3375C107.02 52.5407 107.246 52.6987 107.518 52.8116C107.79 52.9245 108.085 52.9922 108.38 52.9922C108.697 52.9922 108.969 52.9245 109.241 52.8116C109.513 52.6987 109.74 52.5407 109.944 52.3375C110.148 52.1343 110.307 51.9086 110.42 51.6376C110.533 51.3667 110.601 51.0732 110.601 50.7797C110.601 50.4863 110.533 50.1928 110.42 49.9218ZM110.057 51.5022C109.967 51.728 109.831 51.9311 109.672 52.0892C109.513 52.2472 109.309 52.3827 109.082 52.473C108.856 52.5633 108.629 52.6084 108.357 52.6084C108.108 52.6084 107.858 52.5633 107.632 52.473C107.405 52.3827 107.201 52.2472 107.042 52.0892C106.884 51.9311 106.748 51.728 106.657 51.5022C106.566 51.2764 106.521 51.0507 106.521 50.7797C106.521 50.5314 106.566 50.2831 106.657 50.0573C106.748 49.8315 106.884 49.6283 107.042 49.4703C107.201 49.3123 107.405 49.1768 107.632 49.0865C107.858 48.9962 108.085 48.9511 108.357 48.9511C108.606 48.9511 108.856 48.9962 109.082 49.0865C109.309 49.1768 109.513 49.3123 109.672 49.4703C109.831 49.6283 109.967 49.8315 110.057 50.0573C110.148 50.2831 110.193 50.5088 110.193 50.7797C110.216 51.0507 110.148 51.2764 110.057 51.5022ZM108.788 50.9604C108.969 50.9378 109.105 50.87 109.218 50.7572C109.332 50.6443 109.4 50.4863 109.4 50.2605C109.4 50.0121 109.332 49.8315 109.173 49.6961C109.037 49.5606 108.788 49.4929 108.493 49.4929H107.496V52.044H107.972V51.0055H108.312L108.946 52.044H109.445L108.788 50.9604ZM108.538 50.5991C108.47 50.5991 108.402 50.5991 108.312 50.5991H107.972V49.8767H108.312C108.38 49.8767 108.448 49.8767 108.538 49.8767C108.606 49.8767 108.674 49.8993 108.742 49.9218C108.81 49.9444 108.856 49.9896 108.878 50.0347C108.901 50.0799 108.924 50.1476 108.924 50.2379C108.924 50.3282 108.901 50.3959 108.878 50.4411C108.833 50.4863 108.788 50.5314 108.742 50.554C108.674 50.5766 108.606 50.5991 108.538 50.5991Z" fill="#012121"/>
</g>
<defs>
<clipPath id="clip0_676_67349">
<rect width="88" height="34" fill="white" transform="translate(22.6035 19.376)"/>
</clipPath>
</defs>
</svg>
