<svg width="173" height="65" viewBox="0 0 173 65" fill="none" xmlns="http://www.w3.org/2000/svg">
<g clip-path="url(#clip0_676_67285)">
<path d="M19.1133 13.6729C21.9784 13.6729 24.8435 13.6729 27.7737 13.6729C31.9412 13.6729 36.1737 14.526 39.7551 16.6916C43.0761 18.5947 45.811 21.6791 47.2435 25.2885C48.8063 29.226 48.9365 33.7541 47.6993 37.8229C47.0482 36.051 45.8761 34.476 44.3784 33.3604C42.2296 31.7197 39.69 30.801 37.0854 30.0791C34.7412 29.4229 32.3319 29.0291 30.0528 28.3729C27.5784 27.651 25.0389 26.8635 22.8249 25.3541C21.7179 24.6322 20.8063 23.6479 20.2203 22.4666C19.4389 20.9572 19.2435 19.251 19.1784 17.6104V13.6729H19.1133Z" fill="#012121"/>
<path d="M59.8105 13.6729C59.8105 18.9885 59.8105 24.3041 59.8105 29.6197C62.0245 30.276 64.3036 30.7354 66.5826 30.4072C69.7733 29.8166 72.8989 27.7166 73.8757 24.501C74.6571 22.1385 74.2664 19.4479 72.8338 17.4135C71.1408 14.9854 68.2105 13.7385 65.3454 13.6729C63.4571 13.6729 61.6338 13.6729 59.8105 13.6729ZM62.0245 15.7072C63.8478 15.7072 65.7361 15.5104 67.4943 16.101C68.9268 16.4947 70.164 17.4135 71.0105 18.6604C72.0524 20.301 72.1826 22.3354 71.5315 24.1729C70.8803 25.9447 69.4478 27.3885 67.6896 28.0447C65.8664 28.7666 63.8478 28.6354 61.9594 28.176C61.9594 24.0416 61.9594 19.8416 61.9594 15.7072H62.0245Z" fill="#012121"/>
<path d="M104.545 14.2634C105.261 14.2634 106.043 14.2634 106.759 14.2634C106.759 15.5103 106.759 16.6916 106.759 17.9384C107.475 17.9384 108.191 17.9384 108.973 17.9384V19.8416H106.759C106.759 22.2041 106.759 24.5666 106.759 26.9291C106.759 27.5197 106.889 28.1759 107.41 28.4384C107.866 28.5697 108.387 28.5041 108.843 28.3072C109.103 28.8978 109.298 29.4884 109.559 30.0791C108.387 30.5384 106.889 30.7353 105.782 30.0134C104.871 29.4228 104.545 28.1759 104.545 27.1259C104.545 22.8603 104.545 18.5947 104.545 14.3291V14.2634Z" fill="#012121"/>
<path d="M137.43 14.3947C137.43 14.3947 137.56 14.3291 137.56 14.2634C138.276 14.2634 138.927 14.2634 139.644 14.2634C139.644 19.5791 139.644 24.9603 139.644 30.2759C138.927 30.2759 138.146 30.2759 137.43 30.2759C137.43 24.9603 137.43 19.7103 137.43 14.3947Z" fill="#012121"/>
<path d="M81.8852 17.676C81.2992 17.676 80.7131 17.7416 80.1271 17.8729C78.8248 18.201 77.5876 18.9885 76.8713 20.1697C76.2201 21.2197 75.9596 22.5322 75.8945 23.7791C75.8945 25.551 76.4155 27.4541 77.7829 28.6354C79.4108 30.2104 81.8852 30.7354 84.0341 30.276C85.5317 30.0135 86.8341 29.0947 87.8759 27.9791C87.4201 27.5854 86.8992 27.126 86.4434 26.7322C84.9457 28.3729 82.341 29.0291 80.3224 27.9791C79.1503 27.3885 78.4341 26.2072 78.2387 24.9604C81.5597 24.9604 84.8806 24.9604 88.2666 24.9604C88.2666 23.7135 88.2666 22.4666 87.8759 21.2197C87.4201 19.776 86.248 18.5947 84.8806 18.0697C83.969 17.7416 82.9922 17.5447 81.9503 17.6104L81.8852 17.676ZM81.8201 19.5791C82.6666 19.5791 83.448 19.7104 84.2294 20.0385C85.4015 20.6291 85.8573 21.9416 85.9876 23.1885C83.3829 23.1885 80.8434 23.1885 78.2387 23.1885C78.2387 21.8104 79.0201 20.301 80.3876 19.8416C80.8434 19.7104 81.3643 19.5791 81.8852 19.5791H81.8201Z" fill="#012121"/>
<path d="M112.099 19.3822C112.88 18.3322 114.182 17.8072 115.485 17.6759C117.373 17.5447 119.261 18.0697 120.824 19.1197C120.433 19.6447 120.108 20.1697 119.782 20.7603C118.61 19.9728 117.243 19.5134 115.81 19.5134C114.964 19.5134 113.922 19.9072 113.726 20.8259C113.531 21.4822 114.052 22.0072 114.573 22.2697C116.331 23.1228 118.48 23.1884 120.043 24.5009C121.15 25.4197 121.28 27.1259 120.694 28.3072C120.108 29.4884 118.806 30.1447 117.503 30.3416C115.159 30.6697 112.75 29.9478 110.861 28.5041C111.252 27.9791 111.643 27.5197 112.033 26.9947C113.531 27.9791 115.354 28.7666 117.178 28.5041C118.024 28.3728 118.936 27.7822 118.936 26.8634C118.936 26.1416 118.285 25.6166 117.699 25.4197C116.006 24.6978 113.987 24.6322 112.489 23.3853C111.317 22.4009 111.317 20.5634 112.164 19.3822H112.099Z" fill="#012121"/>
<path d="M90.2839 19.0541C92.3676 18.0697 94.6467 17.6103 96.9257 17.676C98.2281 17.676 99.6606 18.201 100.507 19.251C101.289 20.1041 101.679 21.351 101.679 22.5322C101.679 25.0916 101.679 27.7166 101.679 30.276H99.4653C99.4653 27.8478 99.4653 25.4197 99.4653 22.9916C99.4653 22.0072 99.1397 20.8916 98.2932 20.301C97.5118 19.6447 96.4048 19.5791 95.4281 19.6447C94.3862 19.6447 93.4094 19.9072 92.4327 20.3666C92.4327 23.6478 92.4327 26.9947 92.4327 30.276C91.7164 30.276 90.935 30.276 90.2188 30.276C90.2188 26.5353 90.2188 22.7947 90.2188 19.0541H90.2839Z" fill="#012121"/>
<path d="M129.093 17.676C127.009 17.676 124.925 18.1354 123.037 19.0541C123.037 24.0416 123.037 29.0291 123.037 34.0166C123.753 34.0166 124.47 34.0166 125.251 34.0166C125.251 32.5729 125.251 31.1948 125.251 29.751C126.488 30.2104 127.856 30.5385 129.158 30.5385C130.46 30.6041 131.828 30.4073 132.935 29.6198C134.367 28.701 135.214 26.9948 135.409 25.2885C135.605 23.451 135.409 21.4166 134.172 19.8416C133.13 18.5291 131.567 17.8073 129.939 17.676C129.614 17.676 129.353 17.676 129.028 17.676H129.093ZM128.702 19.5791C129.419 19.5791 130.135 19.6448 130.786 19.9073C132.153 20.301 133 21.6135 133.13 22.9917C133.26 24.501 133.26 26.2073 132.284 27.4541C131.632 28.2416 130.656 28.5698 129.679 28.6354C128.116 28.6354 126.619 28.2416 125.251 27.5198C125.251 25.1573 125.251 22.7948 125.251 20.4323C126.358 19.9729 127.53 19.6448 128.702 19.6448V19.5791Z" fill="#012121"/>
<path d="M152.341 17.9385C153.123 17.9385 153.904 17.9385 154.685 17.9385V18.201V18.0041C152.797 22.2041 151.039 26.4697 149.216 30.7354C148.695 31.9166 147.978 33.0979 146.806 33.6885C145.309 34.3447 143.485 34.0822 142.053 33.3604C142.313 32.7697 142.574 32.1791 142.834 31.6541C143.681 32.0479 144.657 32.3104 145.569 32.0479C146.481 31.7854 146.937 30.8666 147.327 30.0791C145.374 26.076 143.42 22.0072 141.467 17.9385C142.248 17.9385 143.095 17.9385 143.876 17.9385C145.439 21.1541 146.871 24.4354 148.369 27.7166C149.671 24.501 151.039 21.2197 152.341 18.0041V17.9385Z" fill="#012121"/>
<path d="M19.112 31.3916C21.0004 32.5072 22.9539 33.4916 25.0376 34.2135C29.0097 35.6572 33.1771 36.1166 37.1492 37.4947C38.8422 38.0854 40.6004 38.7416 41.7725 40.1197C42.8794 41.3666 43.0748 43.2041 42.8143 44.8447C42.4236 47.1416 40.7306 48.9135 38.712 49.9635C35.7166 51.5385 32.2655 51.8666 28.9445 51.7354C26.6655 51.5385 24.3864 50.8822 22.2376 50.0291C21.1306 49.5697 20.0236 49.1104 19.0469 48.4541V31.4572L19.112 31.3916Z" fill="#012121"/>
<path d="M61.438 35.7884C62.9356 34.6728 64.9543 34.4103 66.7775 34.6728C68.5356 34.8697 70.2287 35.5259 71.6612 36.7072V36.8384C71.2705 37.4291 70.8147 37.8884 70.424 38.4134C69.1217 37.3634 67.4938 36.6416 65.8659 36.5759C64.6938 36.5759 63.4566 36.7072 62.6101 37.5603C61.6984 38.4134 61.8287 40.2509 62.9356 40.8416C64.9543 42.0884 67.4938 41.9572 69.5775 43.0072C70.6194 43.4666 71.6612 44.3197 71.9868 45.4353C72.5077 47.0103 72.0519 48.8478 70.8798 49.9634C69.5124 51.2103 67.624 51.6697 65.8659 51.5384C63.3263 51.5384 60.8519 50.4884 58.8984 48.7822C59.3543 48.2572 59.8752 47.7322 60.331 47.2072C61.6333 48.3884 63.2612 49.3072 65.0194 49.5041C66.4519 49.7009 68.0798 49.6353 69.1868 48.5853C69.9031 47.9291 70.0333 46.8791 69.7729 46.0259C69.317 45.0416 68.145 44.7134 67.2333 44.3853C65.2147 43.8603 63.0659 43.6634 61.3077 42.4166C60.331 41.6947 59.6798 40.5134 59.6798 39.2666C59.5496 37.8228 60.331 36.4447 61.438 35.6572V35.7884Z" fill="#012121"/>
<path d="M74.918 35.7229C75.6342 35.7229 76.4156 35.7229 77.1319 35.7229C77.1319 36.4448 77.1319 37.101 77.1319 37.8229C76.4156 37.8229 75.6342 37.8229 74.918 37.8229V35.7229Z" fill="#012121"/>
<path d="M125.252 38.8072C124.991 38.8072 124.731 38.8072 124.405 38.8072C122.842 38.8728 121.28 39.3978 120.173 40.5135C119.196 41.4978 118.61 42.876 118.48 44.2541C118.349 45.7635 118.48 47.4041 119.261 48.7822C119.977 50.1603 121.28 51.1447 122.777 51.4728C124.796 51.8666 126.88 51.3416 128.768 50.4228C128.768 50.751 128.768 51.0135 128.768 51.3416C129.484 51.3416 130.266 51.3416 130.982 51.3416C130.982 47.601 130.982 43.8603 130.982 40.1197C129.224 39.2666 127.27 38.7416 125.252 38.7416V38.8072ZM125.577 40.7103C126.684 40.7103 127.791 41.0385 128.768 41.4978C128.768 43.7291 128.768 46.026 128.768 48.2572C127.335 49.1103 125.773 49.7666 124.145 49.701C123.038 49.701 121.931 49.1103 121.41 48.0603C120.693 46.7478 120.628 45.1072 120.954 43.5978C121.214 42.2853 122.321 41.1697 123.689 40.8416C124.34 40.7103 124.991 40.6447 125.642 40.6447L125.577 40.7103Z" fill="#012121"/>
<path d="M80.3867 39.9885C82.0146 38.9385 84.0983 38.676 85.9867 38.8729C86.9635 39.0041 87.8751 39.3979 88.7867 39.8573C88.4611 40.4479 88.1356 41.0385 87.81 41.6291C86.3123 40.6447 84.2286 40.3166 82.6007 41.3666C82.6007 44.7135 82.6007 48.126 82.6007 51.4729C81.8844 51.4729 81.103 51.4729 80.3867 51.4729C80.3867 47.6666 80.3867 43.8604 80.3867 40.0541V39.9885Z" fill="#012121"/>
<path d="M95.2324 38.8073C94.8417 38.8073 94.451 38.8073 94.0603 38.8729C92.6278 39.0698 91.2603 39.726 90.2836 40.8416C88.4603 42.8104 88.265 45.9604 89.372 48.3885C90.2836 50.226 92.172 51.4073 94.1906 51.6041C95.6882 51.7354 97.251 51.6698 98.6185 51.0791C99.7254 50.6198 100.702 49.7666 101.353 48.7166C102.33 47.0104 102.46 44.9104 101.874 43.0073C101.418 41.4979 100.246 40.1854 98.8138 39.5291C97.7068 39.0041 96.4696 38.8073 95.2324 38.8073ZM95.1673 40.7104C96.0789 40.7104 97.0557 40.776 97.8371 41.2354C98.8789 41.826 99.5952 42.9416 99.7906 44.1229C100.051 45.6979 99.7906 47.4698 98.6185 48.5854C97.5115 49.6354 95.8185 49.8979 94.3208 49.6354C93.1487 49.4385 92.0417 48.7823 91.4557 47.7323C90.7394 46.3541 90.6743 44.6479 91.1952 43.2041C91.651 41.8916 92.8882 40.9073 94.2557 40.7104C94.5813 40.7104 94.8417 40.7104 95.1673 40.7104Z" fill="#012121"/>
<path d="M104.545 40.1853C106.564 39.2009 108.843 38.7416 111.122 38.8072C112.359 38.8072 113.726 39.2009 114.638 40.1197C115.615 41.0384 116.005 42.4822 116.005 43.7947C116.005 46.3541 116.005 48.8478 116.005 51.4072C115.289 51.4072 114.508 51.4072 113.791 51.4072C113.791 48.9791 113.791 46.5509 113.791 44.1228C113.791 43.1384 113.466 42.1541 112.75 41.4978C112.098 40.9728 111.317 40.7103 110.471 40.7103C109.233 40.7103 107.931 40.9072 106.824 41.4322C106.824 44.7134 106.824 48.0603 106.824 51.3416C106.108 51.3416 105.326 51.3416 104.61 51.3416C104.61 47.6009 104.61 43.8603 104.61 40.1197L104.545 40.1853Z" fill="#012121"/>
<path d="M74.918 39.0697C75.6342 39.0697 76.4156 39.0697 77.1319 39.0697C77.1319 43.2041 77.1319 47.2728 77.1319 51.4072H74.918C74.918 47.2728 74.918 43.2041 74.918 39.0697Z" fill="#012121"/>
</g>
<defs>
<clipPath id="clip0_676_67285">
<rect width="140" height="42" fill="white" transform="translate(16.5078 11.376)"/>
</clipPath>
</defs>
</svg>
