<svg width="197" height="73" viewBox="0 0 197 73" fill="none" xmlns="http://www.w3.org/2000/svg">
<g clip-path="url(#clip0_676_67313)">
<path d="M60.239 26.2263H63.4266V32.2168H69.3161V26.2263H72.5037V41.1764H69.3161V32.2216C69.3161 33.832 67.6644 35.1669 66.147 35.1669H63.422V41.1764H60.2344V26.2263H60.239Z" fill="#012121"/>
<path d="M77.9806 26.2263H74.793V41.1764H77.9806V26.2263Z" fill="#012121"/>
<path d="M79.8418 33.7038C79.8418 29.2905 82.886 26.0553 87.2672 26.0553C89.6267 26.0553 91.3477 26.7109 92.5599 28.1313L92.6339 28.2168L90.4687 30.4163L90.3855 30.3261C89.6869 29.5897 88.8957 29.0244 87.2672 29.0244C84.7551 29.0244 83.1127 31.0102 83.1127 33.7038C83.1127 36.3878 84.7921 38.4258 87.7345 38.4258C88.6228 38.4258 89.7007 38.2643 90.4178 37.927V35.965H86.9619V33.0624H93.351V39.5992C92.4627 40.3451 90.3716 41.3712 87.7345 41.3712C82.9924 41.3712 79.8418 38.1218 79.8418 33.7038Z" fill="#012121"/>
<path d="M95.2663 26.2263H98.454V32.2168H104.343V26.2263H107.531V41.1764H104.343V32.2216C104.343 33.832 102.692 35.1669 101.174 35.1669H98.4493V41.1764H95.2617V26.2263H95.2663Z" fill="#012121"/>
<path d="M114.484 29.3285H110.395V26.4211H121.752V29.3285H117.667V41.3713H114.484V29.3285Z" fill="#012121"/>
<path d="M121.887 33.8985C121.887 29.4805 125.227 26.2311 129.419 26.2311C133.61 26.2311 136.95 29.4852 136.95 33.8985C136.95 38.3166 133.61 41.566 129.419 41.566C125.227 41.566 121.887 38.3166 121.887 33.8985ZM133.684 33.8985C133.684 31.2097 131.958 29.1764 129.423 29.1764C126.888 29.1764 125.162 31.2097 125.162 33.8985C125.162 36.5874 126.888 38.6206 129.423 38.6206C131.954 38.6206 133.684 36.5874 133.684 33.8985Z" fill="#012121"/>
<path d="M138.68 35.9318V26.4211H141.867V35.7561C141.867 37.8273 142.719 38.5969 144.615 38.5969C146.489 38.5969 147.317 37.8273 147.317 35.7561V26.4211H150.505V35.9271C150.505 39.7323 147.928 41.566 144.615 41.566C141.257 41.566 138.68 39.7323 138.68 35.9318Z" fill="#012121"/>
<path d="M152.047 33.8986C152.047 29.4805 155.364 26.2501 159.537 26.2501C162.165 26.2501 164.057 27.2192 165.366 29.3143L165.427 29.414L162.979 31.2002L162.914 31.091C162.262 30.0031 161.138 29.224 159.542 29.224C157.025 29.224 155.322 31.2145 155.322 33.9033C155.322 36.5969 157.03 38.6254 159.542 38.6254C161.341 38.6254 162.341 37.7513 163.127 36.5162L163.192 36.4116L165.681 38.1694L165.621 38.2691C164.358 40.2929 162.341 41.5708 159.542 41.5708C155.369 41.566 152.047 38.3119 152.047 33.8986Z" fill="#012121"/>
<path d="M167.091 26.4211H170.278V32.4164H176.168V26.4211H179.355V41.3713H176.168V32.4164C176.168 34.0268 174.516 35.3618 172.999 35.3618H170.274V41.3713H167.086V26.4211H167.091Z" fill="#012121"/>
<path d="M62.589 55.2524H64.4951V47.4709H67.1321V45.7512H59.9473V47.4709H62.589V55.2524Z" fill="#012121"/>
<path d="M70.4863 55.2524H76.8014V53.5327H72.3924V51.4044H76.1074V49.7275H72.3924V47.4709H76.6117V45.7512H70.4863V55.2524Z" fill="#012121"/>
<path d="M84.9723 55.3759C86.7534 55.3759 88.035 54.5636 88.8353 53.2809L87.3503 52.231C86.8321 53.0434 86.1659 53.6277 84.9676 53.6277C83.2929 53.6277 82.164 52.2738 82.164 50.4971C82.164 48.7251 83.2929 47.3949 84.9676 47.3949C86.0271 47.3949 86.7766 47.9127 87.2115 48.6396L88.6688 47.5802C87.8406 46.2548 86.6424 45.6372 84.9676 45.6372C82.3167 45.6372 80.207 47.6895 80.207 50.4971C80.2117 53.3094 82.3213 55.3759 84.9723 55.3759Z" fill="#012121"/>
<path d="M92.207 55.2524H94.1085V51.5992H98.0687V55.2524H99.9748V45.7512H98.0687V49.8557H94.1085V45.7512H92.207V55.2524Z" fill="#012121"/>
<path d="M111.277 55.3379H111.466V45.7512H109.685V49.7322C109.685 50.3877 109.81 51.4661 109.81 51.4661C109.81 51.4661 109.172 50.6015 108.723 50.1692L104.055 45.6704H103.865V55.2524H105.646V51.2714C105.646 50.5873 105.512 49.5374 105.512 49.5374C105.512 49.5374 106.151 50.3878 106.613 50.8391L111.277 55.3379Z" fill="#012121"/>
<path d="M119.185 55.3759C121.85 55.3759 123.973 53.3094 123.973 50.5018C123.973 47.6942 121.85 45.6277 119.185 45.6277C116.52 45.6277 114.396 47.6942 114.396 50.5018C114.396 53.3094 116.52 55.3759 119.185 55.3759ZM119.185 53.6324C117.496 53.6324 116.353 52.2785 116.353 50.5018C116.353 48.7298 117.496 47.3712 119.185 47.3712C120.873 47.3712 122.016 48.7251 122.016 50.5018C122.016 52.2785 120.873 53.6324 119.185 53.6324Z" fill="#012121"/>
<path d="M126.842 55.2524H132.939V53.5327H128.748V45.7512H126.842V55.2524Z" fill="#012121"/>
<path d="M139.757 55.3759C142.422 55.3759 144.545 53.3094 144.545 50.5018C144.545 47.6942 142.422 45.6277 139.757 45.6277C137.092 45.6277 134.969 47.6942 134.969 50.5018C134.969 53.3094 137.092 55.3759 139.757 55.3759ZM139.757 53.6324C138.068 53.6324 136.926 52.2785 136.926 50.5018C136.926 48.7298 138.068 47.3712 139.757 47.3712C141.446 47.3712 142.588 48.7251 142.588 50.5018C142.588 52.2785 141.446 53.6324 139.757 53.6324Z" fill="#012121"/>
<path d="M151.768 55.3759C153.456 55.3759 154.789 54.7203 155.321 54.2738V50.1645H151.347V51.8842H153.577V53.2809C153.1 53.5184 152.365 53.6325 151.768 53.6325C149.825 53.6325 148.705 52.2785 148.705 50.5018C148.705 48.7298 149.792 47.3997 151.467 47.3997C152.54 47.3997 153.072 47.775 153.535 48.2643L154.826 46.9484C154.062 46.0553 152.975 45.6372 151.467 45.6372C148.677 45.6372 146.748 47.6895 146.748 50.4971C146.743 53.3094 148.747 55.3759 151.768 55.3759Z" fill="#012121"/>
<path d="M160.572 45.7512H158.666V55.2524H160.572V45.7512Z" fill="#012121"/>
<path d="M164.027 55.2524H170.338V53.5327H165.933V51.4044H169.644V49.7275H165.933V47.4709H170.148V45.7512H164.027V55.2524Z" fill="#012121"/>
<path d="M176.178 55.3759C177.987 55.3759 179.333 54.4116 179.333 52.6538C179.333 51.0196 178.422 50.2928 176.803 49.5802L176.326 49.3712C175.512 49.0101 175.156 48.7726 175.156 48.1835C175.156 47.7085 175.507 47.3474 176.067 47.3474C176.613 47.3474 176.965 47.585 177.293 48.1835L178.778 47.2049C178.154 46.0743 177.279 45.642 176.072 45.642C174.369 45.642 173.282 46.7584 173.282 48.2263C173.282 49.8177 174.193 50.5731 175.567 51.1717L176.044 51.3807C176.914 51.7702 177.432 52.0078 177.432 52.6776C177.432 53.2382 176.928 53.642 176.141 53.642C175.202 53.642 174.67 53.1384 174.263 52.4543L172.713 53.3759C173.263 54.5113 174.411 55.3759 176.178 55.3759Z" fill="#012121"/>
<path d="M23.181 51.0055C23.1948 51.015 23.2041 51.0292 23.218 51.0387C24.6614 52.3119 26.3084 53.3808 28.122 54.2026C29.9818 55.0482 31.9943 55.4425 34.03 55.3665C35.3207 55.319 36.6254 55.1433 37.93 54.8345C38.7767 54.6302 39.6002 54.3737 40.3913 54.0696C34.9275 52.9057 29.7551 50.9817 25.0547 48.3547C23.4169 47.4378 21.7884 49.7276 23.181 51.0055Z" fill="#012121"/>
<path d="M43.5009 20.7204C45.6846 21.5755 47.9654 22.2786 50.3249 22.8202C49.0989 20.9295 47.5953 19.2715 45.8835 17.8986C45.5967 17.6658 45.2636 17.49 44.9027 17.4235H44.8981C44.1301 17.281 43.4963 17.4805 43.0336 17.8748C42.0759 18.6967 42.3396 20.2644 43.5009 20.7204Z" fill="#012121"/>
<path d="M18.3783 37.0767C18.3783 37.0957 18.3737 37.1147 18.3737 37.1337C18.2766 37.9888 18.6189 38.8392 19.2666 39.3902C19.6367 39.7038 20.0115 40.0078 20.3955 40.3118C27.5526 45.9318 36.3706 49.5565 45.9056 50.9104C47.7377 49.433 49.3014 47.6515 50.5367 45.6563C39.7571 44.8154 29.9444 41.0814 22.3201 35.3047C20.7795 34.1456 18.605 35.1289 18.3783 37.0767Z" fill="#012121"/>
<path d="M22.3301 26.6348C22.3209 26.6491 22.307 26.6681 22.2977 26.6824C21.4418 27.9223 21.6593 29.6277 22.8205 30.5731C23.7597 31.3379 24.8562 32.2073 25.6519 32.7536C33.3087 38.022 42.58 41.1004 52.4251 41.7465C52.9803 40.2263 53.3643 38.6301 53.5632 36.9911C43.0612 35.851 33.5631 31.9318 26.2626 26.0458C25.0366 25.0576 23.2369 25.3284 22.3301 26.6348Z" fill="#012121"/>
<path d="M33.5077 26.1598C33.6512 26.2454 33.7668 26.3166 33.8408 26.3594C39.7951 29.7893 46.5404 31.9936 53.6698 32.8962C53.5911 31.8273 53.4431 30.7489 53.1979 29.6705C53.0313 28.9342 52.8185 28.2264 52.5825 27.5328C46.5959 26.5161 41.0211 24.4924 36.1679 21.5803C35.0715 20.9199 33.6743 21.148 32.8554 22.1456C31.8145 23.3998 32.1291 25.3142 33.5077 26.1598Z" fill="#012121"/>
</g>
<defs>
<clipPath id="clip0_676_67313">
<rect width="161" height="38" fill="white" transform="translate(18.3555 17.376)"/>
</clipPath>
</defs>
</svg>
