<svg width="182" height="73" viewBox="0 0 182 73" fill="none" xmlns="http://www.w3.org/2000/svg">
<path fill-rule="evenodd" clip-rule="evenodd" d="M21.4494 52.4156C20.8392 52.4156 20.2968 52.1456 19.9578 51.7406C19.1442 50.9307 19.1442 49.6482 19.9578 48.9057L20.0256 48.8382L39.4838 31.0188C40.3652 30.2088 41.6534 30.2763 42.467 31.0863C43.2806 31.8963 43.2128 33.1787 42.467 33.9212L42.3992 33.9887L22.9409 51.8756C22.5341 52.2806 21.9918 52.4831 21.4494 52.4156ZM39.6194 12.1194C51.4164 12.2544 60.9761 21.7041 60.7049 33.1787C60.6371 41.8859 49.3147 53.2931 42.5348 59.3004C40.5008 61.1229 37.4499 61.0554 35.4159 59.2329C34.0599 57.9505 32.5006 56.4655 30.8734 54.778L30.5344 54.4406L29.1784 53.0231C29.1784 52.9556 29.1784 52.9556 29.1784 52.9556C28.5682 52.2806 28.636 51.2007 29.314 50.5932L38.9415 41.8185C39.0092 41.8185 39.0093 41.751 39.077 41.751C39.9584 41.0085 41.3144 41.1435 42.0602 42.0209C42.806 42.8984 42.6704 44.2484 41.789 44.9908L35.2125 50.9982C35.1447 51.0657 35.1447 51.0657 35.1447 51.0657C34.6023 51.6056 34.5345 52.5506 35.1447 53.1581C36.1617 54.2381 37.2465 55.2505 38.3991 56.3305C38.8059 56.668 39.416 56.668 39.8228 56.3305C50.2638 47.0158 56.5013 38.3761 56.5691 33.2462C56.7047 23.9315 49.0435 16.3042 39.5516 16.2367C30.0598 16.1692 22.263 23.594 22.0596 32.7737C22.1274 33.1112 22.1952 33.4487 22.4663 33.7187C23.0087 34.2587 23.8901 34.3262 24.4325 33.7862L29.5174 29.1288C29.5852 29.1288 29.5852 29.0613 29.653 29.0613C30.5344 28.3189 31.8904 28.4539 32.6362 29.3313C33.382 30.2088 33.2464 31.5588 32.365 32.3012L22.7375 41.1435C22.6697 41.211 22.6019 41.211 22.5341 41.2785C21.8562 41.751 20.907 41.5485 20.4324 40.8735C19.9578 40.1985 19.551 39.456 19.212 38.7135C18.3984 36.8911 17.9916 34.8662 17.9238 32.8412C17.9916 21.2991 27.7547 11.9844 39.6194 12.1194ZM76.3664 44.8559H73.5188V30.3438H76.3664V33.5837C77.1122 31.0188 78.5359 30.0063 80.4343 30.0063C81.3157 30.0063 82.1971 30.2088 82.9429 30.5463L82.5361 33.1787C81.8581 32.8412 81.1123 32.7062 80.3665 32.7062C77.5868 32.7062 76.3664 35.6761 76.3664 39.5235V44.8559ZM95.8246 36.4861C95.6212 34.1912 93.6551 32.5037 91.4177 32.5712C89.1125 32.4362 87.0786 34.1237 86.8074 36.4861H95.8246ZM98.6044 38.7135H86.7396C87.0108 41.076 89.1125 42.7634 91.4177 42.6284C93.1127 42.6959 94.7398 41.8185 95.6212 40.401C96.367 40.7385 97.2484 41.0085 98.062 41.346C96.8416 43.9109 94.1297 45.1933 91.3499 45.1933C87.2142 45.1933 83.892 42.1559 83.892 37.5661C83.892 32.9762 87.2142 30.0738 91.3499 30.0738C95.4856 30.0738 98.6044 32.9762 98.6044 37.5661C98.6044 37.9036 98.6044 38.3761 98.6044 38.7135ZM113.859 37.0261V44.8559H111.012V36.6211C111.012 34.2587 109.791 32.7737 107.893 32.7737C105.859 32.7737 103.825 33.9887 103.825 37.0261V44.8559H100.977V30.3438H103.825V32.5037C104.571 30.8838 106.672 30.1413 107.825 30.0738C108.367 30.0738 108.91 30.0738 109.452 30.1413C111.147 30.3438 112.639 31.4238 113.249 32.9762C114.198 31.0863 116.164 29.8713 118.334 30.0063C121.995 30.0063 123.961 32.3687 123.961 36.4186V44.8559H121.114V36.6886C121.114 34.3262 119.893 32.8412 117.791 32.8412C115.351 32.8412 113.859 34.5962 113.859 37.0261ZM130.063 30.3438V44.8559H127.283V30.3438H130.063ZM128.639 23.6615C129.656 23.594 130.538 24.404 130.605 25.4165C130.673 26.4289 129.86 27.3064 128.843 27.3739C128.775 27.3739 128.707 27.3739 128.639 27.3739C127.622 27.4414 126.741 26.6314 126.673 25.619C126.605 24.6065 127.419 23.729 128.436 23.6615C128.504 23.6615 128.571 23.6615 128.639 23.6615ZM136.368 44.8559H133.521V30.3438H136.368V32.5037C137.25 30.7488 139.351 30.0063 140.911 30.0063C144.504 30.0063 146.538 32.3687 146.538 36.4186V44.8559H143.691V36.6886C143.691 34.2587 142.47 32.8412 140.504 32.8412C138.538 32.8412 136.368 33.9887 136.368 37.0936V44.8559ZM160.776 36.4861C160.572 34.1912 158.606 32.5037 156.369 32.5712C154.064 32.4362 152.03 34.1237 151.759 36.4861H160.776ZM163.556 38.7135H151.759C152.03 41.076 154.132 42.7634 156.437 42.6284C158.132 42.6959 159.759 41.8185 160.64 40.401C161.386 40.7385 162.267 41.0085 163.081 41.346C161.861 43.9109 159.149 45.1933 156.369 45.1933C152.233 45.1933 148.911 42.1559 148.911 37.5661C148.911 32.9762 152.233 30.0738 156.369 30.0738C160.505 30.0738 163.623 32.9762 163.623 37.5661C163.623 37.9036 163.623 38.3761 163.556 38.7135Z" fill="#012121"/>
</svg>
