<svg width="152" height="73" viewBox="0 0 152 73" fill="none" xmlns="http://www.w3.org/2000/svg">
<path d="M31.7882 47.2609L27.6171 41.1997H22.9246V47.2609H17.9062V25.4277H27.3564C33.1568 25.4277 36.8066 28.4257 36.8066 33.3137C36.8066 36.5724 35.1772 38.9838 32.3096 40.2221L37.1976 47.1957H31.7882V47.2609ZM27.0305 29.5337H22.9246V37.159H27.0305C30.0937 37.159 31.6579 35.7251 31.6579 33.3789C31.6579 30.9675 30.1589 29.5337 27.0305 29.5337Z" fill="#012121"/>
<path d="M50.1021 30.3809L53.5563 38.7231H46.6479L50.1021 30.3809ZM47.6255 25.4277L37.9147 47.2609H43.0634L45.0186 42.5684H55.1205L57.0757 47.2609H62.3548L52.5787 25.4929H47.6255V25.4277Z" fill="#012121"/>
<path d="M82.3639 33.3137C82.3639 38.2017 78.7142 41.1997 72.9137 41.1997H68.5471V47.1957H63.5287V25.4277H72.9789C78.7142 25.4277 82.3639 28.4257 82.3639 33.3137ZM77.2152 33.3137C77.2152 30.9023 75.651 29.5337 72.5879 29.5337H68.4819V37.0938H72.5879C75.7162 37.0938 77.2152 35.7251 77.2152 33.3137Z" fill="#012121"/>
<path d="M89.2054 25.4277H84.187V47.1957H89.2054V25.4277Z" fill="#012121"/>
<path d="M101.393 25.4277H91.4864V47.1957H101.393C103.478 47.1957 105.434 46.8046 107.063 46.0877L112.928 32.9227C111.495 28.2954 107.193 25.4277 101.393 25.4277ZM101.132 43.0897H96.5048V29.5988H101.132C105.434 29.5988 108.301 32.2058 108.301 36.3769C108.301 40.4828 105.434 43.0897 101.132 43.0897Z" fill="#012121"/>
<path d="M116.58 36.1814L118.861 41.656H114.364L116.58 36.1814ZM114.95 32.9879L112.734 37.8759L108.954 46.544L108.629 47.2609H112.018L113.256 44.1978H119.904L121.142 47.2609H124.596L118.209 32.9879H114.95Z" fill="#012121"/>
<path d="M129.417 32.9879H126.094V47.2609H129.417V32.9879Z" fill="#012121"/>
<path d="M130.85 45.7604C130.85 45.4997 130.915 45.239 131.045 44.9783C131.176 44.7176 131.371 44.5221 131.567 44.3917C131.827 44.2614 132.023 44.1962 132.349 44.1962C132.609 44.1962 132.87 44.2614 133.131 44.3917C133.391 44.5221 133.522 44.7176 133.652 44.9783C133.782 45.239 133.848 45.4997 133.848 45.7604C133.848 46.0211 133.782 46.2817 133.652 46.5424C133.522 46.8031 133.326 46.9987 133.131 47.129C132.87 47.2594 132.675 47.3245 132.349 47.3245C132.088 47.3245 131.827 47.2594 131.567 47.129C131.306 46.9987 131.176 46.8031 131.045 46.5424C130.915 46.2817 130.85 46.0211 130.85 45.7604ZM131.11 45.7604C131.11 46.0211 131.176 46.2166 131.306 46.4121C131.436 46.6076 131.567 46.8031 131.762 46.8683C131.958 46.9987 132.153 47.0638 132.414 47.0638C132.609 47.0638 132.87 46.9987 133.066 46.8683C133.261 46.738 133.391 46.6076 133.522 46.4121C133.652 46.2166 133.717 45.9559 133.717 45.7604C133.717 45.4997 133.652 45.3041 133.522 45.1086C133.391 44.9131 133.261 44.7176 133.066 44.6524C132.87 44.5221 132.675 44.4569 132.414 44.4569C132.218 44.4569 131.958 44.5221 131.762 44.6524C131.567 44.7828 131.436 44.9131 131.306 45.1086C131.176 45.3041 131.11 45.4997 131.11 45.7604ZM132.088 45.8907V46.6076H131.762V44.8479H132.349C132.544 44.8479 132.74 44.9131 132.87 44.9783C133 45.0434 133.066 45.1738 133.066 45.3693C133.066 45.5648 133 45.6952 132.805 45.7604C133 45.8255 133.066 45.9559 133.066 46.2166V46.3469C133.066 46.4773 133.066 46.5424 133.131 46.6076V46.6728H132.805C132.805 46.6076 132.805 46.5424 132.805 46.4121C132.805 46.2817 132.805 46.2166 132.805 46.1514C132.805 46.0211 132.675 45.9559 132.544 45.9559H132.088V45.8907ZM132.088 45.63H132.414C132.544 45.63 132.609 45.63 132.675 45.5648C132.74 45.4997 132.74 45.4345 132.74 45.3693C132.74 45.239 132.74 45.1738 132.675 45.1738C132.609 45.1086 132.544 45.1086 132.414 45.1086H132.153V45.63H132.088Z" fill="#012121"/>
</svg>
