<svg width="169" height="73" viewBox="0 0 169 73" fill="none" xmlns="http://www.w3.org/2000/svg">
<g clip-path="url(#clip0_676_67272)">
<path d="M95.368 49.0636L93.3345 43.1103H83.5236L81.5792 49.0636H75.0684L84.4155 23.376H92.6388L101.915 49.0636H95.368ZM88.429 28.4094L85.0398 38.3373H91.7826L88.429 28.4094Z" fill="#012121"/>
<path d="M120.752 49.0636L115.918 39.8473H112.261V49.0636H106V23.376H115.936C122.322 23.376 126.496 26.1357 126.496 31.4467C126.496 36.7578 124.748 37.4 121.858 38.6497L127.316 49.0636H120.77H120.752ZM115.543 35.0395C118.344 35.0395 120.146 33.8593 120.146 31.4467C120.146 29.0342 118.433 28.149 115.543 28.149H112.279V35.0395H115.543Z" fill="#012121"/>
<path d="M25.5855 49.0636L31.1152 38.5282V38.5455L32.6136 35.6991L31.4363 33.4427L31.4185 33.4601L25.5855 23.376H18.3789L26.0492 35.9594L18.3789 49.0636H25.5855Z" fill="#012121"/>
<path d="M36.5727 23.376H30.5256L33.0408 28.149H36.4122C41.5852 28.149 44.2787 31.3252 44.2787 36.0288C44.2787 40.7325 41.6744 44.0996 36.5727 44.0996H32.577C32.577 44.117 29.9727 49.0636 29.9727 49.0636H36.7154C45.4025 49.0636 50.6112 43.1103 50.6112 36.0288C50.6112 28.9474 45.4025 23.376 36.5727 23.376Z" fill="#012121"/>
<path d="M136.376 49.0636L141.906 38.5282V38.5455L143.405 35.6991L142.209 33.4427V33.4601L136.376 23.376H129.17L136.84 35.9594L129.17 49.0636H136.376Z" fill="#012121"/>
<path d="M145.867 39.639L142.656 45.7485L144.387 49.0636H151.379L145.867 39.639Z" fill="#012121"/>
<path d="M59.6206 39.8646C59.8704 43.0235 61.226 44.707 63.6877 44.707C66.1493 44.707 67.0234 43.5442 67.3445 41.9127H73.8732C73.017 46.5468 69.4672 49.3933 63.9196 49.3933C58.372 49.3933 52.9492 45.436 52.9492 38.7191C52.9492 32.0021 57.2303 27.6456 63.9196 27.6456C70.6088 27.6456 74.0337 31.0475 74.0337 38.0074L73.9088 39.8819H59.6028L59.6206 39.8646ZM67.4337 36.2197C67.1483 33.7378 66.1137 32.2277 63.6877 32.2277C61.2617 32.2277 60.1558 33.703 59.7455 36.2197H67.4337Z" fill="#012121"/>
<path d="M145.867 32.8005L142.656 26.6911L144.387 23.376H151.379L145.867 32.8005Z" fill="#012121"/>
</g>
<defs>
<clipPath id="clip0_676_67272">
<rect width="133" height="26" fill="white" transform="translate(18.3789 23.376)"/>
</clipPath>
</defs>
</svg>
