<svg width="133" height="65" viewBox="0 0 133 65" fill="none" xmlns="http://www.w3.org/2000/svg">
<g clip-path="url(#clip0_676_67394)">
<path d="M16.3164 20.4728H24.3911C26.2382 20.4728 28.4153 22.1084 29.3862 23.008L43.553 37.9013V20.4728H48.3655V44.2512H39.9407C38.4398 44.2033 36.9662 43.9106 35.2489 42.3109L21.1055 27.3904V44.2512H16.3164V20.4728ZM116.648 44.4133C110.884 45.1591 105.053 45.233 99.2096 44.7671C95.7894 44.4808 92.4386 43.8136 89.3682 42.2934C85.4914 40.3886 84.2563 36.1071 84.3081 32.2261C84.3509 28.6439 85.4746 24.8193 88.8458 22.7363C91.0557 21.361 93.4159 20.9101 95.9238 20.4788C102.77 19.3347 109.629 19.5929 116.308 20.287V23.679C108.431 22.2276 100.112 22.5888 97.2846 26.0202C95.5181 28.1549 95.2666 30.2785 95.2666 32.0663C95.2666 35.2887 96.4291 40.1771 103.335 41.1271C107.84 41.754 112.3 41.2784 116.647 40.5275V44.4133H116.648ZM67.3241 40.7149H82.5871V44.2677C75.0813 44.5417 67.8699 44.6609 60.2875 44.3622C53.8536 44.1104 52.7453 41.0428 52.6209 38.096V20.4722H82.2279V23.8579H63.0741V29.9116H80.5313V33.2161H63.0741C63.0741 35.0043 63.1363 37.0318 63.1543 37.3968C63.2567 39.7021 64.3844 40.5503 67.3237 40.7149" fill="#012121"/>
</g>
<defs>
<clipPath id="clip0_676_67394">
<rect width="101" height="26" fill="white" transform="translate(15.9824 19.376)"/>
</clipPath>
</defs>
</svg>
