<svg width="140" height="27" viewBox="0 0 140 27" fill="none" xmlns="http://www.w3.org/2000/svg">
<path d="M18.39 26.1803L13.5458 19.1412H8.09617V26.1803H2.26807V0.82428H13.2431C19.9795 0.82428 24.2181 4.30601 24.2181 9.98274C24.2181 13.7672 22.3258 16.5677 18.9955 18.0058L24.6722 26.1046H18.39V26.1803ZM12.8646 5.59273H8.09617V14.4484H12.8646C16.422 14.4484 18.2386 12.7833 18.2386 10.0584C18.2386 7.25791 16.4977 5.59273 12.8646 5.59273Z" fill="#DA3F4E"/>
<path d="M39.659 6.5767L43.6706 16.265H35.6474L39.659 6.5767ZM36.7828 0.82428L25.505 26.1803H31.4845L33.7552 20.7307H45.4871L47.7578 26.1803H53.8887L42.5352 0.89997H36.7828V0.82428Z" fill="#DA3F4E"/>
<path d="M77.1264 9.98274C77.1264 15.6595 72.8878 19.1412 66.1514 19.1412H61.0802V26.1046H55.2521V0.82428H66.2271C72.8878 0.82428 77.1264 4.30601 77.1264 9.98274ZM71.1469 9.98274C71.1469 7.18222 69.3304 5.59273 65.773 5.59273H61.0045V14.3727H65.773C69.4061 14.3727 71.1469 12.7833 71.1469 9.98274Z" fill="#DA3F4E"/>
<path d="M85.0718 0.82428H79.2437V26.1046H85.0718V0.82428Z" fill="#DA3F4E"/>
<path d="M99.2258 0.82428H87.7209V26.1046H99.2258C101.648 26.1046 103.919 25.6505 105.811 24.8179L112.623 9.5286C110.958 4.15463 105.962 0.82428 99.2258 0.82428ZM98.923 21.3362H93.549V5.66842H98.923C103.919 5.66842 107.249 8.69601 107.249 13.5402C107.249 18.3086 103.919 21.3362 98.923 21.3362Z" fill="#DA3F4E"/>
<path d="M116.863 13.3132L119.512 19.6711H114.29L116.863 13.3132ZM114.971 9.60436L112.397 15.2811L108.007 25.3478L107.629 26.1804H111.565L113.003 22.623H120.723L122.161 26.1804H126.173L118.755 9.60436H114.971Z" fill="#737B93"/>
<path d="M131.772 9.60436H127.912V26.1804H131.772V9.60436Z" fill="#737B93"/>
<path d="M133.436 24.4377C133.436 24.135 133.511 23.8322 133.663 23.5294C133.814 23.2267 134.041 22.9996 134.268 22.8482C134.571 22.6969 134.798 22.6212 135.177 22.6212C135.479 22.6212 135.782 22.6969 136.085 22.8482C136.388 22.9996 136.539 23.2267 136.69 23.5294C136.842 23.8322 136.917 24.135 136.917 24.4377C136.917 24.7405 136.842 25.0432 136.69 25.346C136.539 25.6488 136.312 25.8758 136.085 26.0272C135.782 26.1786 135.555 26.2543 135.177 26.2543C134.874 26.2543 134.571 26.1786 134.268 26.0272C133.966 25.8758 133.814 25.6488 133.663 25.346C133.511 25.0432 133.436 24.7405 133.436 24.4377ZM133.739 24.4377C133.739 24.7405 133.814 24.9676 133.966 25.1946C134.117 25.4217 134.268 25.6488 134.495 25.7245C134.722 25.8758 134.95 25.9515 135.252 25.9515C135.479 25.9515 135.782 25.8758 136.009 25.7245C136.236 25.5731 136.388 25.4217 136.539 25.1946C136.69 24.9676 136.766 24.6648 136.766 24.4377C136.766 24.135 136.69 23.9079 136.539 23.6808C136.388 23.4538 136.236 23.2267 136.009 23.151C135.782 22.9996 135.555 22.9239 135.252 22.9239C135.025 22.9239 134.722 22.9996 134.495 23.151C134.268 23.3024 134.117 23.4538 133.966 23.6808C133.814 23.9079 133.739 24.135 133.739 24.4377ZM134.874 24.5891V25.4217H134.495V23.3781H135.177C135.404 23.3781 135.631 23.4538 135.782 23.5294C135.934 23.6051 136.009 23.7565 136.009 23.9836C136.009 24.2107 135.934 24.362 135.706 24.4377C135.934 24.5134 136.009 24.6648 136.009 24.9676V25.1189C136.009 25.2703 136.009 25.346 136.085 25.4217V25.4974H135.706C135.706 25.4217 135.706 25.346 135.706 25.1946C135.706 25.0432 135.706 24.9676 135.706 24.8919C135.706 24.7405 135.555 24.6648 135.404 24.6648H134.874V24.5891ZM134.874 24.2863H135.252C135.404 24.2863 135.479 24.2863 135.555 24.2107C135.631 24.135 135.631 24.0593 135.631 23.9836C135.631 23.8322 135.631 23.7565 135.555 23.7565C135.479 23.6808 135.404 23.6808 135.252 23.6808H134.95V24.2863H134.874Z" fill="#737B93"/>
</svg>
