<svg width="327" height="73" viewBox="0 0 327 73" fill="none" xmlns="http://www.w3.org/2000/svg">
<g clip-path="url(#clip0_1412_34274)">
<path d="M313.861 35.5004C313.861 32.8475 316.068 30.976 319.143 30.976C321.959 30.976 323.56 32.2801 323.56 34.5425C323.56 36.586 321.829 37.7184 319.143 38.8923L313.861 41.1547V35.5004ZM318.623 51.7264C321.654 51.7264 324.295 50.5523 325.638 48.1599C326.071 47.4206 325.985 46.551 325.335 46.1162C324.684 45.6816 323.819 45.8116 323.387 46.465C322.218 48.1622 320.746 48.9876 318.623 48.9876C315.505 48.9876 313.861 47.3788 313.861 44.4632V44.0726L320.051 41.42C324.813 39.3762 326.589 38.0278 326.589 34.287C326.589 30.5459 323.687 28.2396 319.098 28.2396C314.508 28.2396 310.913 31.2853 310.913 35.5029V44.4632C310.913 48.8575 313.902 51.7264 318.621 51.7264H318.623ZM306.154 28.4533C301.823 28.4533 298.792 31.6293 298.792 36.414V50.0292C298.792 50.8543 299.398 51.5077 300.263 51.5077C301.128 51.5077 301.735 50.8543 301.735 50.0292V36.414C301.735 33.4986 303.252 31.3248 306.195 31.3248C306.672 31.3248 307.407 31.499 307.796 31.499C308.577 31.499 309.183 30.976 309.183 30.1063C309.183 29.453 308.795 28.8882 307.97 28.6719C307.364 28.4976 306.758 28.4533 306.152 28.4533H306.154ZM281.354 45.4188C281.354 43.375 283.084 42.2428 285.769 41.0687L291.053 38.8063V44.4606C291.053 47.1135 288.845 48.9851 285.769 48.9851C282.955 48.9851 281.354 47.6809 281.354 45.4188ZM286.291 28.2371C283.259 28.2371 280.618 29.4112 279.276 31.8036C278.842 32.5429 278.929 33.4126 279.578 33.8471C280.228 34.2819 281.095 34.1519 281.527 33.4986C282.696 31.8011 284.168 30.976 286.291 30.976C289.406 30.976 291.053 32.5847 291.053 35.5004V35.8909L284.862 38.5435C280.098 40.5873 278.325 41.9358 278.325 45.6766C278.325 49.4174 281.227 51.7239 285.816 51.7239C290.406 51.7239 294 48.6782 294 44.4606V35.5004C294 31.106 291.01 28.2371 286.291 28.2371ZM259.572 41.5035V31.499C259.572 27.3234 262.647 24.1032 266.587 24.1032C269.575 24.1032 271.785 25.4074 273.04 27.8443C273.388 28.5393 274.21 28.8439 274.946 28.4976C275.636 28.1488 275.899 27.3234 275.552 26.6258C273.906 23.1896 270.704 21.2761 266.587 21.2761C260.917 21.2761 256.5 25.7122 256.5 31.499V41.5035C256.5 47.2878 260.917 51.7264 266.587 51.7264C270.702 51.7264 273.906 49.8129 275.552 46.3767C275.899 45.6816 275.636 44.8537 274.946 44.5049C274.21 44.1561 273.386 44.4607 273.04 45.1583C271.785 47.5949 269.575 48.8993 266.587 48.8993C262.647 48.8993 259.572 45.6816 259.572 41.5035ZM235.744 50.2525C235.744 50.8568 236.351 51.5077 237.216 51.5077C238.081 51.5077 238.687 50.8543 238.687 50.0292V36.463C238.687 33.5476 241.024 31.1993 243.926 31.1993C246.831 31.1993 249.167 33.5476 249.167 36.463V50.0292C249.167 50.8543 249.774 51.5077 250.639 51.5077C251.504 51.5077 252.11 50.8543 252.11 50.0292V36.463C252.11 32.0689 248.647 28.4581 244.317 28.4581C242.107 28.4581 240.116 29.4163 238.687 30.9365V22.9708C238.687 22.1456 238.081 21.4922 237.216 21.4922C236.351 21.4922 235.744 22.1456 235.744 23.1944V50.2525ZM226.132 28.6719V22.9733C226.132 22.1481 225.526 21.4947 224.66 21.4947C223.795 21.4947 223.188 22.1481 223.188 22.9733V28.6719H219.594C218.814 28.6719 218.252 29.237 218.252 30.0646C218.252 30.8482 218.814 31.413 219.594 31.413H223.188V43.5495C223.188 45.7674 223.924 47.8136 225.267 49.2921C226.739 50.9011 228.603 51.5102 230.896 51.5102C231.85 51.5102 232.456 50.7708 232.411 49.9872C232.368 49.2038 231.718 48.683 230.939 48.683C227.692 48.683 226.132 46.5092 226.132 43.5495V31.413H231.069C231.85 31.413 232.411 30.8482 232.411 30.0203C232.411 29.2367 231.85 28.6719 231.069 28.6719H226.132ZM219.205 50.3778C219.249 49.5944 218.643 48.9851 217.863 48.8993C216.088 48.7248 215.093 47.6366 215.093 45.5931V22.9733C215.093 22.1481 214.487 21.4947 213.621 21.4947C212.755 21.4947 212.149 22.1481 212.149 22.9733V45.5931C212.149 47.2461 212.626 48.6805 213.491 49.7244C214.486 50.9871 215.917 51.7264 217.692 51.7264C218.558 51.7264 219.164 51.1171 219.208 50.3778H219.205ZM194.444 45.4188C194.444 43.375 196.175 42.2428 198.86 41.0687L204.144 38.8063V44.4606C204.144 47.1135 201.936 48.9851 198.86 48.9851C196.046 48.9851 194.444 47.6809 194.444 45.4188ZM199.381 28.2371C196.349 28.2371 193.708 29.4112 192.366 31.8036C191.933 32.5429 192.019 33.4126 192.669 33.8471C193.32 34.2819 194.185 34.1519 194.618 33.4986C195.787 31.8011 197.259 30.976 199.381 30.976C202.498 30.976 204.144 32.5847 204.144 35.5004V35.8909L197.953 38.5435C193.19 40.5873 191.415 41.9358 191.415 45.6766C191.415 49.4174 194.317 51.7239 198.907 51.7239C203.496 51.7239 207.09 48.6782 207.09 44.4606V35.5004C207.09 31.106 204.102 28.2371 199.384 28.2371H199.381ZM175.652 35.5004C175.652 32.8475 177.86 30.976 180.936 30.976C183.75 30.976 185.351 32.2801 185.351 34.5425C185.351 36.586 183.62 37.7184 180.936 38.8923L175.652 41.1547V35.5004ZM180.415 51.7264C183.447 51.7264 186.087 50.5523 187.43 48.1599C187.862 47.4206 187.777 46.551 187.126 46.1162C186.476 45.6816 185.61 45.8116 185.178 46.465C184.009 48.1622 182.537 48.9876 180.415 48.9876C177.297 48.9876 175.652 47.3788 175.652 44.4632V44.0726L181.843 41.42C186.606 39.3762 188.381 38.0278 188.381 34.287C188.381 30.5459 185.479 28.2396 180.889 28.2396C176.3 28.2396 172.706 31.2853 172.706 35.5029V44.4632C172.706 48.8575 175.693 51.7264 180.412 51.7264H180.415ZM167.517 49.9432V23.0618C167.517 22.1481 166.911 21.4947 165.957 21.4947C165.004 21.4947 164.397 22.1481 164.397 23.0618V34.675H150.73V23.0618C150.73 22.1481 150.123 21.4947 149.17 21.4947C148.216 21.4947 147.61 22.1481 147.61 23.0618V49.9432C147.61 50.8126 148.26 51.5102 149.17 51.5102C150.079 51.5102 150.73 50.8568 150.73 49.9432V37.4161H164.397V49.9432C164.397 50.8568 165.004 51.5102 165.957 51.5102C166.911 51.5102 167.517 50.8568 167.517 49.9432ZM134.605 51.2916C135.384 51.2916 135.947 50.7266 135.947 49.9432C135.947 49.1178 135.384 48.5505 134.605 48.5505H121.895V37.4136H133.565C134.345 37.4136 134.908 36.8488 134.908 36.0652C134.908 35.2398 134.345 34.6725 133.565 34.6725H121.895V24.4495H134.605C135.384 24.4495 135.947 23.8847 135.947 23.0568C135.947 22.2733 135.384 21.7084 134.605 21.7084H120.379C119.47 21.7084 118.863 22.3618 118.863 23.2313V49.7662C118.863 50.6358 119.47 51.2891 120.379 51.2891H134.605V51.2916ZM113.452 41.5035V36.8045C113.452 35.9352 112.846 35.2816 111.936 35.2816H103.753C102.973 35.2816 102.411 35.8467 102.411 36.6303C102.411 37.4554 102.973 38.023 103.753 38.023H110.421V41.5035C110.421 45.5931 107.303 48.8993 103.535 48.8993C99.7675 48.8993 96.6941 45.6373 96.6941 41.5035V31.499C96.6941 27.3234 99.6378 24.1032 103.45 24.1032C106.352 24.1032 108.43 25.4074 109.685 27.8443C110.032 28.5393 110.853 28.8439 111.589 28.4976C112.281 28.1488 112.543 27.3234 112.196 26.6258C110.55 23.1896 107.477 21.2761 103.45 21.2761C97.9068 21.2761 93.6208 25.7122 93.6208 31.499V41.5035C93.6208 47.2461 97.9508 51.7264 103.535 51.7264C109.12 51.7264 113.45 47.0718 113.45 41.5035H113.452ZM44.4874 26.9968C44.4874 22.8506 47.2799 18.8199 48.8079 19.5862C50.544 20.4606 47.5072 24.3685 44.4874 26.9968ZM25.4626 28.5122C25.4626 25.1766 28.7415 18.8321 30.7464 19.5002C33.1108 20.2911 28.7855 26.6897 25.4626 28.5122ZM22.1423 52.3748C20.6337 52.4437 19.6288 51.4734 19.6288 49.8572C19.6288 45.5096 25.6266 41.3609 30.1571 39.133C29.3528 45.2 27.3136 52.1366 22.1423 52.3748ZM49.8203 38.2194C46.402 38.2194 43.781 40.7493 43.781 43.7804C43.781 46.3103 45.2895 48.3294 47.3042 48.3294C48.0109 48.3294 48.7101 47.9266 48.7101 47.0152C48.7101 45.7012 46.9765 45.3818 47.1112 43.4145C47.1966 42.1176 48.4119 41.2505 49.6173 41.2505C52.033 41.2505 53.1625 43.6011 53.1625 46.0279C53.0598 49.7687 50.3214 52.3723 47.1014 52.3723C42.8738 52.3723 40.1599 48.3269 40.1599 43.9768C40.1599 37.5072 44.3848 34.9795 46.5977 34.373C46.6195 34.373 52.3874 35.4071 52.2065 32.8525C52.1283 31.7324 50.4656 31.3026 49.2603 31.2511C47.9228 31.197 46.5805 31.6809 46.5805 31.6809C45.8763 31.3248 45.3899 30.6294 45.0915 29.8239C49.2162 26.6872 52.1356 23.6563 52.1356 20.2175C52.1356 18.3974 50.9278 16.7787 48.6124 16.7787C44.4874 16.7787 41.3653 22.0351 41.3653 26.788C41.3653 27.5961 41.3653 28.4066 41.5681 29.114C38.9521 31.0348 37.0057 32.2261 33.4823 34.3508C33.4823 33.9062 33.5754 32.769 33.8711 31.2853C35.0789 29.9713 36.7369 28.0037 36.7369 26.4858C36.7369 25.7784 36.3358 25.1718 35.529 25.1718C33.5166 25.1718 32.0081 28.2029 31.6046 30.3274C30.6976 31.4402 28.8882 32.8573 27.3772 32.8573C26.1693 32.8573 25.7683 31.7422 25.6656 31.3394C29.492 30.0228 34.2208 24.7664 34.2208 20.0136C34.2208 19.0016 33.8175 16.7762 30.8002 16.7762C26.2695 16.7762 22.4455 23.5507 22.4455 28.8095C20.8342 28.8095 20.2327 27.0901 20.2327 25.7761C20.2327 24.4618 20.7364 23.1453 20.7364 22.7425C20.7364 22.3397 20.5335 21.8312 19.9295 21.8312C18.4185 21.8312 17.5138 23.8528 17.5138 26.1787C17.6165 29.4138 19.729 31.4377 22.5482 31.6391C22.9515 33.5599 24.6631 35.3799 26.7756 35.3799C28.0861 35.3799 29.695 34.977 30.8027 33.9651C30.6999 34.675 30.6022 35.2793 30.4996 35.8859C26.0714 38.2121 22.8514 39.8306 19.932 42.4563C17.619 44.5811 16.3084 47.4108 16.3084 49.6386C16.3084 52.672 18.2205 55.4992 22.1447 55.4992C26.7756 55.4992 30.2966 51.7606 32.0081 46.6025C32.8149 44.1757 33.1376 40.6462 33.3381 37.4088C37.969 34.7806 40.1647 33.2577 42.5756 31.5383C42.8788 32.0443 43.1844 32.4496 43.583 32.7517C41.4704 33.8645 36.4385 36.9987 36.4385 44.3772C36.4385 49.6361 39.9617 55.4992 46.9057 55.4992C52.6418 55.4992 56.5685 50.7512 56.5685 46.1999C56.5685 42.0537 54.2529 38.2121 49.8225 38.2121L49.8203 38.2194ZM67.1238 46.9023C67.1065 46.9342 67.0479 46.9807 66.9378 46.9415C66.8524 46.9096 66.8254 46.8653 66.8279 46.8115C66.8329 46.7524 68.0455 43.1565 68.0383 39.0274C68.0235 34.5767 66.2239 31.8478 63.9135 31.8478C62.5026 31.8478 61.4978 32.8598 61.4978 34.3752C61.4978 37.1066 64.818 37.308 64.818 43.2744C64.818 45.7012 64.3143 48.0224 63.51 50.5548C59.7863 63.1922 47.9082 69.0553 36.3358 69.0553C31.0007 69.0553 27.2084 67.9548 26.0789 67.4463C26.0324 67.4244 25.9956 67.3334 26.0299 67.2451C26.0569 67.1737 26.135 67.1221 26.1766 67.1417C26.6362 67.3236 29.8908 68.3504 33.9151 68.3504C38.3432 68.3504 40.9617 66.5327 40.9617 64.3023C40.9617 62.89 39.8543 61.7774 38.4434 61.7774C35.727 61.7774 35.524 65.2136 29.6877 65.2136C27.1717 65.2136 24.959 64.7102 22.3403 63.8996C9.86084 60.058 3.91206 48.2261 3.92184 36.4975C3.92675 30.7868 5.51847 26.2378 5.54535 26.1935C5.5649 26.1641 5.63582 26.1322 5.72384 26.1641C5.81431 26.1935 5.83877 26.2722 5.82898 26.2941C5.68228 26.7684 4.62603 30.0279 4.62603 34.0707C4.62603 38.5214 6.43779 41.1496 8.75082 41.1496C10.0589 41.1496 11.1665 40.1377 11.1665 38.7254C11.1665 35.994 7.84614 35.692 7.84614 29.8264C7.84614 27.2963 8.34983 25.0734 9.15423 22.4453C12.9783 9.90854 24.7537 4.03072 36.3308 3.9423C41.71 3.90055 46.4192 5.51675 46.5952 5.65921C46.627 5.68624 46.6611 5.75746 46.627 5.84098C46.5902 5.93433 46.5267 5.9466 46.4949 5.9417C46.4388 5.93433 43.3775 4.64969 38.7441 4.64969C34.4188 4.64969 31.7024 6.46732 31.7024 8.79586C31.7024 10.11 32.7073 11.2202 34.216 11.2202C36.9349 11.2202 37.1377 7.88459 42.9717 7.88459C45.49 7.88459 47.7002 8.39057 50.3189 9.19868C62.9037 13.0403 68.6298 24.9728 68.7374 36.4975C68.7938 42.4023 67.1361 46.8728 67.1213 46.9023H67.1238ZM36.3358 1.71447C17.2131 1.71447 1.70908 17.2872 1.70908 36.495C1.70908 55.7031 17.2106 71.2756 36.3358 71.2756C55.4608 71.2756 70.9551 55.7079 70.9551 36.495C70.9551 17.2822 55.4585 1.71447 36.3358 1.71447ZM36.3358 72.9975C16.306 72.9975 0 56.7199 0 36.4975C0 16.2752 16.3011 0 36.3308 0C56.3607 0 72.6642 16.3783 72.6642 36.5C72.6642 56.6218 56.3557 73 36.3308 73L36.3358 72.9975Z" fill="#640ACD"/>
</g>
<defs>
<clipPath id="clip0_1412_34274">
<rect width="327" height="73" fill="white"/>
</clipPath>
</defs>
</svg>
