<svg width="307" height="73" viewBox="0 0 307 73" fill="none" xmlns="http://www.w3.org/2000/svg">
<g clip-path="url(#clip0_1412_34240)">
<path d="M79.8643 17.3032H85.9425V28.3384H97.1727V17.3032H103.251V44.8429H97.1727V28.3471C97.1727 31.3137 94.0233 33.7728 91.1298 33.7728H85.9337V44.8429H79.8555V17.3032H79.8643Z" fill="#7E888D"/>
<path d="M113.695 17.3032H107.617V44.8429H113.695V17.3032Z" fill="#7E888D"/>
<path d="M117.242 31.0775C117.242 22.9478 123.047 16.9883 131.401 16.9883C135.9 16.9883 139.182 18.1959 141.493 20.8125L141.635 20.97L137.506 25.0218L137.347 24.8555C136.015 23.4991 134.507 22.4577 131.401 22.4577C126.611 22.4577 123.479 26.1157 123.479 31.0775C123.479 36.0219 126.682 39.7761 132.292 39.7761C133.986 39.7761 136.042 39.4786 137.409 38.8573V35.2431H130.819V29.8961H143.002V41.9376C141.308 43.3116 137.321 45.2018 132.292 45.2018C123.25 45.2018 117.242 39.2161 117.242 31.0775Z" fill="#7E888D"/>
<path d="M146.655 17.3032H152.734V28.3384H163.964V17.3032H170.042V44.8429H163.964V28.3471C163.964 31.3137 160.814 33.7728 157.921 33.7728H152.725V44.8429H146.646V17.3032H146.655Z" fill="#7E888D"/>
<path d="M183.3 23.0178H175.502V17.6621H197.16V23.0178H189.37V45.2018H183.3V23.0178Z" fill="#81BD41"/>
<path d="M197.416 31.4363C197.416 23.2978 203.785 17.312 211.778 17.312C219.771 17.312 226.14 23.3065 226.14 31.4363C226.14 39.5748 219.771 45.5605 211.778 45.5605C203.785 45.5605 197.416 39.5748 197.416 31.4363ZM219.912 31.4363C219.912 26.4832 216.621 22.7377 211.787 22.7377C206.952 22.7377 203.662 26.4832 203.662 31.4363C203.662 36.3894 206.952 40.1349 211.787 40.1349C216.612 40.1349 219.912 36.3894 219.912 31.4363Z" fill="#81BD41"/>
<path d="M229.439 35.1818V17.6621H235.518V34.858C235.518 38.6735 237.141 40.0912 240.758 40.0912C244.331 40.0912 245.91 38.6735 245.91 34.858V17.6621H251.988V35.173C251.988 42.1827 247.074 45.5606 240.758 45.5606C234.353 45.5606 229.439 42.1827 229.439 35.1818Z" fill="#81BD41"/>
<path d="M254.926 31.4364C254.926 23.2979 261.251 17.3472 269.208 17.3472C274.219 17.3472 277.827 19.1324 280.324 22.9916L280.439 23.1754L275.772 26.4658L275.648 26.2645C274.404 24.2605 272.261 22.8254 269.217 22.8254C264.418 22.8254 261.172 26.4921 261.172 31.4452C261.172 36.4071 264.427 40.1438 269.217 40.1438C272.649 40.1438 274.554 38.5336 276.054 36.2583L276.178 36.0658L280.924 39.3037L280.809 39.4874C278.401 43.2154 274.554 45.5694 269.217 45.5694C261.26 45.5607 254.926 39.5662 254.926 31.4364Z" fill="#81BD41"/>
<path d="M283.614 17.6621H289.693V28.706H300.923V17.6621H307.001V45.2018H300.923V28.706C300.923 31.6726 297.773 34.1317 294.88 34.1317H289.684V45.2018H283.605V17.6621H283.614Z" fill="#81BD41"/>
<path d="M84.3459 70.7727H87.9805V56.4384H93.0089V53.2705H79.3086V56.4384H84.3459V70.7727Z" fill="#7E888D"/>
<path d="M99.4043 70.7727H111.446V67.6048H103.039V63.6843H110.123V60.5952H103.039V56.4384H111.084V53.2705H99.4043V70.7727Z" fill="#7E888D"/>
<path d="M127.026 71.0003C130.422 71.0003 132.866 69.5039 134.392 67.1411L131.56 65.2071C130.572 66.7035 129.302 67.7799 127.017 67.7799C123.824 67.7799 121.671 65.2858 121.671 62.0129C121.671 58.7488 123.824 56.2984 127.017 56.2984C129.037 56.2984 130.466 57.2523 131.296 58.5912L134.075 56.6397C132.495 54.1982 130.211 53.0605 127.017 53.0605C121.962 53.0605 117.939 56.841 117.939 62.0129C117.948 67.1936 121.971 71.0003 127.026 71.0003Z" fill="#7E888D"/>
<path d="M140.824 70.7727H144.45V64.0431H152.001V70.7727H155.636V53.2705H152.001V60.8315H144.45V53.2705H140.824V70.7727Z" fill="#7E888D"/>
<path d="M177.187 70.9301H177.549V53.2703H174.153V60.6038C174.153 61.8114 174.391 63.7979 174.391 63.7979C174.391 63.7979 173.173 62.2052 172.318 61.4089L163.416 53.1216H163.055V70.7725H166.451V63.4391C166.451 62.179 166.195 60.245 166.195 60.245C166.195 60.245 167.413 61.8114 168.295 62.6428L177.187 70.9301Z" fill="#7E888D"/>
<path d="M192.263 71.0002C197.345 71.0002 201.394 67.1935 201.394 62.0216C201.394 56.8497 197.345 53.043 192.263 53.043C187.182 53.043 183.133 56.8497 183.133 62.0216C183.133 67.1935 187.182 71.0002 192.263 71.0002ZM192.263 67.7886C189.043 67.7886 186.864 65.2945 186.864 62.0216C186.864 58.7574 189.043 56.2546 192.263 56.2546C195.483 56.2546 197.662 58.7487 197.662 62.0216C197.662 65.2945 195.483 67.7886 192.263 67.7886Z" fill="#7E888D"/>
<path d="M206.863 70.7727H218.49V67.6048H210.498V53.2705H206.863V70.7727Z" fill="#7E888D"/>
<path d="M231.494 71.0002C236.575 71.0002 240.624 67.1935 240.624 62.0216C240.624 56.8497 236.575 53.043 231.494 53.043C226.413 53.043 222.363 56.8497 222.363 62.0216C222.363 67.1935 226.413 71.0002 231.494 71.0002ZM231.494 67.7886C228.274 67.7886 226.095 65.2945 226.095 62.0216C226.095 58.7574 228.274 56.2546 231.494 56.2546C234.714 56.2546 236.893 58.7487 236.893 62.0216C236.893 65.2945 234.714 67.7886 231.494 67.7886Z" fill="#7E888D"/>
<path d="M254.396 71.0003C257.616 71.0003 260.157 69.7926 261.171 68.97V61.4003H253.593V64.5682H257.845V67.1411C256.937 67.5786 255.534 67.7886 254.396 67.7886C250.691 67.7886 248.556 65.2946 248.556 62.0217C248.556 58.7575 250.629 56.3072 253.823 56.3072C255.869 56.3072 256.884 56.9985 257.766 57.8999L260.227 55.4758C258.772 53.8306 256.698 53.0605 253.823 53.0605C248.503 53.0605 244.824 56.841 244.824 62.0129C244.815 67.1936 248.635 71.0003 254.396 71.0003Z" fill="#7E888D"/>
<path d="M271.183 53.2705H267.549V70.7727H271.183V53.2705Z" fill="#7E888D"/>
<path d="M277.773 70.7727H289.806V67.6048H281.408V63.6843H288.483V60.5952H281.408V56.4384H289.445V53.2705H277.773V70.7727Z" fill="#7E888D"/>
<path d="M300.94 71.0003C304.389 71.0003 306.956 69.2239 306.956 65.986C306.956 62.9756 305.218 61.6367 302.131 60.324L301.222 59.9389C299.669 59.2739 298.99 58.8363 298.99 57.7512C298.99 56.8761 299.66 56.211 300.728 56.211C301.769 56.211 302.439 56.6485 303.066 57.7512L305.897 55.9484C304.707 53.8657 303.039 53.0693 300.737 53.0693C297.49 53.0693 295.417 55.1258 295.417 57.8299C295.417 60.7615 297.155 62.153 299.775 63.2556L300.684 63.6407C302.342 64.3582 303.33 64.7958 303.33 66.0297C303.33 67.0623 302.369 67.8062 300.869 67.8062C299.078 67.8062 298.064 66.8786 297.287 65.6184L294.332 67.3161C295.382 69.4076 297.57 71.0003 300.94 71.0003Z" fill="#7E888D"/>
<path d="M9.20154 62.9492C9.22801 62.9667 9.24565 62.993 9.27212 63.0105C12.0245 65.3558 15.1651 67.3248 18.6233 68.8387C22.1696 70.3964 26.0071 71.1228 29.8888 70.9827C32.35 70.8952 34.8378 70.5714 37.3256 70.0026C38.94 69.6263 40.5102 69.1538 42.0188 68.5937C31.6002 66.4497 21.7374 62.9055 12.7744 58.0661C9.65145 56.3772 6.54617 60.5952 9.20154 62.9492Z" fill="#81BD41"/>
<path d="M47.9467 7.16087C52.1107 8.73606 56.4598 10.0312 60.959 11.0288C58.6212 7.54591 55.7541 4.49178 52.49 1.96272C51.943 1.53391 51.3079 1.21012 50.6198 1.08761H50.6109C49.1465 0.825073 47.9379 1.19262 47.0557 1.91896C45.2296 3.4329 45.7325 6.32076 47.9467 7.16087Z" fill="#81BD41"/>
<path d="M0.0437965 37.291C0.0437965 37.326 0.0349746 37.361 0.0349746 37.396C-0.150284 38.9712 0.502532 40.5377 1.73759 41.5528C2.44334 42.1304 3.15791 42.6904 3.89012 43.2505C17.5375 53.603 34.3519 60.2801 52.5337 62.7742C56.0272 60.0526 59.009 56.7709 61.3644 53.0955C40.8095 51.5465 22.0984 44.6682 7.56 34.0269C4.62233 31.8916 0.476067 33.7031 0.0437965 37.291Z" fill="#81BD41"/>
<path d="M7.5775 18.056C7.55986 18.0822 7.53339 18.1172 7.51575 18.1435C5.88371 20.4275 6.29833 23.5692 8.51261 25.3106C10.3034 26.7196 12.3942 28.321 13.9116 29.3274C28.5117 39.0323 46.1907 44.7031 64.9636 45.8932C66.0222 43.0929 66.7544 40.1525 67.1337 37.1334C47.1082 35.0331 28.9969 27.8134 15.0761 16.9708C12.7383 15.1506 9.30658 15.6494 7.5775 18.056Z" fill="#81BD41"/>
<path d="M28.8914 17.181C29.1648 17.3385 29.3854 17.4698 29.5265 17.5486C40.8802 23.8669 53.7425 27.9274 67.3369 29.5901C67.187 27.6211 66.9047 25.6346 66.4371 23.6481C66.1195 22.2917 65.7137 20.9878 65.2638 19.7101C53.8483 17.8374 43.218 14.1094 33.9639 8.74498C31.8731 7.52857 29.2089 7.94863 27.6475 9.78636C25.6626 12.0966 26.2624 15.6233 28.8914 17.181Z" fill="#81BD41"/>
</g>
<defs>
<clipPath id="clip0_1412_34240">
<rect width="307" height="73" fill="white"/>
</clipPath>
</defs>
</svg>
