<svg width="213" height="73" viewBox="0 0 213 73" fill="none" xmlns="http://www.w3.org/2000/svg">
<path d="M54.3744 12.4738C54.5779 12.3721 55.031 12.2058 55.3916 12.1133C55.7522 12.0209 56.3718 11.947 56.7787 11.9377C57.241 11.9377 57.7958 12.0024 58.2582 12.1226C58.6651 12.2335 59.2476 12.4461 59.5528 12.6124C59.8579 12.7788 60.422 13.2224 60.8104 13.6013C61.3744 14.1559 61.5964 14.4516 61.8923 15.0801C62.0957 15.5145 62.3084 16.0875 62.3639 16.3462C62.4194 16.6143 62.4656 17.1965 62.4656 17.6401C62.4656 18.093 62.4009 18.703 62.3176 19.008C62.2344 19.313 62.0217 19.849 61.8368 20.2095C61.5409 20.7917 61.0323 21.337 57.0098 25.3851C54.5316 27.8712 52.4233 30.0339 52.3216 30.191C52.2106 30.3389 51.9979 30.727 51.8407 31.0413C51.6835 31.3647 51.4894 31.8823 51.4154 32.1965C51.3414 32.52 51.2767 33.093 51.2767 33.4719C51.2767 33.8509 51.3414 34.4239 51.4154 34.7381C51.4894 35.0616 51.6835 35.5791 51.8407 35.8934C51.9979 36.2169 52.2106 36.605 52.3123 36.7529C52.4233 36.9008 54.5316 39.0727 57.0098 41.5588C61.0323 45.6161 61.5409 46.1522 61.8368 46.7344C62.0217 47.0949 62.2344 47.6309 62.3176 47.9359C62.4009 48.2501 62.4656 48.8694 62.4656 49.3684C62.4656 49.849 62.4009 50.4775 62.3269 50.7547C62.2529 51.032 62.0402 51.5773 61.8553 51.9562C61.6056 52.4645 61.3282 52.8342 60.8104 53.3518C60.3018 53.8509 59.9134 54.1374 59.4141 54.3869C59.0349 54.5718 58.4709 54.7936 58.1657 54.8675C57.8606 54.9414 57.278 55.0061 56.8711 55.0061C56.4273 55.0061 55.8355 54.9322 55.3916 54.8213C54.9847 54.7104 54.3837 54.4793 54.0508 54.2945C53.5607 54.0265 52.673 53.1947 49.1591 49.7011C46.8011 47.3629 44.7575 45.3111 44.6281 45.1632C44.5078 45.0154 42.7324 43.2224 40.6981 41.1799C38.6545 39.1466 36.8051 37.252 36.5739 36.9747C36.3427 36.6974 36.0283 36.2076 35.8896 35.8749C35.7416 35.5422 35.5844 35.191 35.5382 35.0893C35.492 34.9876 35.418 34.5533 35.381 34.1189C35.344 33.6475 35.3533 33.0191 35.418 32.5477C35.492 31.9562 35.6122 31.5865 35.8711 31.069C36.0653 30.6901 36.3889 30.191 36.5924 29.9599C36.7958 29.7289 37.1564 29.3315 37.3876 29.0634C37.628 28.7954 41.2529 25.1448 45.451 20.9581C49.6492 16.7621 53.2833 13.1762 53.5422 12.9913C53.7919 12.8065 54.171 12.5755 54.3744 12.4738Z" fill="#012121"/>
<path fill-rule="evenodd" clip-rule="evenodd" d="M37.4774 28.9683C37.4335 29.0139 37.4034 29.0459 37.3876 29.0634C37.3612 29.094 37.3331 29.1263 37.3038 29.1599C37.3428 29.1164 37.3803 29.0746 37.4154 29.0357C37.4364 29.0131 37.4571 28.9906 37.4774 28.9683ZM36.4731 26.9722C36.1087 27.3428 35.8785 27.5799 35.814 27.6518L35.8003 27.6671L35.7869 27.6827C35.6501 27.8412 35.489 28.0212 35.3287 28.2003L35.3285 28.2005C35.2178 28.3241 35.1075 28.4474 35.0058 28.5629C34.6496 28.9674 34.2336 29.6291 33.9898 30.1048L33.9851 30.114L33.9805 30.1232C33.6247 30.8345 33.4283 31.4318 33.3219 32.2731C33.2353 32.9139 33.2269 33.6895 33.2735 34.2842L33.2741 34.2912L33.2747 34.2982C33.2978 34.5695 33.3323 34.8414 33.3703 35.0721C33.3891 35.1866 33.4116 35.3079 33.4377 35.4233L33.4391 35.4292C33.4547 35.4982 33.5067 35.7288 33.6139 35.9644C33.6552 36.0552 33.8042 36.3879 33.9499 36.7156C34.1892 37.2775 34.6194 37.9317 34.9503 38.3284C35.2619 38.7022 37.206 40.6874 39.2038 42.6752C40.2188 43.6943 41.1675 44.6494 41.8769 45.3676C42.2324 45.7275 42.5252 46.0253 42.7353 46.2409C42.8386 46.3469 42.907 46.4181 42.9491 46.462L42.9492 46.4621C43.0141 46.5296 43.0166 46.5321 42.988 46.497L43.0121 46.5267L43.0375 46.5557C43.0741 46.5975 43.1792 46.707 43.3412 46.8726C41.9245 48.3021 39.614 50.6183 37.0177 53.2131C30.4616 59.7473 29.13 61.0227 28.6677 61.2723C28.3625 61.4294 27.78 61.642 27.3731 61.7529C26.9662 61.8545 26.3652 61.9377 26.0323 61.9377C25.6994 61.9377 25.1353 61.873 24.7839 61.7991C24.4325 61.7159 23.8222 61.5033 23.4431 61.3185C22.9437 61.0689 22.5554 60.7732 22.0468 60.2741C21.5382 59.7658 21.2608 59.3961 21.0111 58.8878C20.8262 58.5089 20.6042 57.9451 20.5303 57.6401C20.4563 57.3351 20.3916 56.7344 20.3916 56.3C20.3916 55.8656 20.4563 55.2464 20.5395 54.9137C20.6135 54.581 20.8354 54.0264 21.0111 53.666C21.3163 53.093 21.8433 52.52 25.8936 48.4442C29.167 45.1447 30.5356 43.7122 30.7667 43.3148C30.9517 43.0098 31.2014 42.4922 31.3123 42.1595C31.488 41.6604 31.525 41.3647 31.5343 40.4497C31.5343 39.507 31.4973 39.239 31.3031 38.6475C31.1829 38.2686 30.9147 37.7048 30.7205 37.3998C30.4893 37.0486 28.7139 35.1909 25.8566 32.3166C21.8341 28.2778 21.3163 27.7141 21.0111 27.141C20.8262 26.7898 20.6135 26.2261 20.5395 25.8933C20.4563 25.5606 20.3916 24.9507 20.3916 24.5255C20.3916 24.1096 20.4378 23.5458 20.4933 23.2871C20.5488 23.019 20.7614 22.446 20.9741 22.0116C21.27 21.3924 21.492 21.0782 22.0468 20.5329C22.4352 20.1447 22.9992 19.7104 23.3044 19.544C23.6095 19.3776 24.1736 19.1651 24.5527 19.0542C25.0983 18.9063 25.4404 18.8786 26.171 18.9063C26.7628 18.9248 27.3084 19.008 27.6967 19.1373C28.0296 19.239 28.5659 19.4793 28.8988 19.6734C29.3704 19.9507 30.4154 20.9303 33.6888 24.1836C34.7547 25.2446 35.7314 26.2224 36.4731 26.9722ZM41.0704 41.5538C40.9475 41.4303 40.8233 41.3056 40.6981 41.1799C38.8658 39.3569 37.1897 37.6453 36.696 37.111C37.2412 37.6894 38.9645 39.4472 40.8645 41.3462C40.9336 41.4158 41.0022 41.485 41.0704 41.5538ZM35.5382 35.0893C35.5353 35.0829 35.5323 35.0753 35.5293 35.0664L35.5382 35.0893ZM19.7258 32.2612C19.5871 32.2982 19.3559 32.3998 19.2172 32.483C19.0785 32.5569 18.8473 32.7418 18.7178 32.8897C18.5791 33.0283 18.3942 33.2963 18.311 33.4719C18.2093 33.6752 18.1445 34.008 18.1445 34.3499C18.1445 34.6919 18.2093 35.0246 18.311 35.2279C18.3942 35.4035 19.2912 36.3832 20.2991 37.3998C21.6861 38.8046 22.1485 39.3407 22.241 39.6179C22.3149 39.8213 22.3704 40.1909 22.3612 40.4497C22.3612 40.7177 22.2872 41.0505 22.1855 41.2538C22.093 41.4386 21.2238 42.4091 20.2529 43.4072C19.2912 44.4054 18.4219 45.3758 18.3202 45.5606C18.2093 45.7824 18.1445 46.0967 18.1445 46.4571C18.1445 46.836 18.2093 47.1318 18.3387 47.3813C18.4404 47.5847 18.6439 47.8619 18.7918 47.9913C18.9305 48.1299 19.1987 48.3148 19.3744 48.4072C19.5963 48.5181 19.8922 48.5736 20.2991 48.5736C20.7799 48.5736 20.9834 48.5274 21.3163 48.3333C21.5474 48.1946 23.1749 46.642 24.9411 44.8675C27.1234 42.6863 28.1961 41.5403 28.2978 41.3C28.3718 41.1152 28.4365 40.7085 28.4365 40.4035C28.4365 40.0985 28.3718 39.6919 28.2978 39.4978C28.1961 39.2667 27.1234 38.1207 24.9411 35.9396C23.1749 34.1651 21.5659 32.6216 21.3625 32.4922C21.1313 32.3536 20.7984 32.2519 20.484 32.2242C20.2066 32.2057 19.8645 32.215 19.7258 32.2612Z" fill="#012121"/>
<path fill-rule="evenodd" clip-rule="evenodd" d="M72.314 28.324C73.849 28.3518 74.2651 28.398 74.7644 28.5551C75.199 28.6937 75.5042 28.8693 75.8556 29.1928C76.1792 29.4793 76.4012 29.7843 76.5029 30.0523C76.6046 30.3296 76.6601 30.7455 76.6601 31.3C76.6601 32.0117 76.6231 32.2057 76.4104 32.6401C76.2809 32.9174 76.022 33.2871 75.8371 33.4442C75.6521 33.6105 75.3285 33.8416 75.1066 33.9433C74.8939 34.0542 74.45 34.202 74.1171 34.2667C73.7842 34.3407 73.0722 34.3961 71.528 34.3961V38.2778H70.3259L70.3074 33.3518C70.2981 30.4497 70.3259 28.3887 70.3813 28.3518C70.4276 28.3056 71.2968 28.2963 72.314 28.324ZM71.528 33.4257C73.2109 33.324 73.9137 33.2316 74.1634 33.1577C74.4315 33.0745 74.7459 32.8897 74.9216 32.7141C75.0788 32.5477 75.2638 32.2982 75.31 32.1503C75.3655 32.0117 75.4117 31.6512 75.4117 31.3462C75.4117 31.0412 75.3562 30.6531 75.2915 30.4867C75.2175 30.3296 75.0326 30.08 74.8754 29.9322C74.709 29.7935 74.3576 29.6179 74.0986 29.544C73.7842 29.4516 73.2202 29.4054 72.5729 29.4054H71.528V33.4257ZM82.3378 28.2963H83.5491V31.7806C83.5491 34.6272 83.5769 35.3666 83.6878 35.7547C83.7618 36.0227 83.9652 36.3924 84.1317 36.5773C84.2889 36.7621 84.594 37.0024 84.7975 37.1133C85.1119 37.2797 85.3246 37.3074 86.1845 37.3074C87.0445 37.3074 87.2572 37.2797 87.5716 37.1133C87.775 37.0024 88.0709 36.7714 88.2189 36.5958C88.3761 36.4109 88.561 36.1059 88.635 35.9118C88.7367 35.6253 88.7737 34.8028 88.8199 28.3425H89.9758L89.9943 31.7159C90.0036 33.6198 89.9758 35.3111 89.9203 35.5976C89.8741 35.8749 89.7261 36.3093 89.6059 36.568C89.4857 36.8176 89.1898 37.215 88.9402 37.446C88.6997 37.6678 88.2929 37.9451 88.0339 38.0653C87.7843 38.1762 87.2387 38.324 86.8318 38.3795C86.2585 38.4719 85.9349 38.4719 85.3985 38.3887C85.0194 38.324 84.4553 38.1577 84.1502 38.0098C83.808 37.8435 83.4382 37.5662 83.1977 37.2982C82.9758 37.0486 82.7076 36.6142 82.5967 36.337C82.4025 35.8471 82.3932 35.69 82.3655 32.0579L82.3378 28.2963ZM96.2361 28.2778L98.1964 28.324C99.713 28.361 100.259 28.4072 100.656 28.5274C100.934 28.6198 101.313 28.7861 101.488 28.8971C101.664 29.0172 101.886 29.1836 101.969 29.2852C102.052 29.3776 102.219 29.6642 102.339 29.9137C102.506 30.2834 102.543 30.5422 102.543 31.1614C102.543 31.7621 102.496 32.0579 102.358 32.3629C102.256 32.5939 102.025 32.9266 101.84 33.1022C101.664 33.2871 101.322 33.5366 101.091 33.6568C100.85 33.7861 100.656 33.9155 100.656 33.934C100.656 33.9618 101.239 34.9414 103.245 38.2316L102.58 38.2593C102.21 38.2778 101.877 38.2501 101.84 38.2131C101.803 38.1762 101.257 37.2704 99.4818 34.2575L97.4197 34.2113V38.2778H96.2176L96.2361 28.2778ZM97.4197 33.2501C99.491 33.1577 99.9811 33.0837 100.24 32.9821C100.443 32.8897 100.721 32.7141 100.869 32.5754C101.008 32.4368 101.165 32.178 101.211 32.0024C101.257 31.8176 101.303 31.4571 101.303 31.1891C101.303 30.9211 101.257 30.5884 101.202 30.4497C101.146 30.3111 100.998 30.08 100.86 29.9414C100.721 29.7935 100.397 29.6179 100.148 29.544C99.8517 29.4608 99.2783 29.4146 98.5478 29.4146H97.4197V33.2501ZM110.495 28.324C112.049 28.361 112.455 28.398 112.955 28.5643C113.288 28.6752 113.722 28.8786 113.926 29.0264C114.129 29.1743 114.416 29.5255 114.573 29.7935C114.832 30.2557 114.85 30.3573 114.85 31.263C114.85 32.1318 114.823 32.2797 114.61 32.6956C114.471 32.9451 114.212 33.2871 114.027 33.4534C113.842 33.6198 113.528 33.8416 113.325 33.9433C113.121 34.0449 112.696 34.1836 112.372 34.2667C112.058 34.3407 111.355 34.4054 109.811 34.4054V38.2871H108.609L108.581 33.361C108.562 30.6531 108.572 28.4072 108.59 28.361C108.618 28.3148 109.478 28.3056 110.495 28.324ZM109.811 33.3887C110.846 33.3795 111.42 33.3425 111.753 33.2963C112.086 33.2501 112.539 33.1115 112.77 32.9913C113.056 32.8435 113.26 32.6494 113.417 32.3629C113.602 32.0301 113.648 31.8268 113.648 31.3C113.648 30.7547 113.611 30.5884 113.408 30.2834C113.26 30.0523 113.001 29.8305 112.714 29.6919C112.317 29.4886 112.113 29.4608 111.05 29.4239L109.829 29.3869L109.811 33.3887ZM121.786 28.3518L121.832 37.2704H126.178V38.2871H120.63L120.611 33.3425C120.593 30.6161 120.602 28.3703 120.63 28.3425C120.648 28.324 120.926 28.3148 121.786 28.3518ZM137.043 28.3518L137.09 29.4146H132.697V32.5569H136.812V33.5736L132.734 33.6198L132.697 37.2704H137.09V38.2871H131.449L131.44 33.361C131.43 30.6531 131.458 28.4072 131.495 28.3703C131.541 28.3333 132.808 28.3148 137.043 28.3518ZM72.2215 43.7492C72.6376 43.7399 73.1647 43.8046 73.4236 43.8786C73.6825 43.9618 73.9784 44.0819 74.0986 44.1651C74.3021 44.2945 74.3021 44.3037 73.9784 44.9229L73.6086 44.7566C73.4051 44.6549 73.0167 44.5348 72.7301 44.4793C72.3787 44.4146 72.092 44.4146 71.8054 44.4793C71.5834 44.5348 71.2968 44.6642 71.1858 44.7843C71.0471 44.9137 70.9731 45.0985 70.9731 45.2926C70.9731 45.4959 71.0564 45.6715 71.2321 45.8471C71.4078 46.0135 71.8146 46.2076 72.4157 46.4017C72.9243 46.5588 73.5068 46.8083 73.7195 46.9562C73.9414 47.0948 74.1819 47.3259 74.2558 47.4645C74.3298 47.6032 74.4038 47.9359 74.413 48.2039C74.4223 48.5366 74.3761 48.7861 74.2466 49.008C74.1449 49.1928 73.923 49.4331 73.7473 49.544C73.5716 49.6642 73.2572 49.8028 73.0537 49.8582C72.8503 49.9137 72.3787 49.9414 71.9903 49.9229C71.4817 49.8952 71.1581 49.8213 70.742 49.6272C70.4368 49.4886 70.0947 49.276 69.9837 49.1651C69.7895 48.971 69.7895 48.9525 70.0947 48.3887L70.557 48.6845C70.8159 48.8508 71.1858 49.0357 71.3893 49.1004C71.6019 49.1651 72.0273 49.202 72.3787 49.1836C72.8041 49.1651 73.0722 49.0911 73.2479 48.9618C73.3866 48.8601 73.5346 48.6568 73.5716 48.4996C73.6178 48.324 73.6086 48.1207 73.5346 47.9451C73.4606 47.7972 73.3126 47.6032 73.1924 47.52C73.063 47.446 72.5544 47.2427 72.0643 47.0856C71.565 46.9285 70.9916 46.6789 70.7882 46.5403C70.5848 46.4017 70.3536 46.1521 70.2796 45.9858C70.2056 45.8194 70.1409 45.5144 70.1409 45.3111C70.1409 45.1078 70.2056 44.8305 70.2704 44.6919C70.3443 44.5532 70.5015 44.3499 70.6218 44.2298C70.742 44.1189 70.9824 43.971 71.1581 43.8878C71.3615 43.8046 71.7776 43.7492 72.2215 43.7492ZM86.6469 43.7677C87.4421 43.7954 87.6456 43.8416 88.0617 44.0449C88.3298 44.1836 88.709 44.4608 88.9124 44.6642C89.1158 44.8675 89.384 45.2556 89.5135 45.5237C89.6429 45.7917 89.7724 46.2168 89.8001 46.4664C89.8371 46.7344 89.8186 47.1503 89.7446 47.4368C89.6892 47.7233 89.5412 48.1115 89.421 48.3148C89.31 48.5181 89.0141 48.8693 88.7645 49.1004C88.5148 49.3222 88.1264 49.5995 87.8952 49.7011C87.5623 49.849 87.2942 49.886 86.5452 49.886C85.6667 49.886 85.5835 49.8767 84.9824 49.5625C84.5386 49.3407 84.2242 49.1004 83.9467 48.7584C83.7156 48.4719 83.4936 48.0745 83.4104 47.788C83.3364 47.52 83.2717 47.0671 83.2717 46.7714C83.2717 46.4571 83.3549 46.0227 83.4751 45.7085C83.6139 45.3388 83.8358 45.0246 84.1964 44.6642C84.5293 44.3222 84.8807 44.0727 85.2136 43.9433C85.639 43.7769 85.8701 43.7492 86.6469 43.7677ZM85.0471 44.8767C84.8807 44.9876 84.6218 45.2741 84.4738 45.4959C84.3166 45.727 84.1502 46.0782 84.0947 46.2815C84.0392 46.4849 84.0115 46.8453 84.0392 47.0671C84.067 47.2982 84.1687 47.6494 84.2704 47.8527C84.3721 48.056 84.6495 48.4072 84.8807 48.6198C85.1766 48.8878 85.4725 49.0542 85.8424 49.1651C86.1568 49.2483 86.5359 49.2945 86.7856 49.2667C87.0168 49.239 87.4144 49.1096 87.6641 48.9802C87.923 48.8601 88.2374 48.629 88.3761 48.4904C88.5148 48.3425 88.709 48.0375 88.8199 47.8065C88.9402 47.5385 89.0049 47.1965 89.0049 46.8361C89.0049 46.4571 88.9401 46.1429 88.7922 45.8194C88.672 45.5699 88.3946 45.2094 88.1726 45.0061C87.9415 44.8213 87.5531 44.5995 87.2942 44.5255C87.0445 44.4516 86.6654 44.3869 86.4619 44.3961C86.2585 44.3961 85.9256 44.4608 85.7222 44.5348C85.5187 44.6087 85.2228 44.7658 85.0471 44.8767ZM99.0842 43.7399H103.06V44.3869H99.8239V46.605H102.783V47.252H99.8239V49.9322H99.0842V43.7399ZM111.198 43.7399H116.006V44.3869H113.972V49.9322H113.232V44.3869H111.198V43.7399ZM124.171 43.7399H124.976L125.346 44.9229C125.54 45.5699 125.91 46.7344 126.15 47.5107C126.4 48.2871 126.622 48.9248 126.64 48.9155C126.668 48.9155 126.918 48.1854 127.195 47.2797C127.473 46.3739 127.833 45.2187 128.286 43.7861H129.091L129.905 46.3739C130.348 47.7972 130.728 48.971 130.737 48.9802C130.746 48.9895 131.023 48.1392 131.356 47.0856C131.68 46.0412 132.041 44.8582 132.374 43.7399H133.206L131.125 49.886H130.302L129.812 48.3148C129.535 47.4553 129.174 46.3185 129.017 45.8009C128.86 45.2834 128.702 44.8582 128.675 44.849C128.656 44.849 128.554 45.0893 128.462 45.385C128.37 45.6715 128.009 46.8176 127.01 49.9322H126.224L124.171 43.7399ZM143.979 43.7399L144.802 43.7861L147.539 49.886L147.15 49.9137C146.938 49.9322 146.734 49.9137 146.706 49.8675C146.679 49.8305 146.512 49.4701 146.022 48.361H142.693L142.037 49.886L141.648 49.9137C141.436 49.9229 141.26 49.9044 141.26 49.8675C141.26 49.8305 141.87 48.4349 142.619 46.7621L143.979 43.7399ZM143.045 47.6494C143.026 47.6956 143.618 47.7233 144.358 47.7233C145.097 47.7233 145.699 47.7048 145.699 47.6771C145.699 47.6586 145.421 47.0024 145.088 46.2261C144.755 45.4497 144.45 44.7658 144.422 44.6919C144.385 44.6272 144.08 45.2187 143.71 46.069C143.359 46.8915 143.054 47.6032 143.045 47.6494ZM156.425 43.7492L158.071 43.7584C159.588 43.7584 159.745 43.7677 160.17 43.971C160.429 44.0911 160.743 44.313 160.891 44.4793C161.03 44.6364 161.187 44.9229 161.234 45.117C161.28 45.3111 161.326 45.6253 161.326 45.8287C161.326 46.032 161.28 46.3555 161.234 46.5495C161.187 46.7436 161.002 47.0486 160.836 47.2427C160.66 47.4368 160.392 47.6401 159.939 47.8157L160.632 48.8324C161.012 49.3961 161.326 49.8767 161.326 49.8952C161.326 49.9229 161.141 49.9414 160.91 49.9414C160.531 49.9414 160.475 49.9137 160.29 49.5995C160.17 49.4054 160.087 49.2205 160.105 49.1836C160.115 49.1466 160.087 49.1096 160.031 49.1096C159.985 49.1096 159.791 48.8601 159.292 48.0006H157.165V49.9414H156.425V43.7492ZM157.165 47.2612C159.227 47.2612 159.504 47.2242 159.828 47.0764C160.041 46.9747 160.3 46.7621 160.401 46.5958C160.522 46.4017 160.586 46.1337 160.586 45.8287C160.586 45.5329 160.522 45.2649 160.401 45.0708C160.3 44.9044 160.078 44.7011 159.92 44.6087C159.689 44.4886 159.319 44.4423 158.404 44.4146L157.183 44.3776L157.165 47.2612ZM170.943 43.7492H175.197V44.3961H171.683V46.4294H174.827V47.1688H171.683V49.2945H175.289V49.9414H170.943V43.7492Z" fill="#012121"/>
<path fill-rule="evenodd" clip-rule="evenodd" d="M62.6959 25.2833C62.9548 25.3018 63.3247 25.4035 63.5281 25.5051C63.7316 25.6068 64.009 25.8101 64.1384 25.958C64.2771 26.0966 64.4621 26.3647 64.5546 26.5403C64.6563 26.7436 64.7118 27.0671 64.7118 27.4183C64.7118 27.8064 64.6563 28.0929 64.5176 28.361C64.3974 28.592 63.5744 29.4977 62.5942 30.4867C61.651 31.4478 60.791 32.3905 60.6893 32.5939C60.5598 32.8342 60.4951 33.1392 60.4951 33.4719C60.4951 33.7769 60.5598 34.1096 60.6616 34.3037C60.7448 34.4793 61.6048 35.422 62.5572 36.3831C63.5096 37.3443 64.3696 38.3055 64.4713 38.5088C64.5731 38.7122 64.684 39.0449 64.721 39.2482C64.758 39.4885 64.7303 39.7935 64.6378 40.0985C64.5638 40.3665 64.3604 40.7362 64.2032 40.9303C64.0367 41.1151 63.6946 41.3647 63.4357 41.4848C63.186 41.5957 62.8069 41.6974 62.6034 41.6974C62.4 41.6974 62.0671 41.6419 61.8637 41.5865C61.5585 41.5033 60.9205 40.9118 58.1371 38.1484C56.2322 36.2538 54.688 34.6549 54.577 34.4423C54.4383 34.1743 54.3828 33.9062 54.3828 33.4719C54.3828 33.0375 54.4383 32.7695 54.577 32.5014C54.688 32.2981 56.2415 30.6715 58.0909 28.8231C59.9125 27.0116 61.4291 25.5236 61.4476 25.5236C61.4753 25.5236 61.6602 25.4589 61.8637 25.385C62.0856 25.3018 62.4185 25.2556 62.6959 25.2833ZM145.411 28.2963L153.04 28.3425V30.5606L150.589 30.6068V34.4423C150.589 37.4183 150.561 38.287 150.478 38.3332C150.413 38.3702 149.803 38.361 147.907 38.2316V30.6068L145.457 30.5606L145.411 28.2963ZM158.079 28.2963H163.997V30.5144H160.853V31.9931L163.766 32.0393L163.812 34.2112H160.853V36.0597L164.025 36.1059L164.007 37.1687C163.997 37.7787 163.951 38.2593 163.896 38.3055C163.84 38.3425 162.527 38.361 158.125 38.324L158.079 28.2963ZM175.232 28.3425L176.869 33.287C177.766 36.0042 178.478 38.2685 178.441 38.3055C178.413 38.3425 177.738 38.361 175.519 38.324L175.399 37.9543C175.343 37.751 175.223 37.3443 175.01 36.5218L171.839 36.568L171.349 38.324L169.915 38.3517C169.129 38.361 168.454 38.3425 168.417 38.3055C168.371 38.2685 169.055 36.0504 169.915 33.3794C170.785 30.7085 171.515 28.4811 171.543 28.4164C171.571 28.324 171.996 28.2963 175.232 28.3425ZM172.902 32.4275L172.468 34.2112H174.456C174.243 33.5366 174.012 32.6678 173.808 31.8545C173.596 31.0412 173.411 30.3573 173.383 30.3295C173.355 30.3018 173.337 30.3665 173.337 30.4682C173.346 30.5698 173.143 31.4571 172.902 32.4275ZM183.24 28.2963H186.847L186.93 28.6013C186.967 28.7676 187.411 30.2741 187.901 31.9469C188.391 33.629 188.816 35.08 188.844 35.1817C188.881 35.3018 189.251 34.1558 189.815 32.178C190.314 30.422 190.767 28.8323 190.915 28.2963L194.568 28.3425L194.614 38.2778L194.402 38.3332C194.291 38.361 193.717 38.3702 192.071 38.324V34.8582C192.081 31.9562 192.062 31.4663 191.97 31.8083C191.905 32.0393 191.498 33.5181 191.054 35.0892C190.62 36.6697 190.222 38.0467 190.166 38.1669C190.083 38.361 190.037 38.3702 188.835 38.3702C187.929 38.3702 187.568 38.3425 187.522 38.2593C187.485 38.1946 187.041 36.6604 185.598 31.5403V38.324L183.24 38.3702V28.2963Z" fill="#012121"/>
</svg>
