<svg width="192" height="73" viewBox="0 0 192 73" fill="none" xmlns="http://www.w3.org/2000/svg">
<mask id="mask0_5568_60622" style="mask-type:luminance" maskUnits="userSpaceOnUse" x="18" y="17" width="156" height="40">
<path d="M173.686 17.1803H18.1758V56.6951H173.686V17.1803Z" fill="white"/>
</mask>
<g mask="url(#mask0_5568_60622)">
<mask id="mask1_5568_60622" style="mask-type:luminance" maskUnits="userSpaceOnUse" x="18" y="17" width="156" height="40">
<path d="M173.686 17.1803H18.1758V56.6951H173.686V17.1803Z" fill="white"/>
</mask>
<g mask="url(#mask1_5568_60622)">
<path d="M61.8379 37.1414V33.937C63.1723 34.5018 64.8907 35.0683 66.6695 35.0683C68.7164 35.0683 69.7524 34.422 69.7524 33.1828C69.7524 31.7292 68.3594 31.5664 65.5731 30.4634C63.6753 29.6825 61.8664 28.4699 61.8664 25.6691C61.8664 22.4098 64.5639 20.8749 68.3007 20.8749C70.2873 20.8749 71.9771 21.3051 72.9243 21.6291V24.7538C71.9755 24.3501 70.2856 23.8651 68.5973 23.8651C66.76 23.8651 65.8984 24.4847 65.8984 25.5611C65.8984 26.6924 66.9361 27.0429 68.8036 27.6892C71.2043 28.7939 73.9923 29.2773 73.9923 33.0482C73.9923 36.3075 71.1757 38.0834 67.4105 38.0834C65.0986 38.0834 63.2595 37.7062 61.8379 37.1414Z" fill="#012121"/>
<path d="M77.3926 21.0902H81.4546V27.7699H89.1026V21.0902H93.1646V37.8685H89.1026V30.7318H81.4546V37.8685H77.3926V21.0902Z" fill="#012121"/>
<path d="M97.6934 21.0902H101.754V37.8685H97.6934V21.0902Z" fill="#012121"/>
<path d="M106.232 21.0902H113.258C117.26 21.0902 119.424 22.8145 119.424 25.3728C119.424 27.446 118.031 28.7118 116.519 29.0889V29.1438C118.506 29.5474 119.988 30.8133 119.988 32.9944C119.988 36.0643 117.438 37.8685 113.436 37.8685H106.232V21.0902ZM112.725 27.9311C114.563 27.9311 115.334 27.1769 115.334 25.8845C115.334 24.7266 114.532 23.9724 112.754 23.9724H110.293V27.9311H112.724H112.725ZM112.814 34.9862C114.623 34.9862 115.6 34.2321 115.6 32.7519C115.6 31.2718 114.682 30.4628 112.843 30.4628H110.293V34.9878H112.812L112.814 34.9862Z" fill="#012121"/>
<path d="M123.365 31.6738V21.0902H127.426V31.5126C127.426 33.6938 128.552 35.041 131.013 35.041C133.474 35.041 134.601 33.6938 134.601 31.5126V21.0902H138.425V31.6738C138.425 36.1706 135.519 38.0827 131.013 38.0827C126.507 38.0827 123.365 36.1706 123.365 31.6738Z" fill="#012121"/>
<path d="M146.985 31.3515L140.85 21.0902H145.296L149.297 28.2533L153.151 21.0902H157.243L151.046 31.3515V37.8685H146.984L146.985 31.3515Z" fill="#012121"/>
<path d="M162.331 21.0902H166.867L173.626 37.8685H169.208L168.023 34.5293H160.82L159.575 37.8685H155.395L162.331 21.0902ZM166.957 31.5657L165.415 27.2566C165.059 26.2599 164.703 25.2914 164.496 24.509H164.437C164.201 25.2632 163.843 26.2865 163.489 27.2566L161.889 31.5657H166.957Z" fill="#012121"/>
<path d="M61.8379 44.1825H65.4657C67.5329 44.1825 68.6493 45.1526 68.6493 46.5946C68.6493 47.7624 67.9302 48.4751 67.1489 48.6877V48.7176C68.1749 48.9452 68.9411 49.6578 68.9411 50.8871C68.9411 52.6165 67.625 53.6332 65.558 53.6332H61.8379V44.1825ZM65.1909 48.0365C66.1414 48.0365 66.5387 47.6112 66.5387 46.8836C66.5387 46.2308 66.1246 45.8072 65.2076 45.8072H63.9369V48.0381H65.1926L65.1909 48.0365ZM65.2362 52.0101C66.1699 52.0101 66.6745 51.5849 66.6745 50.7509C66.6745 49.917 66.2001 49.4618 65.2512 49.4618H63.9352V52.0101H65.2378H65.2362Z" fill="#012121"/>
<path d="M72.7349 49.9619L69.5664 44.1825H71.8614L73.9285 48.2176L75.9185 44.1825H78.0307L74.8304 49.9619V53.6332H72.7332V49.9619H72.7349Z" fill="#012121"/>
<path d="M83.1699 44.1828H86.7357C88.7559 44.1828 89.9964 45.4421 89.9964 47.2926C89.9964 49.1432 88.7726 50.3409 86.6754 50.3409H85.2671V53.6318H83.1716V44.1812L83.1699 44.1828ZM86.3988 48.7943C87.4097 48.7943 87.869 48.203 87.869 47.2926C87.869 46.3823 87.4097 45.8224 86.3988 45.8224H85.2655V48.7943H86.3988Z" fill="#012121"/>
<path d="M91.6484 50.1441V44.1837H93.7456V50.0543C93.7456 51.282 94.3274 52.0412 95.5981 52.0412C96.869 52.0412 97.4506 51.282 97.4506 50.0543V44.1837H99.4255V50.1441C99.4255 52.6775 97.925 53.7556 95.5981 53.7556C93.2712 53.7556 91.6484 52.6775 91.6484 50.1441Z" fill="#012121"/>
<path d="M101.779 44.1828H103.877V51.9639H107.365V53.6318H101.779V44.1812V44.1828Z" fill="#012121"/>
<path d="M108.648 53.2246V51.4189C109.337 51.7378 110.224 52.0552 111.144 52.0552C112.201 52.0552 112.735 51.6913 112.735 50.9936C112.735 50.1747 112.016 50.0833 110.578 49.462C109.599 49.0217 108.663 48.339 108.663 46.7625C108.663 44.9268 110.056 44.063 111.984 44.063C113.01 44.063 113.882 44.3056 114.372 44.4883V46.2475C113.882 46.02 113.009 45.7458 112.137 45.7458C111.188 45.7458 110.744 46.0947 110.744 46.701C110.744 47.3372 111.28 47.5349 112.244 47.9004C113.485 48.5218 114.923 48.7942 114.923 50.9188C114.923 52.7545 113.468 53.7562 111.525 53.7562C110.331 53.7562 109.381 53.5436 108.646 53.2246H108.648Z" fill="#012121"/>
<path d="M116.73 44.1825H122.548V45.8968H118.828V47.9302H121.996V49.5067H118.828V51.9187H122.548V53.6332H116.73V44.1825Z" fill="#012121"/>
<path d="M124.549 44.1825H126.769L129.984 49.2941C130.276 49.7642 130.611 50.3854 130.81 50.8257H130.856C130.826 50.4003 130.81 49.809 130.81 49.3854V44.1825H132.678V53.6332H130.428L127.213 48.5216C126.923 48.0515 126.616 47.49 126.401 47.0647H126.371C126.386 47.4733 126.416 47.9585 126.416 48.4153V53.6332H124.549V44.1825Z" fill="#012121"/>
<path d="M37.6964 54.9081C33.8053 54.9081 30.0802 53.908 27.4448 52.0841C23.6477 49.456 21.1665 44.9375 20.4674 41.851C20.3836 41.4823 20.5965 41.1134 20.9586 40.9971C21.3207 40.8809 21.713 41.0569 21.8639 41.4025C22.4792 42.8162 25.0944 47.4277 32.9167 47.4277C41.7382 47.4277 45.7551 43.5105 45.7551 39.8725C45.7551 35.6963 41.1817 35.4371 40.2663 35.4287C34.957 35.3689 32.9502 38.9472 32.4657 40.0437L31.1146 39.4572C31.6863 38.1631 34.0198 33.9669 40.1405 33.9669C40.1876 33.9669 40.2328 33.9669 40.2814 33.9669C43.4868 34.0001 47.2303 35.5666 47.2303 39.8725C47.2303 44.1783 42.7508 48.8895 32.9167 48.8895C28.7575 48.8895 25.9025 47.6868 23.9796 46.2532C25.0927 48.0091 26.568 49.6969 28.2897 50.8896C30.8933 52.6921 34.8631 53.6389 38.905 53.4197C43.3946 53.1771 47.4046 51.559 50.1926 48.8613C56.9654 42.3128 53.7433 34.0333 53.7065 33.9537L55.0459 33.344C55.916 35.2211 57.8137 43.5338 51.2219 49.9078C47.6545 53.3566 42.5464 54.9114 37.6964 54.9114V54.9081Z" fill="#012121"/>
<path d="M32.9016 48.9149C24.4389 48.9149 21.3827 43.938 20.5646 42.1621L20.5294 42.172C20.4573 41.9811 20.407 41.8316 20.3768 41.7352C19.7029 40.2451 17.0189 33.0487 24.1555 25.9105C31.4045 18.6594 42.0785 19.6278 47.3426 22.633C52.1624 25.3839 53.9227 29.6516 54.9168 33.062C54.9353 33.1268 55.0057 33.3145 55.0324 33.376L53.6862 33.9707C51.8925 29.9887 47.9176 27.6415 42.4926 27.3608C36.7859 27.0667 33.6561 28.8193 32.0366 30.3426C30.2075 32.0636 29.723 33.9641 29.723 34.7299V34.7946C29.7096 36.8762 30.5294 38.3712 32.0936 39.1172L32.1456 39.1437C32.1456 39.1437 33.2386 39.7434 35.1615 39.7068C40.7693 39.6055 43.0139 35.2066 43.0357 35.1617L43.3409 34.4707L44.0199 34.8146C46.1087 35.8014 47.2135 37.5589 47.2135 39.8979C47.2135 44.2403 42.734 48.9149 32.8999 48.9149H32.9016ZM21.8487 41.4295C22.464 42.8432 25.0793 47.4548 32.9016 47.4548C41.7231 47.4548 45.74 43.5376 45.74 39.8996C45.74 38.3497 45.1599 37.2168 43.9679 36.4559C43.0073 37.8912 40.2998 41.079 35.1884 41.1704C32.9855 41.207 31.6611 40.5475 31.4347 40.4261C29.3643 39.4295 28.2327 37.4277 28.2478 34.788V34.7332C28.2478 33.3195 29.1061 31.0885 31.0207 29.2861C32.8496 27.5668 36.3384 25.5833 42.5681 25.9055C46.2461 26.0949 49.3929 27.2179 51.7282 29.1084C50.1339 26.2361 48.2277 24.8274 46.6049 23.9021C42.791 21.7243 32.5378 19.6029 25.2017 26.9421C18.6719 33.4723 21.1715 39.9461 21.7381 41.177L21.7733 41.2701C21.785 41.31 21.8035 41.3664 21.8286 41.4378L21.8487 41.4312V41.4295Z" fill="#012121"/>
</g>
</g>
</svg>
