<svg width="130" height="72" viewBox="0 0 130 72" fill="none" xmlns="http://www.w3.org/2000/svg">
<path d="M66.9414 2.29688C91.9312 2.29706 112.191 17.1071 112.191 35.377C112.191 53.6469 91.9409 68.457 66.9609 68.457C58.851 68.457 51.2509 66.8872 44.6709 64.1572L24.0312 69.6572C22.9013 69.8772 22.5207 69.2867 23.1807 68.3467L31.1611 55.5967C25.2412 50.0067 21.711 42.9969 21.7109 35.377C21.7109 17.107 41.9614 2.29688 66.9414 2.29688ZM96.6211 41.7568C95.8111 41.7568 95.1105 42.0665 94.5205 42.6865C93.9305 43.3065 93.6607 44.0773 93.7207 44.9873V44.9971C93.7607 45.6869 94.0409 46.2967 94.5508 46.8066C95.0508 47.3166 95.6909 47.5771 96.4609 47.5771C97.2709 47.5771 97.9811 47.2671 98.5811 46.6572C99.1809 46.0473 99.4512 45.3071 99.4014 44.4473C99.3614 43.7373 99.0708 43.1064 98.5508 42.5664C98.0309 42.0266 97.3909 41.7569 96.6211 41.7568ZM49.501 32.1172L49.3809 33.3965L51.7305 33.7969L50.5107 41.4971C50.4408 42.057 50.3705 42.6173 50.3105 43.1572C50.2506 43.7071 50.2308 44.2269 50.2607 44.7168C50.3007 45.2967 50.461 45.8066 50.751 46.2266C51.041 46.6566 51.4113 46.9773 51.8613 47.1973C52.3112 47.4171 52.7915 47.5371 53.3213 47.5371C54.1012 47.5371 54.9013 47.3467 55.7012 46.9668C56.5011 46.5868 57.3114 46.0363 58.1113 45.3164C58.4012 45.0565 58.6909 44.7666 58.9707 44.4668C58.8407 45.2868 58.8511 46.9367 60.6611 47.3467C60.8011 47.3767 60.9514 47.4068 61.1113 47.4268C61.1311 47.4268 61.1414 47.4266 61.1514 47.4365H61.3408C61.4008 47.4365 61.4508 47.4472 61.5107 47.4473H61.6006C64.5455 47.4473 66.5006 45.6154 66.5205 45.5967L67.0312 42.5869C66.3713 43.2269 65.2505 44.2066 64.5605 44.2666L64.5508 44.2871C64.1009 44.3269 63.9605 43.7264 64.0205 42.8965V42.8164C64.0206 42.7565 64.0408 42.6668 64.0508 42.5771C64.1708 41.5871 64.4307 39.8667 64.4307 39.8467C64.6107 38.5867 64.7812 37.4268 64.7812 37.4268L65.8008 30.7871L65.1514 30.2471L60.8711 31.6572C60.7711 32.5071 60.6808 33.3469 60.5908 34.1768C60.3308 35.9868 59.4512 40.2072 58.7812 41.3672C57.9913 42.727 56.9911 44.0864 56.2012 44.0967C55.9112 44.0967 55.6509 43.9869 55.4209 43.7969C55.1809 43.5969 55.0407 43.2468 55.0107 42.7568C55.0007 42.5368 55.0112 42.3064 55.0312 42.0664C55.0612 41.8265 55.0909 41.5765 55.1309 41.3066C55.1708 41.0368 55.2108 40.7669 55.2607 40.4971L56.8613 30.7764L56.2412 30.2373L49.501 32.1172ZM67.4912 32.1367L67.3711 33.377L69.6709 33.7471L67.751 47.0264H72.4805C72.5605 46.4965 72.6512 45.9068 72.7412 45.3369C73.1312 43.5471 73.561 39.9875 74.2109 38.4873C75.0509 36.5373 76.3711 34.4572 77.1611 34.3672C78.2509 34.2373 78.4413 35.2566 78.4014 36.1465C78.3714 36.3765 78.3408 36.6172 78.3008 36.8672L78.2207 37.417L76.8213 47.0264H81.5205C81.7105 45.7965 81.9505 44.2869 82.0605 43.417C82.0805 43.2471 82.1109 43.0771 82.1309 42.9072C82.4109 41.2672 82.7314 39.4864 83.1514 38.5264C83.9912 36.5768 85.3106 34.4979 86.1006 34.4072C87.3406 34.2572 87.4113 35.5969 87.3213 36.5469C87.2913 36.7669 87.2512 37.0071 87.2012 37.2471L86.2812 42.2871C86.2013 42.777 86.121 43.297 86.041 43.8369C85.951 44.3769 85.9309 44.8868 85.9609 45.3867C86.0009 46.0567 86.2512 46.5868 86.7012 46.9668C87.1511 47.3467 87.7508 47.537 88.5205 47.5371C89.4805 47.5371 90.3308 47.3265 91.0908 46.8965C91.6308 46.5965 92.1213 46.2271 92.5713 45.7871C92.5113 45.5571 92.4809 45.3269 92.4609 45.0869C92.4309 44.557 92.4806 44.0569 92.6006 43.5869L92.5908 43.6172C92.4609 43.7571 92.3406 43.8971 92.2207 43.9971C91.8509 44.3368 91.5211 44.497 91.2412 44.4971C91.0713 44.4971 90.9308 44.4371 90.8408 44.3271C90.7509 44.2172 90.6907 44.047 90.6807 43.8271C90.6707 43.6472 90.6807 43.4369 90.7207 43.207C90.7607 42.967 90.8109 42.6967 90.8809 42.3867L92.0107 36.0264C92.1107 35.4866 92.1807 34.9769 92.2207 34.4971C92.2707 34.0171 92.271 33.5467 92.251 33.0967C92.191 32.137 91.9011 31.417 91.4014 30.957C90.8914 30.497 90.2805 30.2666 89.5605 30.2666C88.8407 30.2667 88.051 30.4468 87.2412 30.8066C86.4414 31.1666 85.6412 31.6666 84.8613 32.3164C84.3314 32.7563 83.8012 33.2668 83.2812 33.8467C83.3012 33.6168 83.3012 33.3768 83.2812 33.0869C83.2213 32.1272 82.9411 31.4073 82.4414 30.9473C81.9414 30.4873 81.341 30.2569 80.6211 30.2568C79.8611 30.2568 79.0705 30.4369 78.2705 30.7969C77.4706 31.1569 76.6605 31.6567 75.8506 32.3066C75.3307 32.7266 74.8212 33.1969 74.3213 33.7168L74.7109 30.7568L74.0605 30.2168L67.4912 32.1367ZM33.3311 26.7764L35.4707 27.0068L39.7607 38.2168L38.9307 44.9365L36.0713 45.2471L35.8613 47.0664H46.5312L46.7705 45.2471L43.9111 44.9365C43.9611 44.4766 44.0108 44.0263 44.0508 43.5664C44.1708 42.3965 44.3007 41.2363 44.4307 40.0664L44.4512 40.0566C44.5412 39.2667 44.6405 38.4667 44.7305 37.6768L50.8213 27.1973L53.3906 26.7764L53.6309 24.957H46.3613L46.1211 26.7764L48.7607 27.167L43.9307 35.7568L40.9414 27.0869L41.7412 26.9873L43.4209 26.7764L43.6611 24.957H33.5713L33.3311 26.7764ZM99.2812 24.7471C98.4512 24.7471 97.7008 24.967 97.0908 25.417C96.4809 25.867 96.0709 26.6468 95.8809 27.7666C95.8209 28.1666 95.781 28.707 95.751 29.377C95.731 30.0469 95.7307 30.8971 95.7607 31.917C95.7907 32.937 95.8612 34.1871 95.9512 35.667L96.1914 40.4873C96.3311 40.4773 96.4609 40.4668 96.6006 40.4668C96.9805 40.4668 97.3307 40.537 97.6807 40.627C98.5906 38.2571 99.3306 35.8071 99.8906 34.2871C100.461 32.7672 100.891 31.5572 101.191 30.6572C101.491 29.7574 101.69 29.0571 101.771 28.5371C101.861 28.0171 101.891 27.5866 101.871 27.2266C101.821 26.4669 101.581 25.8571 101.151 25.4072L101.171 25.417C100.741 24.967 100.111 24.7471 99.2812 24.7471Z" fill="#012121"/>
</svg>
