<svg width="191" height="72" viewBox="0 0 191 72" fill="none" xmlns="http://www.w3.org/2000/svg">
<path d="M88.9344 31.3341C88.9344 25.9315 85.4145 21.8386 78.1292 21.8386H63.4767V50.0796H70.3527V27.978H78.1292C80.9942 27.978 82.0584 29.6151 82.0584 31.4979C82.0584 33.4624 80.9942 35.0177 78.1292 35.0177H71.4987L80.9942 50.0796H88.8526C88.8526 50.0796 82.3858 39.9292 82.4677 39.9292C86.3968 39.0288 88.9344 36.2456 88.9344 31.3341ZM52.0166 21.8386H58.8926V50.0796H52.0166V21.8386ZM29.9968 21.8386L15.5898 50.1614H23.3663L25.6584 45.4137H37.2822L34.4171 39.4381H28.6052L32.8618 30.7611H32.9437L42.6029 50.1614H50.5431L36.1362 21.8386H29.9968ZM114.065 35.427C116.275 34.1992 117.421 32.3164 117.421 29.4514C117.421 24.8674 113.983 21.8386 108.335 21.8386H92.2087V50.0796H108.908C114.72 50.0796 118.567 46.969 118.567 42.1394C118.649 38.8651 116.766 36.4093 114.065 35.427ZM99.0848 27.8142H108.253C109.644 27.8142 110.709 28.8784 110.709 30.27C110.709 31.6616 109.644 32.7257 108.253 32.7257H99.0848V27.8142ZM108.498 44.1858H99.0848V38.4558H108.498C110.136 38.4558 111.445 39.6836 111.445 41.3208C111.445 42.9579 110.136 44.1858 108.498 44.1858ZM140.341 37.6372C140.341 41.8938 138.377 44.2677 134.447 44.2677C130.6 44.2677 128.635 41.8938 128.635 37.6372V21.8386H121.596V37.146C121.596 45.9048 126.18 50.7344 134.529 50.7344C142.879 50.7344 147.463 45.9048 147.463 37.146V21.8386H140.423V37.6372H140.341ZM165.799 33.135C159.25 31.5797 157.859 31.416 157.859 29.5333C157.859 28.0598 159.496 27.405 162.279 27.405C165.963 27.405 169.81 28.3054 172.02 29.697L174.23 23.9669C171.283 22.3298 167.19 21.2656 162.279 21.2656C154.994 21.2656 150.901 24.8674 150.901 29.7788C150.901 35.0177 153.93 37.146 160.969 38.6195C166.454 39.8473 167.6 40.5841 167.6 42.1394C167.6 43.7765 166.126 44.5132 163.098 44.5132C158.759 44.5132 154.912 43.4491 151.801 41.7301L149.673 47.7876C153.111 49.5884 158.186 50.7344 163.261 50.7344C170.383 50.7344 174.64 47.4601 174.64 41.8938C174.721 37.3916 171.856 34.5266 165.799 33.135Z" fill="#012121"/>
</svg>
