<svg width="170" height="195" viewBox="0 0 170 195" fill="none" xmlns="http://www.w3.org/2000/svg">
<path d="M211.694 99.1096L68.9427 181.527" stroke="#005B5B" stroke-width="0.56951" stroke-linejoin="round"/>
<path d="M181.526 211.692L99.1096 68.9427" stroke="#005B5B" stroke-width="0.56951" stroke-linejoin="round"/>
<path d="M170.735 192.995L192.999 109.902L109.906 87.6368L87.6413 170.73L170.735 192.995Z" stroke="#005B5B" stroke-width="0.56951" stroke-linejoin="round"/>
<path d="M0.284777 102.796L87.642 170.731L102.797 280.352" stroke="#005B5B" stroke-width="0.56951" stroke-linejoin="round"/>
<path d="M280.472 177.771L170.735 192.995L102.796 280.352L177.84 0.284743L193.001 109.902L280.472 177.771ZM280.472 177.771L0.284751 102.796L109.907 87.6367L177.84 0.284743" stroke="#005B5B" stroke-width="0.56951" stroke-linejoin="round"/>
<path d="M177.84 0.28479L130.806 93.2366L122.261 109.372" stroke="#005B5B" stroke-width="0.56951" stroke-linejoin="round"/>
<path d="M104.013 108.705L122.26 109.371" stroke="#005B5B" stroke-width="0.56951" stroke-linejoin="round"/>
<path d="M176.628 171.927L158.382 171.26" stroke="#005B5B" stroke-width="0.56951" stroke-linejoin="round"/>
<path d="M93.0735 149.537L109.208 158.085" stroke="#005B5B" stroke-width="0.56951" stroke-linejoin="round"/>
<path d="M177.84 0.28479L172.095 104.3L171.429 122.548" stroke="#005B5B" stroke-width="0.56951" stroke-linejoin="round"/>
<path d="M102.803 280.348L149.835 187.396L158.382 171.26" stroke="#005B5B" stroke-width="0.56951" stroke-linejoin="round"/>
<path d="M102.803 280.348L108.546 176.332L109.212 158.085" stroke="#005B5B" stroke-width="0.56951" stroke-linejoin="round"/>
<path d="M177.84 0.28479L71.5936 92.9353L104.013 108.705" stroke="#005B5B" stroke-width="0.56951" stroke-linejoin="round"/>
<path d="M177.84 0.28479L223.527 133.644L187.564 131.093" stroke="#005B5B" stroke-width="0.56951" stroke-linejoin="round"/>
<path d="M102.798 280.347L57.1108 146.986L93.0735 149.537" stroke="#005B5B" stroke-width="0.56951" stroke-linejoin="round"/>
<path d="M102.798 280.347L209.042 187.696L176.623 171.925" stroke="#005B5B" stroke-width="0.56951" stroke-linejoin="round"/>
<path d="M82.1792 98.0842L68.5742 147.801" stroke="#005B5B" stroke-width="0.56951" stroke-linejoin="round"/>
</svg>
