<svg width="180" height="164" viewBox="0 0 180 164" fill="none" xmlns="http://www.w3.org/2000/svg">
<g clip-path="url(#clip0_2001_1381)">
<path d="M187.582 154.335L209.743 134.713L201.967 107.534L172.033 99.9767L149.872 119.599L157.646 146.78L187.582 154.335Z" fill="#B94B01"/>
<path d="M139.926 162.44L164.004 157.02L171.001 134.986L146.921 140.407L139.926 162.44Z" fill="#F0BE65"/>
<path d="M165.891 78.2722L183.28 94.2901L176.537 116.377L159.147 100.359L165.891 78.2722Z" fill="#F0BE65"/>
<path d="M126.038 113.561L143.427 129.579L168.012 123.926L150.623 107.908L126.038 113.561Z" fill="#F0BE65"/>
<path d="M219.701 91.8625L195.623 97.2824L188.626 119.316L212.706 113.895L219.701 91.8625Z" fill="#F0BE65"/>
<path d="M193.796 175.977L176.406 159.959L183.15 137.872L200.539 153.889L193.796 175.977Z" fill="#F0BE65"/>
<path d="M155.268 138.524L157.632 146.792L166.541 149.041L171.006 134.981L155.268 138.524Z" fill="#AD3805"/>
<path d="M180.855 102.204L172.056 99.9829L165.261 106L176.527 116.377L180.855 102.204Z" fill="#AD3805"/>
<path d="M156.746 113.54L149.879 119.621L152.151 127.565L168.012 123.918L156.746 113.54Z" fill="#AD3805"/>
<path d="M194.425 148.249L183.159 137.871L178.808 152.121L187.559 154.329L194.425 148.249Z" fill="#AD3805"/>
<path d="M186.258 178.914L169.51 193.617L161.964 186.734L150.759 189.364L144.675 168.407L168.95 162.301L186.258 178.914Z" fill="#B94B01"/>
<path d="M135.598 185.241L119.176 181.147L114.934 166.602L131.356 170.696L135.598 185.241Z" fill="#DE8D2A"/>
<path d="M214.952 85.9058L190.657 92.0182L173.36 75.4195L190.107 60.7008L197.65 67.5826L208.852 64.9521L214.952 85.9058Z" fill="#B94B01"/>
<path d="M140.687 136.256L133.443 158.074L110.94 152.299L113.753 142.971L105.61 135.516L122.655 120.312L140.687 136.256Z" fill="#B94B01"/>
<path d="M110.928 152.315L109.368 157.488L100.909 149.742L110.928 152.315Z" fill="#DE8D2A"/>
<path d="M113.748 142.987L110.936 152.315L100.915 149.742L97.4042 146.529L98.9227 141.491L105.605 135.532L113.748 142.987Z" fill="#9E2D00"/>
<path d="M100.913 149.75L92.1803 147.51L98.9204 141.497L97.4016 146.537L100.913 149.75Z" fill="#B94B01"/>
<path d="M157.798 79.0678L151.554 101.121L126.995 106.326L121.24 85.8442L131.6 83.3961L134.662 73.3084L157.798 79.0678Z" fill="#B94B01"/>
<path d="M105.616 135.536L98.9313 141.497L101.786 132.03L105.616 135.536Z" fill="#DE8D2A"/>
<path d="M113.848 111.04L102.022 121.615L97.7081 106.721L109.532 96.1481L113.848 111.04Z" fill="#DE8D2A"/>
<path d="M174.412 56.7098L162.295 67.504L146.225 63.5226L158.341 52.7283L174.412 56.7098Z" fill="#DE8D2A"/>
<path d="M134.677 73.3227L131.615 83.4098L121.256 85.8578L118.694 76.7332L120.013 72.3866L125.605 71.0642L134.677 73.3227Z" fill="#9E2D00"/>
<path d="M118.688 76.7399L121.251 85.8645L115.506 87.2219L118.688 76.7399Z" fill="#DE8D2A"/>
<path d="M136.124 68.5765L134.685 73.3179L125.612 71.0595L136.124 68.5765Z" fill="#DE8D2A"/>
<path d="M125.613 71.0706L120.021 72.393L118.701 76.7396L116.469 68.7959L125.613 71.0706Z" fill="#B94B01"/>
</g>
<defs>
<clipPath id="clip0_2001_1381">
<rect width="180" height="165" fill="white"/>
</clipPath>
</defs>
</svg>
