<svg width="180" height="164" viewBox="0 0 180 164" fill="none" xmlns="http://www.w3.org/2000/svg">
<g clip-path="url(#clip0_2001_1380)">
<path d="M177.564 192.493L141.373 198.548L133.173 184.043L118.202 189.714L93.6551 161.344L101.922 147.496L89.0086 137.239L100.65 102.811L117.116 103.467L119.174 87.5396L155.363 81.4849L163.562 95.9897L178.536 90.3182L203.083 118.689L194.816 132.537L207.73 142.794L196.088 177.221L179.622 176.565L177.564 192.493ZM138.818 168.17L158.011 186.929L168.475 163.209L193.785 156.652L178.013 134.999L184.13 109.682L157.897 111.749L138.702 92.991L128.24 116.711L102.928 123.268L118.702 144.922L112.582 170.238L138.818 168.17Z" fill="#1F7A78"/>
<path d="M158.015 186.929L138.822 168.171L112.587 170.238L118.707 144.923L102.932 123.268L128.245 116.711L138.706 92.9914L157.901 111.749L184.134 109.682L178.017 135L193.789 156.653L168.479 163.209L158.015 186.929Z" fill="#005B5B"/>
<path d="M84.735 190.482L58.7286 181.43L63.7325 165.699L73.4 168.545L84.735 190.482Z" fill="#9EB277"/>
<path d="M86.9782 172.539L73.4124 168.548L66.8674 155.884L63.7449 165.703L49.7634 161.589L59.9239 154.135L47.8461 150.361L58.934 142.44L66.6924 151.101L67.2964 136.466L78.2173 128.663L89.0149 137.239L84.4611 150.711L93.6613 161.344L86.9782 172.539Z" fill="#7E5C8E"/>
<path d="M73.408 168.549L63.7405 165.703L66.863 155.885L73.408 168.549Z" fill="#4C383D"/>
<path d="M93.6582 161.345L84.458 150.712L89.0117 137.24L101.925 147.497L93.6582 161.345Z" fill="#0C2A44"/>
<path d="M59.9195 154.135L49.759 161.589L37.2682 157.914L47.8417 150.361L59.9195 154.135Z" fill="#7E5C8E"/>
<path d="M66.6841 151.101L58.9258 142.44L67.2881 136.466L66.6841 151.101Z" fill="#4C383D"/>
<path d="M58.9264 142.438L48.2248 130.488L68.2634 112.886L67.2888 136.464L58.9264 142.438Z" fill="#9EB277"/>
<path d="M178.54 90.3188L163.566 95.9903L155.367 81.4856L168.933 79.216L178.54 90.3188Z" fill="#0C2A44"/>
<path d="M117.115 103.467L100.649 102.81L105.012 89.9083L119.173 87.5389L117.115 103.467Z" fill="#0C2A44"/>
<path d="M70.5222 108.746L65.4482 86.0781L73.4268 87.3796L69.9215 81.0983L80.9232 79.0553L83.5949 88.7168L70.5222 108.746Z" fill="#9EB277"/>
<path d="M191.054 85.58L178.539 90.3208L168.931 79.218L155.366 81.4876L148.74 69.7634L158.558 60.1905L172.647 61.2926L165.554 53.372L184.71 34.698L188.067 61.618L176.896 63.692L189.362 72.0078L191.054 85.58Z" fill="#7E5C8E"/>
<path d="M100.646 102.811L87.3349 102.282L83.5873 88.7182L91.1311 77.1585L80.9156 79.0566L73.6023 52.5936L98.6192 64.0343L95.2046 74.7727L108.278 68.4526L120.891 74.222L119.17 87.5396L105.009 89.9089L100.646 102.811Z" fill="#7E5C8E"/>
<path d="M189.367 72.0047L176.9 63.689L188.071 61.615L189.367 72.0047Z" fill="#4C383D"/>
<path d="M83.588 88.7209L80.9163 79.0593L91.1318 77.1611L83.588 88.7209Z" fill="#4C383D"/>
<path d="M73.4258 87.3822L65.4472 86.0807L64.554 82.0973L69.9205 81.1009L73.4258 87.3822Z" fill="#9EB277"/>
<path d="M108.285 68.4525L95.2115 74.7726L98.626 64.0342L108.285 68.4525Z" fill="#4C383D"/>
<path d="M172.649 61.2909L158.561 60.1888L165.556 53.3704L172.649 61.2909Z" fill="#4C383D"/>
<path d="M165.543 53.37L158.548 60.1884L134.138 58.2808L154.176 40.6788L165.543 53.37Z" fill="#9EB277"/>
<path d="M129.336 58.2736L108.277 68.4516L98.6183 64.0333L103.327 49.2224L129.336 58.2736Z" fill="#9EB277"/>
</g>
<defs>
<clipPath id="clip0_2001_1380">
<rect width="180" height="164" fill="white"/>
</clipPath>
</defs>
</svg>
