<svg width="206" height="219" viewBox="0 0 206 219" fill="none" xmlns="http://www.w3.org/2000/svg">
<path d="M2.77085e-07 144.973H289.947" stroke="#61396B" stroke-width="0.56951" stroke-linejoin="round"/>
<path d="M144.973 0V289.947" stroke="#61396B" stroke-width="0.56951" stroke-linejoin="round"/>
<path d="M217.46 217.46L72.4868 72.4867" stroke="#61396B" stroke-width="0.56951" stroke-linejoin="round"/>
<path d="M72.4868 217.46L217.46 72.4867" stroke="#61396B" stroke-width="0.56951" stroke-linejoin="round"/>
<path d="M151.099 151.1V138.848H138.847V151.1H151.099Z" stroke="#61396B" stroke-width="0.56951" stroke-linejoin="round"/>
<path d="M151.099 138.848L188.2 144.973L166.587 123.36" stroke="#61396B" stroke-width="0.56951" stroke-linejoin="round"/>
<path d="M217.46 72.4867L188.2 144.973L183.794 106.153L201.336 112.432L210.935 118.888" stroke="#61396B" stroke-width="0.56951" stroke-linejoin="round"/>
<path d="M217.46 72.4867L228.388 144.975" stroke="#61396B" stroke-width="0.56951" stroke-linejoin="round"/>
<path d="M188.2 144.973L222.462 105.664" stroke="#61396B" stroke-width="0.56951" stroke-linejoin="round"/>
<path d="M209.775 91.5253L210.935 118.888L241.095 144.975" stroke="#61396B" stroke-width="0.56951" stroke-linejoin="round"/>
<path d="M138.848 138.848L144.973 101.747L123.36 123.36" stroke="#61396B" stroke-width="0.56951" stroke-linejoin="round"/>
<path d="M72.4868 72.4868L144.973 101.747L106.153 106.153L112.431 88.6124L118.886 79.0106" stroke="#61396B" stroke-width="0.56951" stroke-linejoin="round"/>
<path d="M72.4867 72.4867L144.972 61.5587" stroke="#61396B" stroke-width="0.56951" stroke-linejoin="round"/>
<path d="M144.974 101.747L105.662 67.4852" stroke="#61396B" stroke-width="0.56951" stroke-linejoin="round"/>
<path d="M91.5239 80.1731L118.886 79.0106L144.972 48.8521" stroke="#61396B" stroke-width="0.56951" stroke-linejoin="round"/>
<path d="M138.847 151.1L101.746 144.975L123.359 166.588" stroke="#61396B" stroke-width="0.56951" stroke-linejoin="round"/>
<path d="M72.4868 217.46L101.746 144.975L106.151 183.796L88.6097 177.516L79.0105 171.061" stroke="#61396B" stroke-width="0.56951" stroke-linejoin="round"/>
<path d="M72.4867 217.46L61.5573 144.974" stroke="#61396B" stroke-width="0.56951" stroke-linejoin="round"/>
<path d="M101.746 144.975L67.4852 184.285" stroke="#61396B" stroke-width="0.56951" stroke-linejoin="round"/>
<path d="M80.1703 198.423L79.0105 171.061L48.8507 144.973" stroke="#61396B" stroke-width="0.56951" stroke-linejoin="round"/>
<path d="M151.1 151.1L144.972 188.201L166.587 166.587" stroke="#61396B" stroke-width="0.56951" stroke-linejoin="round"/>
<path d="M217.46 217.46L144.972 188.201L183.796 183.796L177.515 201.336L171.059 210.938" stroke="#61396B" stroke-width="0.56951" stroke-linejoin="round"/>
<path d="M217.46 217.46L144.973 228.39" stroke="#61396B" stroke-width="0.56951" stroke-linejoin="round"/>
<path d="M144.972 188.201L184.284 222.463" stroke="#61396B" stroke-width="0.56951" stroke-linejoin="round"/>
<path d="M198.423 209.777L171.059 210.938L144.973 241.096" stroke="#61396B" stroke-width="0.56951" stroke-linejoin="round"/>
<path d="M151.099 138.848L144.973 101.747L166.587 123.36" stroke="#61396B" stroke-width="0.56951" stroke-linejoin="round"/>
<path d="M217.46 72.4868L144.974 101.747L183.794 106.153L177.515 88.6111L171.059 79.012" stroke="#61396B" stroke-width="0.56951" stroke-linejoin="round"/>
<path d="M217.46 72.4868L144.972 61.5587" stroke="#61396B" stroke-width="0.56951" stroke-linejoin="round"/>
<path d="M144.973 101.747L184.284 67.4865" stroke="#61396B" stroke-width="0.56951" stroke-linejoin="round"/>
<path d="M144.972 48.8521L171.059 79.0119L198.422 80.1717" stroke="#61396B" stroke-width="0.56951" stroke-linejoin="round"/>
<path d="M151.1 151.1L188.2 144.973L166.587 166.587" stroke="#61396B" stroke-width="0.56951" stroke-linejoin="round"/>
<path d="M217.46 217.46L188.2 144.974L183.796 183.796L201.335 177.516L210.936 171.061" stroke="#61396B" stroke-width="0.56951" stroke-linejoin="round"/>
<path d="M217.46 217.46L228.388 144.975" stroke="#61396B" stroke-width="0.56951" stroke-linejoin="round"/>
<path d="M188.2 144.974L222.462 184.285" stroke="#61396B" stroke-width="0.56951" stroke-linejoin="round"/>
<path d="M241.095 144.975L210.936 171.061L209.775 198.424" stroke="#61396B" stroke-width="0.56951" stroke-linejoin="round"/>
<path d="M138.847 151.1L144.972 188.201L123.359 166.588" stroke="#61396B" stroke-width="0.56951" stroke-linejoin="round"/>
<path d="M72.4867 217.46L144.972 188.201L106.151 183.796L112.431 201.337L118.886 210.936" stroke="#61396B" stroke-width="0.56951" stroke-linejoin="round"/>
<path d="M72.4867 217.46L144.973 228.39" stroke="#61396B" stroke-width="0.56951" stroke-linejoin="round"/>
<path d="M144.972 188.201L105.663 222.463" stroke="#61396B" stroke-width="0.56951" stroke-linejoin="round"/>
<path d="M144.973 241.096L118.886 210.937L91.5239 209.777" stroke="#61396B" stroke-width="0.56951" stroke-linejoin="round"/>
<path d="M138.848 138.848L101.746 144.975L123.36 123.36" stroke="#61396B" stroke-width="0.56951" stroke-linejoin="round"/>
<path d="M72.4868 72.4867L101.746 144.975L106.153 106.153L88.611 112.432L79.0092 118.888" stroke="#61396B" stroke-width="0.56951" stroke-linejoin="round"/>
<path d="M72.4868 72.4867L61.5573 144.973" stroke="#61396B" stroke-width="0.56951" stroke-linejoin="round"/>
<path d="M101.746 144.975L67.4838 105.663" stroke="#61396B" stroke-width="0.56951" stroke-linejoin="round"/>
<path d="M48.8507 144.974L79.0092 118.888L80.1717 91.5253" stroke="#61396B" stroke-width="0.56951" stroke-linejoin="round"/>
</svg>
