<svg width="175" height="209" viewBox="0 0 175 209" fill="none" xmlns="http://www.w3.org/2000/svg">
<path d="M72.4878 72.7702V217.745H217.462V72.7702H72.4878Z" stroke="#7E5C8E" stroke-width="0.56951" stroke-linejoin="round"/>
<path d="M0.00150372 145.26H289.948" stroke="#7E5C8E" stroke-width="0.56951" stroke-linejoin="round"/>
<path d="M144.975 0.286011V290.233" stroke="#7E5C8E" stroke-width="0.56951" stroke-linejoin="round"/>
<path d="M145.285 144.949L102.868 248.126L144.975 206.02" stroke="#7E5C8E" stroke-width="0.56951" stroke-linejoin="round"/>
<path d="M144.664 144.948L187.082 248.126" stroke="#7E5C8E" stroke-width="0.56951" stroke-linejoin="round"/>
<path d="M145.285 144.949L42.1069 187.365L84.2136 145.258" stroke="#7E5C8E" stroke-width="0.56951" stroke-linejoin="round"/>
<path d="M145.285 145.57L42.1082 103.153" stroke="#7E5C8E" stroke-width="0.56951" stroke-linejoin="round"/>
<path d="M72.4882 115.642L42.872 145.258" stroke="#7E5C8E" stroke-width="0.56951" stroke-linejoin="round"/>
<path d="M144.959 107.846L180.049 72.7554" stroke="#7E5C8E" stroke-width="0.56951" stroke-linejoin="round"/>
<path d="M126.833 18.4252L144.974 36.5657L163.114 18.4252L144.974 0.284712L126.833 18.4252Z" stroke="#7E5C8E" stroke-width="0.56951" stroke-linejoin="round"/>
<path d="M108.809 36.5682V72.734H144.975V36.5682H108.809Z" stroke="#7E5C8E" stroke-width="0.56951" stroke-linejoin="round"/>
<path d="M108.809 72.7325L144.975 36.567L181.374 36.567" stroke="#7E5C8E" stroke-width="0.56951" stroke-linejoin="round"/>
</svg>
