<svg width="206" height="188" viewBox="0 0 206 188" fill="none" xmlns="http://www.w3.org/2000/svg">
<path d="M290.487 145.153L0.539613 145.153" stroke="#005B5B" stroke-width="0.56951" stroke-linejoin="round"/>
<path d="M145.513 0.17981L145.513 290.127" stroke="#005B5B" stroke-width="0.56951" stroke-linejoin="round"/>
<path d="M217.902 72.7646L72.9283 217.738" stroke="#005B5B" stroke-width="0.56951" stroke-linejoin="round"/>
<path d="M199.779 54.6416L54.8054 199.615" stroke="#005B5B" stroke-width="0.56951" stroke-linejoin="round"/>
<path d="M236.026 90.8889L91.0527 235.862" stroke="#005B5B" stroke-width="0.56951" stroke-linejoin="round"/>
<path d="M236.025 199.615L91.0514 54.6416" stroke="#005B5B" stroke-width="0.56951" stroke-linejoin="round"/>
<path d="M199.777 235.862L54.804 90.8889" stroke="#005B5B" stroke-width="0.56951" stroke-linejoin="round"/>
<path d="M217.902 217.738L72.9284 72.7646" stroke="#005B5B" stroke-width="0.56951" stroke-linejoin="round"/>
<path d="M163.458 163.457V127.21H127.21V163.457H163.458Z" stroke="#005B5B" stroke-width="0.56951" stroke-linejoin="round"/>
<path d="M217.821 217.821V181.574H181.574V217.821H217.821Z" stroke="#005B5B" stroke-width="0.56951" stroke-linejoin="round"/>
<path d="M109.012 109.011V72.7635H72.7646V109.011H109.012Z" stroke="#005B5B" stroke-width="0.56951" stroke-linejoin="round"/>
<path d="M217.886 109.028V72.7804H181.639V109.028H217.886Z" stroke="#005B5B" stroke-width="0.56951" stroke-linejoin="round"/>
<path d="M109.094 217.821V181.574H72.8462V217.821H109.094Z" stroke="#005B5B" stroke-width="0.56951" stroke-linejoin="round"/>
<path d="M181.663 181.664V109.005H109.003V181.664H181.663Z" stroke="#005B5B" stroke-width="0.56951" stroke-linejoin="round"/>
<path d="M217.82 181.574L181.573 217.821" stroke="#005B5B" stroke-width="0.56951" stroke-linejoin="round"/>
<path d="M109.011 72.7645L72.7632 109.012" stroke="#005B5B" stroke-width="0.56951" stroke-linejoin="round"/>
<path d="M181.64 72.7808L217.887 109.028" stroke="#005B5B" stroke-width="0.56951" stroke-linejoin="round"/>
<path d="M72.8465 181.574L109.094 217.821" stroke="#005B5B" stroke-width="0.56951" stroke-linejoin="round"/>
<path d="M181.663 145.153L235.668 122.358L236.026 90.8889" stroke="#005B5B" stroke-width="0.56951" stroke-linejoin="round"/>
<path d="M145.513 109.004L168.309 54.9986L199.779 54.6415" stroke="#005B5B" stroke-width="0.56951" stroke-linejoin="round"/>
<path d="M145.513 0.17981L168.309 54.9986L181.64 72.7807" stroke="#005B5B" stroke-width="0.56951" stroke-linejoin="round"/>
<path d="M145.152 181.664L122.356 235.669L90.8876 236.028" stroke="#005B5B" stroke-width="0.56951" stroke-linejoin="round"/>
<path d="M109.003 145.514L54.9973 168.31L54.6402 199.78" stroke="#005B5B" stroke-width="0.56951" stroke-linejoin="round"/>
<path d="M0.17985 145.513L54.9973 168.31L72.7794 181.641" stroke="#005B5B" stroke-width="0.56951" stroke-linejoin="round"/>
<path d="M145.153 109.004L122.358 54.9986L90.8877 54.6415" stroke="#005B5B" stroke-width="0.56951" stroke-linejoin="round"/>
<path d="M145.153 0.17981L122.358 54.9986L109.025 72.7793" stroke="#005B5B" stroke-width="0.56951" stroke-linejoin="round"/>
<path d="M109.003 145.155L54.9973 122.359L54.6402 90.889" stroke="#005B5B" stroke-width="0.56951" stroke-linejoin="round"/>
<path d="M0.179878 145.153L54.9973 122.359L72.7781 109.027" stroke="#005B5B" stroke-width="0.56951" stroke-linejoin="round"/>
<path d="M181.663 145.513L235.668 168.309L236.025 199.779" stroke="#005B5B" stroke-width="0.56951" stroke-linejoin="round"/>
<path d="M145.512 181.664L168.308 235.669L199.777 236.026" stroke="#005B5B" stroke-width="0.56951" stroke-linejoin="round"/>
</svg>
