<svg width="567" height="433" viewBox="0 0 567 433" fill="none" xmlns="http://www.w3.org/2000/svg">
<g clip-path="url(#clip0_2003_3955)">
<path d="M139.12 64.9281L154.579 91.701H185.492L200.951 64.9281L185.492 38.1552" stroke="#E4DDD7" stroke-linecap="round" stroke-linejoin="round"/>
<path d="M170.034 64.9281L185.492 38.1552V91.701" stroke="#E4DDD7" stroke-linecap="round" stroke-linejoin="round"/>
<path d="M170.034 64.9281L185.492 91.701L139.12 64.9281H170.034Z" stroke="#E4DDD7" stroke-linecap="round" stroke-linejoin="round"/>
<path d="M154.579 145.248H185.492L200.951 118.475L185.492 91.7017H154.579L139.12 118.475L154.579 145.248Z" stroke="#E4DDD7" stroke-linecap="round" stroke-linejoin="round"/>
<path d="M170.034 118.475L185.492 91.7017V145.248" stroke="#E4DDD7" stroke-linecap="round" stroke-linejoin="round"/>
<path d="M170.034 118.475L185.492 145.247L139.12 118.475H170.034Z" stroke="#E4DDD7" stroke-linecap="round" stroke-linejoin="round"/>
<path d="M139.12 118.475L185.492 91.7017" stroke="#E4DDD7" stroke-linecap="round" stroke-linejoin="round"/>
<path d="M200.952 118.474H231.866L247.321 91.7014L231.866 64.9285H200.952L185.493 91.7014L200.952 118.474Z" stroke="#E4DDD7" stroke-linecap="round" stroke-linejoin="round"/>
<path d="M216.408 91.7013L231.866 64.9285V118.474" stroke="#E4DDD7" stroke-linecap="round" stroke-linejoin="round"/>
<path d="M216.407 91.7013L231.866 118.474L185.493 91.7013H216.407Z" stroke="#E4DDD7" stroke-linecap="round" stroke-linejoin="round"/>
<path d="M185.493 91.7014L231.866 64.9285" stroke="#E4DDD7" stroke-linecap="round" stroke-linejoin="round"/>
<path d="M293.699 118.474H324.613L340.068 91.7014L324.613 64.9285H293.699L278.24 91.7014L293.699 118.474Z" stroke="#E4DDD7" stroke-linecap="round" stroke-linejoin="round"/>
<path d="M309.154 91.7013L324.613 64.9285V118.474" stroke="#E4DDD7" stroke-linecap="round" stroke-linejoin="round"/>
<path d="M309.154 91.7013L324.613 118.474L278.24 91.7013H309.154Z" stroke="#E4DDD7" stroke-linecap="round" stroke-linejoin="round"/>
<path d="M278.24 91.7014L324.613 64.9285" stroke="#E4DDD7" stroke-linecap="round" stroke-linejoin="round"/>
<path d="M386.445 118.474H417.359L432.814 91.7014L417.359 64.9285H386.445L370.987 91.7014L386.445 118.474Z" stroke="#E4DDD7" stroke-linecap="round" stroke-linejoin="round"/>
<path d="M401.901 91.7013L417.359 64.9285V118.474" stroke="#E4DDD7" stroke-linecap="round" stroke-linejoin="round"/>
<path d="M401.9 91.7013L417.359 118.474L370.987 91.7013H401.9Z" stroke="#E4DDD7" stroke-linecap="round" stroke-linejoin="round"/>
<path d="M370.987 91.7014L417.359 64.9285" stroke="#E4DDD7" stroke-linecap="round" stroke-linejoin="round"/>
<path d="M200.952 172.021H231.866L247.321 145.248L231.866 118.475H200.952L185.493 145.248L200.952 172.021Z" stroke="#E4DDD7" stroke-linecap="round" stroke-linejoin="round"/>
<path d="M216.408 145.248L231.866 118.475V172.021" stroke="#E4DDD7" stroke-linecap="round" stroke-linejoin="round"/>
<path d="M216.407 145.248L231.866 172.021L185.493 145.248H216.407Z" stroke="#E4DDD7" stroke-linecap="round" stroke-linejoin="round"/>
<path d="M185.493 145.248L231.866 118.475" stroke="#E4DDD7" stroke-linecap="round" stroke-linejoin="round"/>
<path d="M293.699 172.021H324.613L340.068 145.248L324.613 118.475H293.699L278.24 145.248L293.699 172.021Z" stroke="#E4DDD7" stroke-linecap="round" stroke-linejoin="round"/>
<path d="M309.154 145.248L324.613 118.475V172.021" stroke="#E4DDD7" stroke-linecap="round" stroke-linejoin="round"/>
<path d="M309.154 145.248L324.613 172.021L278.24 145.248H309.154Z" stroke="#E4DDD7" stroke-linecap="round" stroke-linejoin="round"/>
<path d="M278.24 145.248L324.613 118.475" stroke="#E4DDD7" stroke-linecap="round" stroke-linejoin="round"/>
<path d="M386.445 172.021H417.359L432.814 145.248L417.359 118.475H386.445L370.987 145.248L386.445 172.021Z" stroke="#E4DDD7" stroke-linecap="round" stroke-linejoin="round"/>
<path d="M401.901 145.248L417.359 118.475V172.021" stroke="#E4DDD7" stroke-linecap="round" stroke-linejoin="round"/>
<path d="M401.9 145.248L417.359 172.021L370.987 145.248H401.9Z" stroke="#E4DDD7" stroke-linecap="round" stroke-linejoin="round"/>
<path d="M370.987 145.248L417.359 118.475" stroke="#E4DDD7" stroke-linecap="round" stroke-linejoin="round"/>
<path d="M154.579 198.794H185.492L200.951 172.021L185.492 145.248H154.579L139.12 172.021L154.579 198.794Z" stroke="#E4DDD7" stroke-linecap="round" stroke-linejoin="round"/>
<path d="M170.034 172.021L185.492 145.248V198.794" stroke="#E4DDD7" stroke-linecap="round" stroke-linejoin="round"/>
<path d="M170.034 172.021L185.492 198.794L139.12 172.021H170.034Z" stroke="#E4DDD7" stroke-linecap="round" stroke-linejoin="round"/>
<path d="M139.12 172.021L185.492 145.248" stroke="#E4DDD7" stroke-linecap="round" stroke-linejoin="round"/>
<path d="M154.579 252.345H185.492L200.951 225.572L185.492 198.795H154.579L139.12 225.572L154.579 252.345Z" stroke="#E4DDD7" stroke-linecap="round" stroke-linejoin="round"/>
<path d="M170.034 225.572L185.492 198.795V252.345" stroke="#E4DDD7" stroke-linecap="round" stroke-linejoin="round"/>
<path d="M170.034 225.572L185.492 252.344L139.12 225.572H170.034Z" stroke="#E4DDD7" stroke-linecap="round" stroke-linejoin="round"/>
<path d="M139.12 225.572L185.492 198.795" stroke="#E4DDD7" stroke-linecap="round" stroke-linejoin="round"/>
<path d="M200.952 225.571H231.866L247.321 198.795L231.866 172.022H200.952L185.493 198.795L200.952 225.571Z" stroke="#E4DDD7" stroke-linecap="round" stroke-linejoin="round"/>
<path d="M216.408 198.795L231.866 172.022V225.571" stroke="#E4DDD7" stroke-linecap="round" stroke-linejoin="round"/>
<path d="M216.407 198.795L231.866 225.571L185.493 198.795H216.407Z" stroke="#E4DDD7" stroke-linecap="round" stroke-linejoin="round"/>
<path d="M185.493 198.795L231.866 172.022" stroke="#E4DDD7" stroke-linecap="round" stroke-linejoin="round"/>
<path d="M293.699 225.571H324.613L340.068 198.795L324.613 172.022H293.699L278.24 198.795L293.699 225.571Z" stroke="#E4DDD7" stroke-linecap="round" stroke-linejoin="round"/>
<path d="M309.154 198.795L324.613 172.022V225.571" stroke="#E4DDD7" stroke-linecap="round" stroke-linejoin="round"/>
<path d="M309.154 198.795L324.613 225.571L278.24 198.795H309.154Z" stroke="#E4DDD7" stroke-linecap="round" stroke-linejoin="round"/>
<path d="M278.24 198.795L324.613 172.022" stroke="#E4DDD7" stroke-linecap="round" stroke-linejoin="round"/>
<path d="M386.445 225.571H417.359L432.814 198.795L417.359 172.022H386.445L370.987 198.795L386.445 225.571Z" stroke="#E4DDD7" stroke-linecap="round" stroke-linejoin="round"/>
<path d="M401.901 198.795L417.359 172.022V225.571" stroke="#E4DDD7" stroke-linecap="round" stroke-linejoin="round"/>
<path d="M401.9 198.795L417.359 225.571L370.987 198.795H401.9Z" stroke="#E4DDD7" stroke-linecap="round" stroke-linejoin="round"/>
<path d="M370.987 198.795L417.359 172.022" stroke="#E4DDD7" stroke-linecap="round" stroke-linejoin="round"/>
<path d="M200.952 279.118H231.866L247.321 252.345L231.866 225.572H200.952L185.493 252.345L200.952 279.118Z" stroke="#E4DDD7" stroke-linecap="round" stroke-linejoin="round"/>
<path d="M216.408 252.345L231.866 225.572V279.118" stroke="#E4DDD7" stroke-linecap="round" stroke-linejoin="round"/>
<path d="M216.407 252.345L231.866 279.118L185.493 252.345H216.407Z" stroke="#E4DDD7" stroke-linecap="round" stroke-linejoin="round"/>
<path d="M185.493 252.345L231.866 225.572" stroke="#E4DDD7" stroke-linecap="round" stroke-linejoin="round"/>
<path d="M293.699 279.118H324.613L340.068 252.345L324.613 225.572H293.699L278.24 252.345L293.699 279.118Z" stroke="#E4DDD7" stroke-linecap="round" stroke-linejoin="round"/>
<path d="M309.154 252.345L324.613 225.572V279.118" stroke="#E4DDD7" stroke-linecap="round" stroke-linejoin="round"/>
<path d="M309.154 252.345L324.613 279.118L278.24 252.345H309.154Z" stroke="#E4DDD7" stroke-linecap="round" stroke-linejoin="round"/>
<path d="M278.24 252.345L324.613 225.572" stroke="#E4DDD7" stroke-linecap="round" stroke-linejoin="round"/>
<path d="M386.445 279.118H417.359L432.814 252.345L417.359 225.572H386.445L370.987 252.345L386.445 279.118Z" stroke="#E4DDD7" stroke-linecap="round" stroke-linejoin="round"/>
<path d="M401.901 252.345L417.359 225.572V279.118" stroke="#E4DDD7" stroke-linecap="round" stroke-linejoin="round"/>
<path d="M401.9 252.345L417.359 279.118L370.987 252.345H401.9Z" stroke="#E4DDD7" stroke-linecap="round" stroke-linejoin="round"/>
<path d="M370.987 252.345L417.359 225.572" stroke="#E4DDD7" stroke-linecap="round" stroke-linejoin="round"/>
<path d="M247.322 145.248H278.239L293.694 118.475L278.239 91.7017H247.322L231.867 118.475L247.322 145.248Z" stroke="#E4DDD7" stroke-linecap="round" stroke-linejoin="round"/>
<path d="M262.781 118.475L278.239 91.7017V145.248" stroke="#E4DDD7" stroke-linecap="round" stroke-linejoin="round"/>
<path d="M262.781 118.475L278.239 145.247L231.867 118.475H262.781Z" stroke="#E4DDD7" stroke-linecap="round" stroke-linejoin="round"/>
<path d="M231.867 118.475L278.239 91.7017" stroke="#E4DDD7" stroke-linecap="round" stroke-linejoin="round"/>
<path d="M340.068 145.248H370.986L386.441 118.475L370.986 91.7017H340.068L324.613 118.475L340.068 145.248Z" stroke="#E4DDD7" stroke-linecap="round" stroke-linejoin="round"/>
<path d="M355.527 118.475L370.986 91.7017V145.248" stroke="#E4DDD7" stroke-linecap="round" stroke-linejoin="round"/>
<path d="M355.527 118.475L370.986 145.247L324.613 118.475H355.527Z" stroke="#E4DDD7" stroke-linecap="round" stroke-linejoin="round"/>
<path d="M324.613 118.475L370.986 91.7017" stroke="#E4DDD7" stroke-linecap="round" stroke-linejoin="round"/>
<path d="M432.815 145.248H463.732L479.188 118.475L463.732 91.7017H432.815L417.36 118.475L432.815 145.248Z" stroke="#E4DDD7" stroke-linecap="round" stroke-linejoin="round"/>
<path d="M448.274 118.475L463.733 91.7017V145.248" stroke="#E4DDD7" stroke-linecap="round" stroke-linejoin="round"/>
<path d="M448.274 118.475L463.732 145.247L417.36 118.475H448.274Z" stroke="#E4DDD7" stroke-linecap="round" stroke-linejoin="round"/>
<path d="M417.36 118.475L463.732 91.7017" stroke="#E4DDD7" stroke-linecap="round" stroke-linejoin="round"/>
<path d="M247.322 198.794H278.239L293.694 172.021L278.239 145.248H247.322L231.867 172.021L247.322 198.794Z" stroke="#E4DDD7" stroke-linecap="round" stroke-linejoin="round"/>
<path d="M262.781 172.021L278.239 145.248V198.794" stroke="#E4DDD7" stroke-linecap="round" stroke-linejoin="round"/>
<path d="M262.781 172.021L278.239 198.794L231.867 172.021H262.781Z" stroke="#E4DDD7" stroke-linecap="round" stroke-linejoin="round"/>
<path d="M231.867 172.021L278.239 145.248" stroke="#E4DDD7" stroke-linecap="round" stroke-linejoin="round"/>
<path d="M340.068 198.794H370.986L386.441 172.021L370.986 145.248H340.068L324.613 172.021L340.068 198.794Z" stroke="#E4DDD7" stroke-linecap="round" stroke-linejoin="round"/>
<path d="M355.527 172.021L370.986 145.248V198.794" stroke="#E4DDD7" stroke-linecap="round" stroke-linejoin="round"/>
<path d="M355.527 172.021L370.986 198.794L324.613 172.021H355.527Z" stroke="#E4DDD7" stroke-linecap="round" stroke-linejoin="round"/>
<path d="M324.613 172.021L370.986 145.248" stroke="#E4DDD7" stroke-linecap="round" stroke-linejoin="round"/>
<path d="M432.815 198.794H463.732L479.188 172.021L463.732 145.248H432.815L417.36 172.021L432.815 198.794Z" stroke="#E4DDD7" stroke-linecap="round" stroke-linejoin="round"/>
<path d="M448.274 172.021L463.733 145.248V198.794" stroke="#E4DDD7" stroke-linecap="round" stroke-linejoin="round"/>
<path d="M448.274 172.021L463.732 198.794L417.36 172.021H448.274Z" stroke="#E4DDD7" stroke-linecap="round" stroke-linejoin="round"/>
<path d="M417.36 172.021L463.732 145.248" stroke="#E4DDD7" stroke-linecap="round" stroke-linejoin="round"/>
<path d="M247.322 252.345H278.239L293.694 225.572L278.239 198.795H247.322L231.867 225.572L247.322 252.345Z" stroke="#E4DDD7" stroke-linecap="round" stroke-linejoin="round"/>
<path d="M262.781 225.572L278.239 198.795V252.345" stroke="#E4DDD7" stroke-linecap="round" stroke-linejoin="round"/>
<path d="M262.781 225.572L278.239 252.344L231.867 225.572H262.781Z" stroke="#E4DDD7" stroke-linecap="round" stroke-linejoin="round"/>
<path d="M231.867 225.572L278.239 198.795" stroke="#E4DDD7" stroke-linecap="round" stroke-linejoin="round"/>
<path d="M340.068 252.345H370.986L386.441 225.572L370.986 198.795H340.068L324.613 225.572L340.068 252.345Z" stroke="#E4DDD7" stroke-linecap="round" stroke-linejoin="round"/>
<path d="M355.527 225.572L370.986 198.795V252.345" stroke="#E4DDD7" stroke-linecap="round" stroke-linejoin="round"/>
<path d="M355.527 225.572L370.986 252.344L324.613 225.572H355.527Z" stroke="#E4DDD7" stroke-linecap="round" stroke-linejoin="round"/>
<path d="M324.613 225.572L370.986 198.795" stroke="#E4DDD7" stroke-linecap="round" stroke-linejoin="round"/>
<path d="M432.815 252.345H463.732L479.188 225.572L463.732 198.795H432.815L417.36 225.572L432.815 252.345Z" stroke="#E4DDD7" stroke-linecap="round" stroke-linejoin="round"/>
<path d="M448.274 225.572L463.733 198.795V252.345" stroke="#E4DDD7" stroke-linecap="round" stroke-linejoin="round"/>
<path d="M448.274 225.572L463.732 252.344L417.36 225.572H448.274Z" stroke="#E4DDD7" stroke-linecap="round" stroke-linejoin="round"/>
<path d="M417.36 225.572L463.732 198.795" stroke="#E4DDD7" stroke-linecap="round" stroke-linejoin="round"/>
<path d="M247.322 305.891H278.239L293.694 279.118L278.239 252.345H247.322L231.867 279.118L247.322 305.891Z" stroke="#E4DDD7" stroke-linecap="round" stroke-linejoin="round"/>
<path d="M262.781 279.118L278.239 252.345V305.891" stroke="#E4DDD7" stroke-linecap="round" stroke-linejoin="round"/>
<path d="M262.781 279.118L278.239 305.891L231.867 279.118H262.781Z" stroke="#E4DDD7" stroke-linecap="round" stroke-linejoin="round"/>
<path d="M231.867 279.118L278.239 252.345" stroke="#E4DDD7" stroke-linecap="round" stroke-linejoin="round"/>
<path d="M340.068 305.891H370.986L386.441 279.118L370.986 252.345H340.068L324.613 279.118L340.068 305.891Z" stroke="#E4DDD7" stroke-linecap="round" stroke-linejoin="round"/>
<path d="M355.527 279.118L370.986 252.345V305.891" stroke="#E4DDD7" stroke-linecap="round" stroke-linejoin="round"/>
<path d="M355.527 279.118L370.986 305.891L324.613 279.118H355.527Z" stroke="#E4DDD7" stroke-linecap="round" stroke-linejoin="round"/>
<path d="M324.613 279.118L370.986 252.345" stroke="#E4DDD7" stroke-linecap="round" stroke-linejoin="round"/>
<path d="M432.815 305.891H463.732L479.188 279.118L463.732 252.345H432.815L417.36 279.118L432.815 305.891Z" stroke="#E4DDD7" stroke-linecap="round" stroke-linejoin="round"/>
<path d="M448.274 279.118L463.733 252.345V305.891" stroke="#E4DDD7" stroke-linecap="round" stroke-linejoin="round"/>
<path d="M448.274 279.118L463.732 305.891L417.36 279.118H448.274Z" stroke="#E4DDD7" stroke-linecap="round" stroke-linejoin="round"/>
<path d="M417.36 279.118L463.732 252.345" stroke="#E4DDD7" stroke-linecap="round" stroke-linejoin="round"/>
<path d="M201.194 332.664H232.108L247.567 305.891L232.108 279.119H201.194L185.735 305.891L201.194 332.664Z" stroke="#E4DDD7" stroke-linecap="round" stroke-linejoin="round"/>
<path d="M216.649 305.892L232.108 279.119V332.664" stroke="#E4DDD7" stroke-linecap="round" stroke-linejoin="round"/>
<path d="M216.649 305.892L232.108 332.664L185.735 305.892H216.649Z" stroke="#E4DDD7" stroke-linecap="round" stroke-linejoin="round"/>
<path d="M185.735 305.891L232.108 279.119" stroke="#E4DDD7" stroke-linecap="round" stroke-linejoin="round"/>
<path d="M293.94 332.664H324.854L340.313 305.891L324.854 279.119H293.94L278.482 305.891L293.94 332.664Z" stroke="#E4DDD7" stroke-linecap="round" stroke-linejoin="round"/>
<path d="M309.396 305.892L324.854 279.119V332.664" stroke="#E4DDD7" stroke-linecap="round" stroke-linejoin="round"/>
<path d="M309.396 305.892L324.854 332.664L278.482 305.892H309.396Z" stroke="#E4DDD7" stroke-linecap="round" stroke-linejoin="round"/>
<path d="M278.482 305.891L324.854 279.119" stroke="#E4DDD7" stroke-linecap="round" stroke-linejoin="round"/>
<path d="M386.687 332.664H417.601L433.06 305.891L417.601 279.119H386.687L371.228 305.891L386.687 332.664Z" stroke="#E4DDD7" stroke-linecap="round" stroke-linejoin="round"/>
<path d="M402.142 305.892L417.601 279.119V332.664" stroke="#E4DDD7" stroke-linecap="round" stroke-linejoin="round"/>
<path d="M402.142 305.892L417.601 332.664L371.228 305.892H402.142Z" stroke="#E4DDD7" stroke-linecap="round" stroke-linejoin="round"/>
<path d="M371.228 305.891L417.601 279.119" stroke="#E4DDD7" stroke-linecap="round" stroke-linejoin="round"/>
<path d="M154.579 305.891H185.492L200.951 279.118L185.492 252.345H154.579L139.12 279.118L154.579 305.891Z" stroke="#E4DDD7" stroke-linecap="round" stroke-linejoin="round"/>
<path d="M170.034 279.118L185.492 252.345V305.891" stroke="#E4DDD7" stroke-linecap="round" stroke-linejoin="round"/>
<path d="M170.034 279.118L185.492 305.891L139.12 279.118H170.034Z" stroke="#E4DDD7" stroke-linecap="round" stroke-linejoin="round"/>
<path d="M139.12 279.118L185.492 252.345" stroke="#E4DDD7" stroke-linecap="round" stroke-linejoin="round"/>
<path d="M0 198.795L15.4588 225.571H46.3726L61.8314 198.795L46.3726 172.022" stroke="#E4DDD7" stroke-linecap="round" stroke-linejoin="round"/>
<path d="M30.9138 198.795L46.3726 172.022V225.571" stroke="#E4DDD7" stroke-linecap="round" stroke-linejoin="round"/>
<path d="M30.9138 198.795L46.3726 225.571L0 198.795H30.9138Z" stroke="#E4DDD7" stroke-linecap="round" stroke-linejoin="round"/>
<path d="M46.3726 279.118L61.8314 252.345L46.3726 225.572H15.4588L0 252.345" stroke="#E4DDD7" stroke-linecap="round" stroke-linejoin="round"/>
<path d="M30.9138 252.345L46.3726 225.572V279.118" stroke="#E4DDD7" stroke-linecap="round" stroke-linejoin="round"/>
<path d="M0 252.345H30.9138" stroke="#E4DDD7" stroke-linecap="round" stroke-linejoin="round"/>
<path d="M30.9138 252.345L46.3726 279.118" stroke="#E4DDD7" stroke-linecap="round" stroke-linejoin="round"/>
<path d="M0 252.345L46.3726 225.572" stroke="#E4DDD7" stroke-linecap="round" stroke-linejoin="round"/>
<path d="M46.1316 118.475L61.5867 145.248H92.5042L107.959 118.475L92.5042 91.7017" stroke="#E4DDD7" stroke-linecap="round" stroke-linejoin="round"/>
<path d="M77.0459 118.475L92.5047 91.7017V145.248" stroke="#E4DDD7" stroke-linecap="round" stroke-linejoin="round"/>
<path d="M77.0454 118.475L92.5042 145.247L46.1316 118.475H77.0454Z" stroke="#E4DDD7" stroke-linecap="round" stroke-linejoin="round"/>
<path d="M123.419 91.7014L138.878 64.9285V118.474" stroke="#E4DDD7" stroke-linecap="round" stroke-linejoin="round"/>
<path d="M123.418 91.7017L138.877 118.475L92.5046 91.7017H123.418Z" stroke="#E4DDD7" stroke-linecap="round" stroke-linejoin="round"/>
<path d="M107.96 172.021H138.877L154.332 145.248L138.877 118.475H107.96L92.5046 145.248L107.96 172.021Z" stroke="#E4DDD7" stroke-linecap="round" stroke-linejoin="round"/>
<path d="M123.418 145.248L138.877 118.475V172.021" stroke="#E4DDD7" stroke-linecap="round" stroke-linejoin="round"/>
<path d="M123.418 145.248L138.877 172.021L92.5046 145.248H123.418Z" stroke="#E4DDD7" stroke-linecap="round" stroke-linejoin="round"/>
<path d="M92.5046 145.248L138.877 118.475" stroke="#E4DDD7" stroke-linecap="round" stroke-linejoin="round"/>
<path d="M61.5867 198.794H92.5042L107.959 172.021L92.5042 145.248H61.5867L46.1316 172.021L61.5867 198.794Z" stroke="#E4DDD7" stroke-linecap="round" stroke-linejoin="round"/>
<path d="M77.0459 172.021L92.5047 145.248V198.794" stroke="#E4DDD7" stroke-linecap="round" stroke-linejoin="round"/>
<path d="M77.0454 172.021L92.5042 198.794L46.1316 172.021H77.0454Z" stroke="#E4DDD7" stroke-linecap="round" stroke-linejoin="round"/>
<path d="M46.1316 172.021L92.5042 145.248" stroke="#E4DDD7" stroke-linecap="round" stroke-linejoin="round"/>
<path d="M61.5867 252.345H92.5042L107.959 225.572L92.5042 198.795H61.5867L46.1316 225.572L61.5867 252.345Z" stroke="#E4DDD7" stroke-linecap="round" stroke-linejoin="round"/>
<path d="M77.0459 225.572L92.5047 198.795V252.345" stroke="#E4DDD7" stroke-linecap="round" stroke-linejoin="round"/>
<path d="M77.0454 225.572L92.5042 252.344L46.1316 225.572H77.0454Z" stroke="#E4DDD7" stroke-linecap="round" stroke-linejoin="round"/>
<path d="M46.1316 225.572L92.5042 198.795" stroke="#E4DDD7" stroke-linecap="round" stroke-linejoin="round"/>
<path d="M107.96 225.571H138.877L154.332 198.795L138.877 172.022H107.96L92.5046 198.795L107.96 225.571Z" stroke="#E4DDD7" stroke-linecap="round" stroke-linejoin="round"/>
<path d="M123.418 198.795L138.877 172.022V225.571" stroke="#E4DDD7" stroke-linecap="round" stroke-linejoin="round"/>
<path d="M123.418 198.795L138.877 225.571L92.5046 198.795H123.418Z" stroke="#E4DDD7" stroke-linecap="round" stroke-linejoin="round"/>
<path d="M92.5046 198.795L138.877 172.022" stroke="#E4DDD7" stroke-linecap="round" stroke-linejoin="round"/>
<path d="M107.96 279.118H138.877L154.332 252.345L138.877 225.572H107.96L92.5046 252.345L107.96 279.118Z" stroke="#E4DDD7" stroke-linecap="round" stroke-linejoin="round"/>
<path d="M123.418 252.345L138.877 225.572V279.118" stroke="#E4DDD7" stroke-linecap="round" stroke-linejoin="round"/>
<path d="M123.418 252.345L138.877 279.118L92.5046 252.345H123.418Z" stroke="#E4DDD7" stroke-linecap="round" stroke-linejoin="round"/>
<path d="M92.5046 252.345L138.877 225.572" stroke="#E4DDD7" stroke-linecap="round" stroke-linejoin="round"/>
<path d="M92.7459 305.891L108.205 279.118L92.7459 252.345H61.8321L46.3733 279.118" stroke="#E4DDD7" stroke-linecap="round" stroke-linejoin="round"/>
<path d="M77.2876 279.118L92.7464 252.345V305.891" stroke="#E4DDD7" stroke-linecap="round" stroke-linejoin="round"/>
<path d="M46.3733 279.119H77.2871" stroke="#E4DDD7" stroke-linecap="round" stroke-linejoin="round"/>
<path d="M77.2876 279.119L92.7464 305.891" stroke="#E4DDD7" stroke-linecap="round" stroke-linejoin="round"/>
<path d="M46.3733 279.118L92.7459 252.345" stroke="#E4DDD7" stroke-linecap="round" stroke-linejoin="round"/>
<path d="M566.667 44.9165L124.439 211.451V432.897L566.667 266.362V44.9165Z" fill="#B94B01"/>
<path d="M566.667 266.362L124.439 3.33786e-06L494.23 0L566.667 44.9166V266.362Z" fill="#F0BE65"/>
<path d="M566.667 266.362L340.462 130.115L566.667 44.9165V266.362Z" fill="#AD3805"/>
</g>
<defs>
<clipPath id="clip0_2003_3955">
<rect width="566.667" height="432.897" fill="white"/>
</clipPath>
</defs>
</svg>
