<svg width="206" height="244" viewBox="0 0 206 244" fill="none" xmlns="http://www.w3.org/2000/svg">
<path d="M-0.000838956 145.161H289.946" stroke="#D6CFC9" stroke-width="0.56951" stroke-linejoin="round"/>
<path d="M144.973 0.1875V290.134" stroke="#D6CFC9" stroke-width="0.56951" stroke-linejoin="round"/>
<path d="M217.458 217.647L72.4844 72.6738" stroke="#D6CFC9" stroke-width="0.56951" stroke-linejoin="round"/>
<path d="M72.4874 217.647L217.461 72.6738" stroke="#D6CFC9" stroke-width="0.56951" stroke-linejoin="round"/>
<path d="M151.098 151.287V139.035H138.846V151.287H151.098Z" stroke="#D6CFC9" stroke-width="0.56951" stroke-linejoin="round"/>
<path d="M151.098 139.036L188.199 145.161L166.586 123.548" stroke="#D6CFC9" stroke-width="0.56951" stroke-linejoin="round"/>
<path d="M217.461 72.6738L188.2 145.161L183.795 106.34L201.337 112.619L210.936 119.075" stroke="#D6CFC9" stroke-width="0.56951" stroke-linejoin="round"/>
<path d="M217.461 72.6738L228.389 145.162" stroke="#D6CFC9" stroke-width="0.56951" stroke-linejoin="round"/>
<path d="M188.199 145.161L222.461 105.852" stroke="#D6CFC9" stroke-width="0.56951" stroke-linejoin="round"/>
<path d="M209.773 91.7129L210.933 119.075L241.093 145.162" stroke="#D6CFC9" stroke-width="0.56951" stroke-linejoin="round"/>
<path d="M138.848 139.036L144.973 101.935L123.36 123.548" stroke="#D6CFC9" stroke-width="0.56951" stroke-linejoin="round"/>
<path d="M72.4845 72.6747L144.971 101.935L106.151 106.341L112.429 88.8003L118.884 79.1985" stroke="#D6CFC9" stroke-width="0.56951" stroke-linejoin="round"/>
<path d="M72.4847 72.6745L144.97 61.7464" stroke="#D6CFC9" stroke-width="0.56951" stroke-linejoin="round"/>
<path d="M144.975 101.934L105.663 67.6724" stroke="#D6CFC9" stroke-width="0.56951" stroke-linejoin="round"/>
<path d="M91.5216 80.3602L118.884 79.1977L144.97 49.0392" stroke="#D6CFC9" stroke-width="0.56951" stroke-linejoin="round"/>
<path d="M138.848 151.288L101.746 145.163L123.36 166.776" stroke="#D6CFC9" stroke-width="0.56951" stroke-linejoin="round"/>
<path d="M72.487 217.648L101.746 145.162L106.152 183.983L88.6099 177.703L79.0107 171.248" stroke="#D6CFC9" stroke-width="0.56951" stroke-linejoin="round"/>
<path d="M72.4841 217.648L61.5547 145.161" stroke="#D6CFC9" stroke-width="0.56951" stroke-linejoin="round"/>
<path d="M101.746 145.162L67.4854 184.473" stroke="#D6CFC9" stroke-width="0.56951" stroke-linejoin="round"/>
<path d="M80.17 198.611L79.0102 171.249L48.8504 145.161" stroke="#D6CFC9" stroke-width="0.56951" stroke-linejoin="round"/>
<path d="M151.098 151.287L144.97 188.388L166.584 166.774" stroke="#D6CFC9" stroke-width="0.56951" stroke-linejoin="round"/>
<path d="M217.46 217.648L144.971 188.389L183.795 183.983L177.514 201.524L171.059 211.126" stroke="#D6CFC9" stroke-width="0.56951" stroke-linejoin="round"/>
<path d="M217.458 217.648L144.972 228.577" stroke="#D6CFC9" stroke-width="0.56951" stroke-linejoin="round"/>
<path d="M144.971 188.388L184.283 222.65" stroke="#D6CFC9" stroke-width="0.56951" stroke-linejoin="round"/>
<path d="M198.422 209.965L171.058 211.126L144.972 241.284" stroke="#D6CFC9" stroke-width="0.56951" stroke-linejoin="round"/>
<path d="M151.098 139.036L144.973 101.935L166.586 123.548" stroke="#D6CFC9" stroke-width="0.56951" stroke-linejoin="round"/>
<path d="M217.461 72.6747L144.974 101.935L183.795 106.341L177.515 88.7989L171.06 79.1998" stroke="#D6CFC9" stroke-width="0.56951" stroke-linejoin="round"/>
<path d="M217.458 72.6739L144.97 61.7458" stroke="#D6CFC9" stroke-width="0.56951" stroke-linejoin="round"/>
<path d="M144.972 101.935L184.283 67.6744" stroke="#D6CFC9" stroke-width="0.56951" stroke-linejoin="round"/>
<path d="M144.97 49.0396L171.057 79.1994L198.42 80.3592" stroke="#D6CFC9" stroke-width="0.56951" stroke-linejoin="round"/>
<path d="M151.098 151.288L188.198 145.161L166.584 166.775" stroke="#D6CFC9" stroke-width="0.56951" stroke-linejoin="round"/>
<path d="M217.46 217.648L188.199 145.161L183.795 183.983L201.334 177.704L210.936 171.248" stroke="#D6CFC9" stroke-width="0.56951" stroke-linejoin="round"/>
<path d="M217.459 217.648L228.387 145.162" stroke="#D6CFC9" stroke-width="0.56951" stroke-linejoin="round"/>
<path d="M188.199 145.161L222.461 184.473" stroke="#D6CFC9" stroke-width="0.56951" stroke-linejoin="round"/>
<path d="M241.095 145.162L210.936 171.248L209.775 198.612" stroke="#D6CFC9" stroke-width="0.56951" stroke-linejoin="round"/>
<path d="M138.848 151.287L144.973 188.388L123.36 166.775" stroke="#D6CFC9" stroke-width="0.56951" stroke-linejoin="round"/>
<path d="M72.4871 217.648L144.973 188.389L106.152 183.983L112.431 201.525L118.887 211.124" stroke="#D6CFC9" stroke-width="0.56951" stroke-linejoin="round"/>
<path d="M72.487 217.648L144.974 228.577" stroke="#D6CFC9" stroke-width="0.56951" stroke-linejoin="round"/>
<path d="M144.973 188.389L105.664 222.651" stroke="#D6CFC9" stroke-width="0.56951" stroke-linejoin="round"/>
<path d="M144.973 241.284L118.886 211.124L91.5237 209.965" stroke="#D6CFC9" stroke-width="0.56951" stroke-linejoin="round"/>
<path d="M138.847 139.036L101.745 145.162L123.359 123.548" stroke="#D6CFC9" stroke-width="0.56951" stroke-linejoin="round"/>
<path d="M72.4844 72.6738L101.744 145.162L106.15 106.34L88.6087 112.619L79.0068 119.075" stroke="#D6CFC9" stroke-width="0.56951" stroke-linejoin="round"/>
<path d="M72.4844 72.6738L61.555 145.161" stroke="#D6CFC9" stroke-width="0.56951" stroke-linejoin="round"/>
<path d="M101.746 145.163L67.4844 105.851" stroke="#D6CFC9" stroke-width="0.56951" stroke-linejoin="round"/>
<path d="M48.8509 145.161L79.0094 119.075L80.1719 91.7129" stroke="#D6CFC9" stroke-width="0.56951" stroke-linejoin="round"/>
</svg>
