<svg width="205" height="175" viewBox="0 0 205 175" fill="none" xmlns="http://www.w3.org/2000/svg">
<g opacity="0.2" clip-path="url(#clip0_4214_94732)">
<path d="M354.408 59.7208L323.07 82.6225L180.326 34.1896L113.878 82.7505L81.5898 71.7934L179.379 0.327148L354.408 59.7208Z" fill="#1F7A78"/>
<path d="M323.07 82.6223L291.262 105.871L179.788 68.0446L145.148 93.3637L113.879 82.7503L180.326 34.1895L323.07 82.6223Z" fill="#1E5434"/>
<path d="M302.051 164.757L234.472 214.144L113.512 173.099L129.498 161.418L237.853 198.184L289.447 160.481L302.051 164.757Z" fill="#7E5C8E"/>
<path d="M291.263 105.871L263.197 126.381L178.503 97.642L171.93 102.448L145.148 93.363L179.788 68.0439L291.263 105.871Z" fill="#163711"/>
<path d="M276.186 155.979L289.445 160.481L237.852 198.184L129.496 161.418L150.01 146.423L245.102 178.694L276.186 155.979Z" fill="#591708"/>
<path d="M281.967 132.752L258.433 149.956L181.092 123.711L174.267 128.696L148.145 119.831L171.93 102.448L256.624 131.187L263.197 126.381L281.967 132.752Z" fill="#602812"/>
<path d="M258.433 149.956L276.188 155.979L245.104 178.694L150.012 146.423L174.267 128.696L251.608 154.941L258.433 149.956Z" fill="#441302"/>
<path d="M263.197 126.381L256.623 131.187L171.93 102.448L178.503 97.6426L263.197 126.381Z" fill="#012121"/>
<path d="M258.431 149.955L251.607 154.94L174.266 128.696L181.09 123.711L258.431 149.955Z" fill="#321108"/>
<path d="M174.265 128.696L150.009 146.423L123.887 137.558L148.142 119.831L174.265 128.696Z" fill="#AD3805"/>
<path d="M171.93 102.448L148.145 119.831L121.363 110.746L145.149 93.3633L171.93 102.448Z" fill="#798E36"/>
<path d="M150.011 146.423L129.498 161.417L103.375 152.549L123.889 137.558L150.011 146.423Z" fill="#B94B01"/>
<path d="M148.146 119.831L123.89 137.557L97.1055 128.473L121.364 110.746L148.146 119.831Z" fill="#F0BE65"/>
<path d="M113.88 82.75L145.149 93.3633L121.363 110.746L90.0938 100.133L113.88 82.75Z" fill="#9EB277"/>
</g>
<defs>
<clipPath id="clip0_4214_94732">
<rect width="205" height="175" fill="white"/>
</clipPath>
</defs>
</svg>
