<svg width="722" height="600" viewBox="0 0 722 600" fill="none" xmlns="http://www.w3.org/2000/svg">
<path d="M320.191 165.898L335.65 192.671H366.564L382.023 165.898L366.564 139.125" stroke="#E4DDD7" stroke-linecap="round" stroke-linejoin="round"/>
<path d="M351.105 165.898L366.564 139.125V192.671" stroke="#E4DDD7" stroke-linecap="round" stroke-linejoin="round"/>
<path d="M351.105 165.898L366.564 192.671L320.191 165.898H351.105Z" stroke="#E4DDD7" stroke-linecap="round" stroke-linejoin="round"/>
<path d="M335.65 246.217H366.564L382.023 219.444L366.564 192.671H335.65L320.191 219.444L335.65 246.217Z" stroke="#E4DDD7" stroke-linecap="round" stroke-linejoin="round"/>
<path d="M351.105 219.444L366.564 192.671V246.217" stroke="#E4DDD7" stroke-linecap="round" stroke-linejoin="round"/>
<path d="M351.105 219.444L366.564 246.217L320.191 219.444H351.105Z" stroke="#E4DDD7" stroke-linecap="round" stroke-linejoin="round"/>
<path d="M320.191 219.444L366.564 192.671" stroke="#E4DDD7" stroke-linecap="round" stroke-linejoin="round"/>
<path d="M382.023 219.444H412.937L428.392 192.671L412.937 165.898H382.023L366.565 192.671L382.023 219.444Z" stroke="#E4DDD7" stroke-linecap="round" stroke-linejoin="round"/>
<path d="M397.479 192.671L412.938 165.898V219.444" stroke="#E4DDD7" stroke-linecap="round" stroke-linejoin="round"/>
<path d="M397.479 192.671L412.937 219.444L366.565 192.671H397.479Z" stroke="#E4DDD7" stroke-linecap="round" stroke-linejoin="round"/>
<path d="M366.565 192.671L412.937 165.898" stroke="#E4DDD7" stroke-linecap="round" stroke-linejoin="round"/>
<path d="M474.77 219.444H505.684L521.139 192.671L505.684 165.898H474.77L459.311 192.671L474.77 219.444Z" stroke="#E4DDD7" stroke-linecap="round" stroke-linejoin="round"/>
<path d="M490.225 192.671L505.684 165.898V219.444" stroke="#E4DDD7" stroke-linecap="round" stroke-linejoin="round"/>
<path d="M490.225 192.671L505.684 219.444L459.311 192.671H490.225Z" stroke="#E4DDD7" stroke-linecap="round" stroke-linejoin="round"/>
<path d="M459.311 192.671L505.684 165.898" stroke="#E4DDD7" stroke-linecap="round" stroke-linejoin="round"/>
<path d="M567.517 219.444H598.43L613.886 192.671L598.43 165.898H567.517L552.058 192.671L567.517 219.444Z" stroke="#E4DDD7" stroke-linecap="round" stroke-linejoin="round"/>
<path d="M582.972 192.671L598.431 165.898V219.444" stroke="#E4DDD7" stroke-linecap="round" stroke-linejoin="round"/>
<path d="M582.972 192.671L598.43 219.444L552.058 192.671H582.972Z" stroke="#E4DDD7" stroke-linecap="round" stroke-linejoin="round"/>
<path d="M552.058 192.671L598.43 165.898" stroke="#E4DDD7" stroke-linecap="round" stroke-linejoin="round"/>
<path d="M382.023 272.991H412.937L428.392 246.218L412.937 219.445H382.023L366.565 246.218L382.023 272.991Z" stroke="#E4DDD7" stroke-linecap="round" stroke-linejoin="round"/>
<path d="M397.479 246.218L412.938 219.445V272.99" stroke="#E4DDD7" stroke-linecap="round" stroke-linejoin="round"/>
<path d="M397.479 246.218L412.937 272.991L366.565 246.218H397.479Z" stroke="#E4DDD7" stroke-linecap="round" stroke-linejoin="round"/>
<path d="M366.565 246.218L412.937 219.445" stroke="#E4DDD7" stroke-linecap="round" stroke-linejoin="round"/>
<path d="M474.77 272.991H505.684L521.139 246.218L505.684 219.445H474.77L459.311 246.218L474.77 272.991Z" stroke="#E4DDD7" stroke-linecap="round" stroke-linejoin="round"/>
<path d="M490.225 246.218L505.684 219.445V272.991" stroke="#E4DDD7" stroke-linecap="round" stroke-linejoin="round"/>
<path d="M490.225 246.218L505.684 272.991L459.311 246.218H490.225Z" stroke="#E4DDD7" stroke-linecap="round" stroke-linejoin="round"/>
<path d="M459.311 246.218L505.684 219.445" stroke="#E4DDD7" stroke-linecap="round" stroke-linejoin="round"/>
<path d="M567.517 272.991H598.43L613.886 246.218L598.43 219.445H567.517L552.058 246.218L567.517 272.991Z" stroke="#E4DDD7" stroke-linecap="round" stroke-linejoin="round"/>
<path d="M582.972 246.218L598.431 219.445V272.991" stroke="#E4DDD7" stroke-linecap="round" stroke-linejoin="round"/>
<path d="M582.972 246.218L598.43 272.991L552.058 246.218H582.972Z" stroke="#E4DDD7" stroke-linecap="round" stroke-linejoin="round"/>
<path d="M552.058 246.218L598.43 219.445" stroke="#E4DDD7" stroke-linecap="round" stroke-linejoin="round"/>
<path d="M335.65 299.764H366.564L382.023 272.991L366.564 246.218H335.65L320.191 272.991L335.65 299.764Z" stroke="#E4DDD7" stroke-linecap="round" stroke-linejoin="round"/>
<path d="M351.105 272.991L366.564 246.218V299.764" stroke="#E4DDD7" stroke-linecap="round" stroke-linejoin="round"/>
<path d="M351.105 272.991L366.564 299.764L320.191 272.991H351.105Z" stroke="#E4DDD7" stroke-linecap="round" stroke-linejoin="round"/>
<path d="M320.191 272.991L366.564 246.218" stroke="#E4DDD7" stroke-linecap="round" stroke-linejoin="round"/>
<path d="M335.65 353.314H366.564L382.023 326.541L366.564 299.765H335.65L320.191 326.541L335.65 353.314Z" stroke="#E4DDD7" stroke-linecap="round" stroke-linejoin="round"/>
<path d="M351.105 326.541L366.564 299.765V353.314" stroke="#E4DDD7" stroke-linecap="round" stroke-linejoin="round"/>
<path d="M351.105 326.541L366.564 353.314L320.191 326.541H351.105Z" stroke="#E4DDD7" stroke-linecap="round" stroke-linejoin="round"/>
<path d="M320.191 326.541L366.564 299.765" stroke="#E4DDD7" stroke-linecap="round" stroke-linejoin="round"/>
<path d="M382.023 326.541H412.937L428.392 299.764L412.937 272.991H382.023L366.565 299.764L382.023 326.541Z" stroke="#E4DDD7" stroke-linecap="round" stroke-linejoin="round"/>
<path d="M397.479 299.764L412.938 272.991V326.541" stroke="#E4DDD7" stroke-linecap="round" stroke-linejoin="round"/>
<path d="M397.479 299.764L412.937 326.541L366.565 299.764H397.479Z" stroke="#E4DDD7" stroke-linecap="round" stroke-linejoin="round"/>
<path d="M366.565 299.764L412.937 272.991" stroke="#E4DDD7" stroke-linecap="round" stroke-linejoin="round"/>
<path d="M474.77 326.541H505.684L521.139 299.764L505.684 272.991H474.77L459.311 299.764L474.77 326.541Z" stroke="#E4DDD7" stroke-linecap="round" stroke-linejoin="round"/>
<path d="M490.225 299.764L505.684 272.991V326.541" stroke="#E4DDD7" stroke-linecap="round" stroke-linejoin="round"/>
<path d="M490.225 299.764L505.684 326.541L459.311 299.764H490.225Z" stroke="#E4DDD7" stroke-linecap="round" stroke-linejoin="round"/>
<path d="M459.311 299.764L505.684 272.991" stroke="#E4DDD7" stroke-linecap="round" stroke-linejoin="round"/>
<path d="M567.517 326.541H598.43L613.886 299.764L598.43 272.991H567.517L552.058 299.764L567.517 326.541Z" stroke="#E4DDD7" stroke-linecap="round" stroke-linejoin="round"/>
<path d="M582.972 299.764L598.431 272.991V326.541" stroke="#E4DDD7" stroke-linecap="round" stroke-linejoin="round"/>
<path d="M582.972 299.764L598.43 326.541L552.058 299.764H582.972Z" stroke="#E4DDD7" stroke-linecap="round" stroke-linejoin="round"/>
<path d="M552.058 299.764L598.43 272.991" stroke="#E4DDD7" stroke-linecap="round" stroke-linejoin="round"/>
<path d="M382.023 380.088H412.937L428.392 353.315L412.937 326.542H382.023L366.565 353.315L382.023 380.088Z" stroke="#E4DDD7" stroke-linecap="round" stroke-linejoin="round"/>
<path d="M397.479 353.315L412.938 326.542V380.087" stroke="#E4DDD7" stroke-linecap="round" stroke-linejoin="round"/>
<path d="M397.479 353.315L412.937 380.087L366.565 353.315H397.479Z" stroke="#E4DDD7" stroke-linecap="round" stroke-linejoin="round"/>
<path d="M366.565 353.315L412.937 326.542" stroke="#E4DDD7" stroke-linecap="round" stroke-linejoin="round"/>
<path d="M474.77 380.088H505.684L521.139 353.315L505.684 326.542H474.77L459.311 353.315L474.77 380.088Z" stroke="#E4DDD7" stroke-linecap="round" stroke-linejoin="round"/>
<path d="M490.225 353.315L505.684 326.542V380.087" stroke="#E4DDD7" stroke-linecap="round" stroke-linejoin="round"/>
<path d="M490.225 353.315L505.684 380.087L459.311 353.315H490.225Z" stroke="#E4DDD7" stroke-linecap="round" stroke-linejoin="round"/>
<path d="M459.311 353.315L505.684 326.542" stroke="#E4DDD7" stroke-linecap="round" stroke-linejoin="round"/>
<path d="M567.517 380.088H598.43L613.886 353.315L598.43 326.542H567.517L552.058 353.315L567.517 380.088Z" stroke="#E4DDD7" stroke-linecap="round" stroke-linejoin="round"/>
<path d="M582.972 353.315L598.431 326.542V380.087" stroke="#E4DDD7" stroke-linecap="round" stroke-linejoin="round"/>
<path d="M582.972 353.315L598.43 380.087L552.058 353.315H582.972Z" stroke="#E4DDD7" stroke-linecap="round" stroke-linejoin="round"/>
<path d="M552.058 353.315L598.43 326.542" stroke="#E4DDD7" stroke-linecap="round" stroke-linejoin="round"/>
<path d="M428.393 246.217H459.311L474.766 219.444L459.311 192.671H428.393L412.938 219.444L428.393 246.217Z" stroke="#E4DDD7" stroke-linecap="round" stroke-linejoin="round"/>
<path d="M443.852 219.444L459.311 192.671V246.217" stroke="#E4DDD7" stroke-linecap="round" stroke-linejoin="round"/>
<path d="M443.852 219.444L459.311 246.217L412.938 219.444H443.852Z" stroke="#E4DDD7" stroke-linecap="round" stroke-linejoin="round"/>
<path d="M412.938 219.444L459.311 192.671" stroke="#E4DDD7" stroke-linecap="round" stroke-linejoin="round"/>
<path d="M521.14 246.217H552.057L567.512 219.444L552.057 192.671H521.14L505.685 219.444L521.14 246.217Z" stroke="#E4DDD7" stroke-linecap="round" stroke-linejoin="round"/>
<path d="M536.599 219.444L552.057 192.671V246.217" stroke="#E4DDD7" stroke-linecap="round" stroke-linejoin="round"/>
<path d="M536.598 219.444L552.057 246.217L505.685 219.444H536.598Z" stroke="#E4DDD7" stroke-linecap="round" stroke-linejoin="round"/>
<path d="M505.685 219.444L552.057 192.671" stroke="#E4DDD7" stroke-linecap="round" stroke-linejoin="round"/>
<path d="M613.886 246.217H644.804L660.259 219.444L644.804 192.671H613.886L598.431 219.444L613.886 246.217Z" stroke="#E4DDD7" stroke-linecap="round" stroke-linejoin="round"/>
<path d="M629.345 219.444L644.804 192.671V246.217" stroke="#E4DDD7" stroke-linecap="round" stroke-linejoin="round"/>
<path d="M629.345 219.444L644.804 246.217L598.431 219.444H629.345Z" stroke="#E4DDD7" stroke-linecap="round" stroke-linejoin="round"/>
<path d="M598.431 219.444L644.804 192.671" stroke="#E4DDD7" stroke-linecap="round" stroke-linejoin="round"/>
<path d="M428.393 299.764H459.311L474.766 272.991L459.311 246.218H428.393L412.938 272.991L428.393 299.764Z" stroke="#E4DDD7" stroke-linecap="round" stroke-linejoin="round"/>
<path d="M443.852 272.991L459.311 246.218V299.764" stroke="#E4DDD7" stroke-linecap="round" stroke-linejoin="round"/>
<path d="M443.852 272.991L459.311 299.764L412.938 272.991H443.852Z" stroke="#E4DDD7" stroke-linecap="round" stroke-linejoin="round"/>
<path d="M412.938 272.991L459.311 246.218" stroke="#E4DDD7" stroke-linecap="round" stroke-linejoin="round"/>
<path d="M521.14 299.764H552.057L567.512 272.991L552.057 246.218H521.14L505.685 272.991L521.14 299.764Z" stroke="#E4DDD7" stroke-linecap="round" stroke-linejoin="round"/>
<path d="M536.599 272.991L552.057 246.218V299.764" stroke="#E4DDD7" stroke-linecap="round" stroke-linejoin="round"/>
<path d="M536.598 272.991L552.057 299.764L505.685 272.991H536.598Z" stroke="#E4DDD7" stroke-linecap="round" stroke-linejoin="round"/>
<path d="M505.685 272.991L552.057 246.218" stroke="#E4DDD7" stroke-linecap="round" stroke-linejoin="round"/>
<path d="M613.886 299.764H644.804L660.259 272.991L644.804 246.218H613.886L598.431 272.991L613.886 299.764Z" stroke="#E4DDD7" stroke-linecap="round" stroke-linejoin="round"/>
<path d="M629.345 272.991L644.804 246.218V299.764" stroke="#E4DDD7" stroke-linecap="round" stroke-linejoin="round"/>
<path d="M629.345 272.991L644.804 299.764L598.431 272.991H629.345Z" stroke="#E4DDD7" stroke-linecap="round" stroke-linejoin="round"/>
<path d="M598.431 272.991L644.804 246.218" stroke="#E4DDD7" stroke-linecap="round" stroke-linejoin="round"/>
<path d="M428.393 353.314H459.311L474.766 326.541L459.311 299.765H428.393L412.938 326.541L428.393 353.314Z" stroke="#E4DDD7" stroke-linecap="round" stroke-linejoin="round"/>
<path d="M443.852 326.541L459.311 299.765V353.314" stroke="#E4DDD7" stroke-linecap="round" stroke-linejoin="round"/>
<path d="M443.852 326.541L459.311 353.314L412.938 326.541H443.852Z" stroke="#E4DDD7" stroke-linecap="round" stroke-linejoin="round"/>
<path d="M412.938 326.541L459.311 299.765" stroke="#E4DDD7" stroke-linecap="round" stroke-linejoin="round"/>
<path d="M521.14 353.314H552.057L567.512 326.541L552.057 299.765H521.14L505.685 326.541L521.14 353.314Z" stroke="#E4DDD7" stroke-linecap="round" stroke-linejoin="round"/>
<path d="M536.599 326.541L552.057 299.765V353.314" stroke="#E4DDD7" stroke-linecap="round" stroke-linejoin="round"/>
<path d="M536.598 326.541L552.057 353.314L505.685 326.541H536.598Z" stroke="#E4DDD7" stroke-linecap="round" stroke-linejoin="round"/>
<path d="M505.685 326.541L552.057 299.765" stroke="#E4DDD7" stroke-linecap="round" stroke-linejoin="round"/>
<path d="M613.886 353.314H644.804L660.259 326.541L644.804 299.765H613.886L598.431 326.541L613.886 353.314Z" stroke="#E4DDD7" stroke-linecap="round" stroke-linejoin="round"/>
<path d="M629.345 326.541L644.804 299.765V353.314" stroke="#E4DDD7" stroke-linecap="round" stroke-linejoin="round"/>
<path d="M629.345 326.541L644.804 353.314L598.431 326.541H629.345Z" stroke="#E4DDD7" stroke-linecap="round" stroke-linejoin="round"/>
<path d="M598.431 326.541L644.804 299.765" stroke="#E4DDD7" stroke-linecap="round" stroke-linejoin="round"/>
<path d="M428.393 406.861H459.311L474.766 380.088L459.311 353.315H428.393L412.938 380.088L428.393 406.861Z" stroke="#E4DDD7" stroke-linecap="round" stroke-linejoin="round"/>
<path d="M443.852 380.088L459.311 353.315V406.861" stroke="#E4DDD7" stroke-linecap="round" stroke-linejoin="round"/>
<path d="M443.852 380.088L459.311 406.861L412.938 380.088H443.852Z" stroke="#E4DDD7" stroke-linecap="round" stroke-linejoin="round"/>
<path d="M412.938 380.088L459.311 353.315" stroke="#E4DDD7" stroke-linecap="round" stroke-linejoin="round"/>
<path d="M521.14 406.861H552.057L567.512 380.088L552.057 353.315H521.14L505.685 380.088L521.14 406.861Z" stroke="#E4DDD7" stroke-linecap="round" stroke-linejoin="round"/>
<path d="M536.599 380.088L552.057 353.315V406.861" stroke="#E4DDD7" stroke-linecap="round" stroke-linejoin="round"/>
<path d="M536.598 380.088L552.057 406.861L505.685 380.088H536.598Z" stroke="#E4DDD7" stroke-linecap="round" stroke-linejoin="round"/>
<path d="M505.685 380.088L552.057 353.315" stroke="#E4DDD7" stroke-linecap="round" stroke-linejoin="round"/>
<path d="M613.886 406.861H644.804L660.259 380.088L644.804 353.315H613.886L598.431 380.088L613.886 406.861Z" stroke="#E4DDD7" stroke-linecap="round" stroke-linejoin="round"/>
<path d="M629.345 380.088L644.804 353.315V406.861" stroke="#E4DDD7" stroke-linecap="round" stroke-linejoin="round"/>
<path d="M629.345 380.088L644.804 406.861L598.431 380.088H629.345Z" stroke="#E4DDD7" stroke-linecap="round" stroke-linejoin="round"/>
<path d="M598.431 380.088L644.804 353.315" stroke="#E4DDD7" stroke-linecap="round" stroke-linejoin="round"/>
<path d="M382.265 433.634H413.179L428.638 406.861L413.179 380.088H382.265L366.806 406.861L382.265 433.634Z" stroke="#E4DDD7" stroke-linecap="round" stroke-linejoin="round"/>
<path d="M397.721 406.861L413.179 380.088V433.634" stroke="#E4DDD7" stroke-linecap="round" stroke-linejoin="round"/>
<path d="M397.72 406.861L413.179 433.634L366.806 406.861H397.72Z" stroke="#E4DDD7" stroke-linecap="round" stroke-linejoin="round"/>
<path d="M366.806 406.861L413.179 380.088" stroke="#E4DDD7" stroke-linecap="round" stroke-linejoin="round"/>
<path d="M475.012 433.634H505.926L521.384 406.861L505.926 380.088H475.012L459.553 406.861L475.012 433.634Z" stroke="#E4DDD7" stroke-linecap="round" stroke-linejoin="round"/>
<path d="M490.467 406.861L505.926 380.088V433.634" stroke="#E4DDD7" stroke-linecap="round" stroke-linejoin="round"/>
<path d="M490.467 406.861L505.926 433.634L459.553 406.861H490.467Z" stroke="#E4DDD7" stroke-linecap="round" stroke-linejoin="round"/>
<path d="M459.553 406.861L505.926 380.088" stroke="#E4DDD7" stroke-linecap="round" stroke-linejoin="round"/>
<path d="M567.758 433.634H598.672L614.131 406.861L598.672 380.088H567.758L552.3 406.861L567.758 433.634Z" stroke="#E4DDD7" stroke-linecap="round" stroke-linejoin="round"/>
<path d="M583.214 406.861L598.672 380.088V433.634" stroke="#E4DDD7" stroke-linecap="round" stroke-linejoin="round"/>
<path d="M583.213 406.861L598.672 433.634L552.3 406.861H583.213Z" stroke="#E4DDD7" stroke-linecap="round" stroke-linejoin="round"/>
<path d="M552.3 406.861L598.672 380.088" stroke="#E4DDD7" stroke-linecap="round" stroke-linejoin="round"/>
<path d="M335.65 406.861H366.564L382.023 380.088L366.564 353.315H335.65L320.191 380.088L335.65 406.861Z" stroke="#E4DDD7" stroke-linecap="round" stroke-linejoin="round"/>
<path d="M351.105 380.088L366.564 353.315V406.861" stroke="#E4DDD7" stroke-linecap="round" stroke-linejoin="round"/>
<path d="M351.105 380.088L366.564 406.861L320.191 380.088H351.105Z" stroke="#E4DDD7" stroke-linecap="round" stroke-linejoin="round"/>
<path d="M320.191 380.088L366.564 353.315" stroke="#E4DDD7" stroke-linecap="round" stroke-linejoin="round"/>
<path d="M181.071 299.764L196.53 326.541H227.444L242.903 299.764L227.444 272.991" stroke="#E4DDD7" stroke-linecap="round" stroke-linejoin="round"/>
<path d="M211.985 299.764L227.444 272.991V326.541" stroke="#E4DDD7" stroke-linecap="round" stroke-linejoin="round"/>
<path d="M211.985 299.764L227.444 326.541L181.071 299.764H211.985Z" stroke="#E4DDD7" stroke-linecap="round" stroke-linejoin="round"/>
<path d="M227.444 380.088L242.903 353.315L227.444 326.542H196.53L181.071 353.315" stroke="#E4DDD7" stroke-linecap="round" stroke-linejoin="round"/>
<path d="M211.985 353.315L227.444 326.542V380.087" stroke="#E4DDD7" stroke-linecap="round" stroke-linejoin="round"/>
<path d="M181.071 353.315H211.985" stroke="#E4DDD7" stroke-linecap="round" stroke-linejoin="round"/>
<path d="M211.985 353.315L227.444 380.087" stroke="#E4DDD7" stroke-linecap="round" stroke-linejoin="round"/>
<path d="M181.071 353.315L227.444 326.542" stroke="#E4DDD7" stroke-linecap="round" stroke-linejoin="round"/>
<path d="M227.203 219.444L242.658 246.217H273.575L289.031 219.444L273.575 192.671" stroke="#E4DDD7" stroke-linecap="round" stroke-linejoin="round"/>
<path d="M258.117 219.444L273.576 192.671V246.217" stroke="#E4DDD7" stroke-linecap="round" stroke-linejoin="round"/>
<path d="M258.117 219.444L273.575 246.217L227.203 219.444H258.117Z" stroke="#E4DDD7" stroke-linecap="round" stroke-linejoin="round"/>
<path d="M304.49 192.671L319.949 165.898V219.444" stroke="#E4DDD7" stroke-linecap="round" stroke-linejoin="round"/>
<path d="M304.49 192.671L319.949 219.444L273.576 192.671H304.49Z" stroke="#E4DDD7" stroke-linecap="round" stroke-linejoin="round"/>
<path d="M289.031 272.991H319.949L335.404 246.218L319.949 219.445H289.031L273.576 246.218L289.031 272.991Z" stroke="#E4DDD7" stroke-linecap="round" stroke-linejoin="round"/>
<path d="M304.49 246.218L319.949 219.445V272.991" stroke="#E4DDD7" stroke-linecap="round" stroke-linejoin="round"/>
<path d="M304.49 246.218L319.949 272.991L273.576 246.218H304.49Z" stroke="#E4DDD7" stroke-linecap="round" stroke-linejoin="round"/>
<path d="M273.576 246.218L319.949 219.445" stroke="#E4DDD7" stroke-linecap="round" stroke-linejoin="round"/>
<path d="M242.658 299.764H273.575L289.031 272.991L273.575 246.218H242.658L227.203 272.991L242.658 299.764Z" stroke="#E4DDD7" stroke-linecap="round" stroke-linejoin="round"/>
<path d="M258.117 272.991L273.576 246.218V299.764" stroke="#E4DDD7" stroke-linecap="round" stroke-linejoin="round"/>
<path d="M258.117 272.991L273.575 299.764L227.203 272.991H258.117Z" stroke="#E4DDD7" stroke-linecap="round" stroke-linejoin="round"/>
<path d="M227.203 272.991L273.575 246.218" stroke="#E4DDD7" stroke-linecap="round" stroke-linejoin="round"/>
<path d="M242.658 353.314H273.575L289.031 326.541L273.575 299.765H242.658L227.203 326.541L242.658 353.314Z" stroke="#E4DDD7" stroke-linecap="round" stroke-linejoin="round"/>
<path d="M258.117 326.541L273.576 299.765V353.314" stroke="#E4DDD7" stroke-linecap="round" stroke-linejoin="round"/>
<path d="M258.117 326.541L273.575 353.314L227.203 326.541H258.117Z" stroke="#E4DDD7" stroke-linecap="round" stroke-linejoin="round"/>
<path d="M227.203 326.541L273.575 299.765" stroke="#E4DDD7" stroke-linecap="round" stroke-linejoin="round"/>
<path d="M289.031 326.541H319.949L335.404 299.764L319.949 272.991H289.031L273.576 299.764L289.031 326.541Z" stroke="#E4DDD7" stroke-linecap="round" stroke-linejoin="round"/>
<path d="M304.49 299.764L319.949 272.991V326.541" stroke="#E4DDD7" stroke-linecap="round" stroke-linejoin="round"/>
<path d="M304.49 299.764L319.949 326.541L273.576 299.764H304.49Z" stroke="#E4DDD7" stroke-linecap="round" stroke-linejoin="round"/>
<path d="M273.576 299.764L319.949 272.991" stroke="#E4DDD7" stroke-linecap="round" stroke-linejoin="round"/>
<path d="M289.031 380.088H319.949L335.404 353.315L319.949 326.542H289.031L273.576 353.315L289.031 380.088Z" stroke="#E4DDD7" stroke-linecap="round" stroke-linejoin="round"/>
<path d="M304.49 353.315L319.949 326.542V380.087" stroke="#E4DDD7" stroke-linecap="round" stroke-linejoin="round"/>
<path d="M304.49 353.315L319.949 380.087L273.576 353.315H304.49Z" stroke="#E4DDD7" stroke-linecap="round" stroke-linejoin="round"/>
<path d="M273.576 353.315L319.949 326.542" stroke="#E4DDD7" stroke-linecap="round" stroke-linejoin="round"/>
<path d="M273.817 406.861L289.276 380.088L273.817 353.315H242.903L227.445 380.088" stroke="#E4DDD7" stroke-linecap="round" stroke-linejoin="round"/>
<path d="M258.359 380.088L273.818 353.315V406.861" stroke="#E4DDD7" stroke-linecap="round" stroke-linejoin="round"/>
<path d="M227.445 380.088H258.358" stroke="#E4DDD7" stroke-linecap="round" stroke-linejoin="round"/>
<path d="M258.359 380.088L273.818 406.861" stroke="#E4DDD7" stroke-linecap="round" stroke-linejoin="round"/>
<path d="M227.445 380.088L273.817 353.315" stroke="#E4DDD7" stroke-linecap="round" stroke-linejoin="round"/>
<path d="M317.073 244.093L721.951 396.562V599.305L317.073 446.836V244.093Z" fill="#B94B01"/>
<path d="M317.073 446.836L721.951 202.97V0.227051L317.073 244.093V446.836Z" fill="#F0BE65"/>
<path d="M317.073 446.836L524.173 322.096L317.073 244.093V446.836Z" fill="#AD3805"/>
</svg>
