<svg width="28" height="34" viewBox="0 0 28 34" fill="none" xmlns="http://www.w3.org/2000/svg">
<g clip-path="url(#clip0_813_75040)">
<path d="M11.5 0L-4.99176 6.97695L11.5 13.9539L27.9911 6.97695L11.5 0Z" fill="#7E9A5A"/>
<path opacity="0.4" d="M27.9911 6.97695H-4.99176L11.5 0L27.9911 6.97695Z" fill="#5D823C"/>
<path d="M11.5 34L-4.99176 27.0224V6.97693L11.5 13.9539V34Z" fill="#5D823C"/>
<path d="M11.5 34L27.9911 27.0224V6.97693L11.5 13.9539V34Z" fill="#9EB277"/>
<path opacity="0.3" d="M27.9911 27.0224L11.5 13.9539L27.9911 6.97693V27.0224Z" fill="#7E9A5A"/>
<path d="M-4.99176 6.97693L11.5 34L-4.99176 27.0224V6.97693Z" fill="#557935"/>
<path d="M11.5222 13.9539C11.8255 17.2816 11.8832 20.6386 11.899 23.9766C11.8819 27.316 11.8243 30.6704 11.5222 33.9994H11.4778C11.5013 29.0327 11.3721 18.8266 11.5222 13.9539Z" fill="#557935"/>
<path d="M11.4911 13.933C15.5938 12.1739 23.865 8.67468 27.9829 6.95605L28 6.99847C24.7149 8.7967 21.2811 10.2876 17.8282 11.6989C17.2424 11.9286 16.3278 12.2959 15.7426 12.5113C14.3474 13.0398 12.9421 13.5435 11.5082 13.9754L11.4911 13.933Z" fill="#5D823C"/>
<path d="M11.4911 13.9754C8.63864 13.107 5.85518 11.9925 3.10212 10.8461C0.361092 9.66645 -2.37677 8.44436 -5 6.99847L-4.9829 6.95605C-0.908091 8.706 7.54932 12.14 11.4918 13.9754H11.4911Z" fill="#7E9A5A"/>
</g>
<defs>
<clipPath id="clip0_813_75040">
<rect width="33" height="34" fill="white" transform="translate(-5)"/>
</clipPath>
</defs>
</svg>
