<svg width="166" height="231" viewBox="0 0 166 231" fill="none" xmlns="http://www.w3.org/2000/svg">
<path d="M290.487 145.153L0.539583 145.153" stroke="#9E2D00" stroke-width="0.56951" stroke-linejoin="round"/>
<path d="M145.513 0.179932L145.513 290.127" stroke="#9E2D00" stroke-width="0.56951" stroke-linejoin="round"/>
<path d="M217.902 72.7646L72.9283 217.738" stroke="#9E2D00" stroke-width="0.56951" stroke-linejoin="round"/>
<path d="M199.779 54.6416L54.8053 199.615" stroke="#9E2D00" stroke-width="0.56951" stroke-linejoin="round"/>
<path d="M236.026 90.8889L91.0527 235.862" stroke="#9E2D00" stroke-width="0.56951" stroke-linejoin="round"/>
<path d="M236.025 199.615L91.0514 54.6416" stroke="#9E2D00" stroke-width="0.56951" stroke-linejoin="round"/>
<path d="M199.777 235.862L54.804 90.8889" stroke="#9E2D00" stroke-width="0.56951" stroke-linejoin="round"/>
<path d="M217.902 217.738L72.9283 72.7646" stroke="#9E2D00" stroke-width="0.56951" stroke-linejoin="round"/>
<path d="M163.458 163.457V127.21H127.21V163.457H163.458Z" stroke="#9E2D00" stroke-width="0.56951" stroke-linejoin="round"/>
<path d="M109.012 109.011V72.7634H72.7646V109.011H109.012Z" stroke="#9E2D00" stroke-width="0.56951" stroke-linejoin="round"/>
<path d="M109.094 217.821V181.573H72.8461V217.821H109.094Z" stroke="#9E2D00" stroke-width="0.56951" stroke-linejoin="round"/>
<path d="M181.663 181.664V109.004H109.003V181.664H181.663Z" stroke="#9E2D00" stroke-width="0.56951" stroke-linejoin="round"/>
<path d="M109.011 72.7646L72.7632 109.012" stroke="#9E2D00" stroke-width="0.56951" stroke-linejoin="round"/>
<path d="M72.8466 181.574L109.094 217.821" stroke="#9E2D00" stroke-width="0.56951" stroke-linejoin="round"/>
<path d="M145.513 109.004L168.309 54.9987L199.779 54.6417" stroke="#9E2D00" stroke-width="0.56951" stroke-linejoin="round"/>
<path d="M145.513 0.179932L168.309 54.9987L181.64 72.7808" stroke="#9E2D00" stroke-width="0.56951" stroke-linejoin="round"/>
<path d="M145.152 181.664L122.356 235.669L90.8876 236.028" stroke="#9E2D00" stroke-width="0.56951" stroke-linejoin="round"/>
<path d="M145.153 290.487L122.356 235.669L109.027 217.888" stroke="#9E2D00" stroke-width="0.56951" stroke-linejoin="round"/>
<path d="M109.003 145.514L54.9973 168.31L54.6402 199.78" stroke="#9E2D00" stroke-width="0.56951" stroke-linejoin="round"/>
<path d="M0.17985 145.513L54.9973 168.31L72.7794 181.641" stroke="#9E2D00" stroke-width="0.56951" stroke-linejoin="round"/>
<path d="M145.153 109.004L122.358 54.9987L90.8876 54.6417" stroke="#9E2D00" stroke-width="0.56951" stroke-linejoin="round"/>
<path d="M145.153 0.179932L122.358 54.9987L109.026 72.7794" stroke="#9E2D00" stroke-width="0.56951" stroke-linejoin="round"/>
<path d="M109.003 145.155L54.9973 122.359L54.6403 90.8889" stroke="#9E2D00" stroke-width="0.56951" stroke-linejoin="round"/>
<path d="M0.179863 145.153L54.9973 122.359L72.778 109.027" stroke="#9E2D00" stroke-width="0.56951" stroke-linejoin="round"/>
<path d="M145.512 181.664L168.308 235.669L199.778 236.026" stroke="#9E2D00" stroke-width="0.56951" stroke-linejoin="round"/>
<path d="M145.513 290.487L168.308 235.669L181.64 217.888" stroke="#9E2D00" stroke-width="0.56951" stroke-linejoin="round"/>
</svg>
