<svg width="163" height="320" viewBox="0 0 163 320" fill="none" xmlns="http://www.w3.org/2000/svg" fetchpriority="high" class="cluster-profile_svg"><g id="Cluster profile" class="g-wrap"><g id="Frame 15127"><g id="building-blocks/Layers" class="g-item"><g id="Base"><path d="M41.1504 242.818H121.849L162.81 260.504V272.621L123.072 291.29H39.9277L0.189697 272.621V260.504L41.1504 242.818Z" fill="#043736"></path><path d="M41.1504 242.818H121.849L162.81 260.504V272.621L123.072 291.29H39.9277L0.189697 272.621V260.504L41.1504 242.818Z" fill="white" fill-opacity="0.2"></path></g><g id="Deco"><path id="Vector" d="M39.9277 279.931L0.189697 260.608V272.726L39.9277 291.394H123.072L162.81 272.726V260.608L123.072 279.931H39.9277Z" fill="#0B3433"></path><path id="Rectangle 20" opacity="0.4" d="M162.81 260.608L123.072 279.931V291.394L162.81 272.726V260.608Z" fill="url(#paint0_linear_110_1684)" fill-opacity="0.25"></path><path id="Rectangle 21" opacity="0.4" d="M0.189697 260.608L39.9277 279.931V291.394L0.189697 272.726V260.608Z" fill="url(#paint1_linear_110_1684)" fill-opacity="0.25"></path><path id="Rectangle" d="M116.652 244.56H46.6525L10.5826 260.608L45.1241 276.329H118.181L152.417 260.608L116.652 244.56Z" fill="#0B3433"></path></g></g><g id="building-blocks/Layers_2" class="g-item"><g id="Base_2"><path d="M41.1504 212.036H121.849L162.81 229.722V241.84L123.072 260.508H39.9277L0.189697 241.84V229.722L41.1504 212.036Z" fill="#004244"></path><path d="M41.1504 212.036H121.849L162.81 229.722V241.84L123.072 260.508H39.9277L0.189697 241.84V229.722L41.1504 212.036Z" fill="white" fill-opacity="0.2"></path></g><g id="Deco_2"><path id="Vector_2" d="M39.9277 249.15L0.189697 229.827V241.945L39.9277 260.613H123.072L162.81 241.945V229.827L123.072 249.15H39.9277Z" fill="#0C403F"></path><path id="Rectangle 20_2" opacity="0.4" d="M162.81 229.827L123.072 249.15V260.613L162.81 241.945V229.827Z" fill="url(#paint2_linear_110_1684)" fill-opacity="0.25"></path><path id="Rectangle 21_2" opacity="0.4" d="M0.189697 229.827L39.9277 249.15V260.613L0.189697 241.945V229.827Z" fill="url(#paint3_linear_110_1684)" fill-opacity="0.25"></path><path id="Rectangle_2" d="M116.652 213.779H46.6525L10.5826 229.827L45.1241 245.547H118.181L152.417 229.827L116.652 213.779Z" fill="#0C403F"></path></g></g><g id="building-blocks/Layers_3" class="g-item"><g id="Base_3"><path d="M41.1504 181.255H121.849L162.81 198.94V211.058L123.072 229.726H39.9277L0.189697 211.058V198.94L41.1504 181.255Z" fill="#005B5B"></path><path d="M41.1504 181.255H121.849L162.81 198.94V211.058L123.072 229.726H39.9277L0.189697 211.058V198.94L41.1504 181.255Z" fill="white" fill-opacity="0.2"></path></g><g id="Deco_3"><path id="Vector_3" d="M39.9277 218.368L0.189697 199.045V211.163L39.9277 229.831H123.072L162.81 211.163V199.045L123.072 218.368H39.9277Z" fill="#135757"></path><path id="Rectangle 20_3" opacity="0.4" d="M162.81 199.045L123.072 218.368V229.831L162.81 211.163V199.045Z" fill="url(#paint4_linear_110_1684)" fill-opacity="0.25"></path><path id="Rectangle 21_3" opacity="0.4" d="M0.189697 199.045L39.9277 218.368V229.831L0.189697 211.163V199.045Z" fill="url(#paint5_linear_110_1684)" fill-opacity="0.25"></path><path id="Rectangle_3" d="M116.652 182.997H46.6525L10.5826 199.045L45.1241 214.766H118.181L152.417 199.045L116.652 182.997Z" fill="#135757"></path></g></g><g id="building-blocks/Layers_4" class="g-item"><g id="Base_4"><path d="M41.1504 150.473H121.849L162.81 168.159V180.276L123.072 198.945H39.9277L0.189697 180.276V168.159L41.1504 150.473Z" fill="#1F7A78"></path><path d="M41.1504 150.473H121.849L162.81 168.159V180.276L123.072 198.945H39.9277L0.189697 180.276V168.159L41.1504 150.473Z" fill="white" fill-opacity="0.2"></path></g><g id="Deco_4"><path id="Vector_4" d="M39.9277 187.587L0.189697 168.263V180.381L39.9277 199.049H123.072L162.81 180.381V168.263L123.072 187.587H39.9277Z" fill="#1F7A78"></path><path id="Rectangle 20_4" opacity="0.4" d="M162.81 168.263L123.072 187.587V199.049L162.81 180.381V168.263Z" fill="url(#paint6_linear_110_1684)" fill-opacity="0.25"></path><path id="Rectangle 21_4" opacity="0.4" d="M0.189697 168.263L39.9277 187.587V199.049L0.189697 180.381V168.263Z" fill="url(#paint7_linear_110_1684)" fill-opacity="0.25"></path><path id="Rectangle_4" d="M116.652 152.215H46.6525L10.5826 168.263L45.1241 183.984H118.181L152.417 168.263L116.652 152.215Z" fill="#1F7A78"></path></g></g><g id="building-blocks/Layers_5" class="g-item"><path id="Base_5" d="M41.1504 119.691H121.849L162.81 137.377V149.495L123.072 168.163H39.9277L0.189697 149.495V137.377L41.1504 119.691Z" fill="white"></path><path id="Base_6" opacity="0.8" d="M41.1504 119.691H121.849L162.81 137.377V149.495L123.072 168.163H39.9277L0.189697 149.495V137.377L41.1504 119.691Z" fill="#5D823C"></path><g id="Deco_5"><path id="Vector_5" opacity="0.3" d="M39.9277 156.805L0.189697 137.482V149.6L39.9277 168.268H123.072L162.81 149.6V137.482L123.072 156.805H39.9277Z" fill="#5D823C"></path><path id="Rectangle 20_5" d="M162.81 137.482L123.072 156.805V168.268L162.81 149.6V137.482Z" fill="url(#paint8_linear_110_1684)" fill-opacity="0.25"></path><path id="Rectangle 21_5" d="M0.189697 137.482L39.9277 156.805V168.268L0.189697 149.6V137.482Z" fill="url(#paint9_linear_110_1684)" fill-opacity="0.25"></path><path id="Rectangle_5" d="M116.653 121.434H46.6526L10.5828 137.482L45.1242 153.202H118.181L152.417 137.482L116.653 121.434Z" fill="#5D823C"></path></g></g><g id="building-blocks/Layers_6" class="g-item"><path id="Base_7" d="M41.1504 88.9097H121.849L162.81 106.595V118.713L123.072 137.381H39.9277L0.189697 118.713V106.595L41.1504 88.9097Z" fill="white"></path><path id="Base_8" opacity="0.8" d="M41.1504 88.9097H121.849L162.81 106.595V118.713L123.072 137.381H39.9277L0.189697 118.713V106.595L41.1504 88.9097Z" fill="#7E9A5A"></path><g id="Deco_6"><path id="Vector_6" opacity="0.3" d="M39.9277 126.023L0.189697 106.7V118.818L39.9277 137.486H123.072L162.81 118.818V106.7L123.072 126.023H39.9277Z" fill="#7E9A5A"></path><path id="Rectangle 20_6" d="M162.81 106.7L123.072 126.023V137.486L162.81 118.818V106.7Z" fill="url(#paint10_linear_110_1684)" fill-opacity="0.25"></path><path id="Rectangle 21_6" d="M0.189697 106.7L39.9277 126.023V137.486L0.189697 118.818V106.7Z" fill="url(#paint11_linear_110_1684)" fill-opacity="0.25"></path><path id="Rectangle_6" d="M116.653 90.652H46.6526L10.5828 106.7L45.1242 122.421H118.181L152.417 106.7L116.653 90.652Z" fill="#7E9A5A"></path></g></g><g id="building-blocks/Layers_7" class="g-item"><path id="Base_9" d="M41.1504 58.128H121.849L162.81 75.8136V87.9315L123.072 106.6H39.9277L0.189697 87.9315V75.8136L41.1504 58.128Z" fill="white"></path><path id="Base_10" opacity="0.8" d="M41.1504 58.128H121.849L162.81 75.8136V87.9315L123.072 106.6H39.9277L0.189697 87.9315V75.8136L41.1504 58.128Z" fill="#F0BE65"></path><g id="Deco_7"><path id="Vector_7" opacity="0.3" d="M39.9277 95.2415L0.189697 75.9184V88.0363L39.9277 106.704H123.072L162.81 88.0363V75.9184L123.072 95.2415H39.9277Z" fill="#F0BE65"></path><path id="Rectangle 20_7" d="M162.81 75.9184L123.072 95.2415V106.704L162.81 88.0363V75.9184Z" fill="url(#paint12_linear_110_1684)" fill-opacity="0.25"></path><path id="Rectangle 21_7" d="M0.189697 75.9184L39.9277 95.2415V106.704L0.189697 88.0363V75.9184Z" fill="url(#paint13_linear_110_1684)" fill-opacity="0.25"></path><path id="Rectangle_7" d="M116.653 59.8704H46.6526L10.5828 75.9184L45.1242 91.6389H118.181L152.417 75.9184L116.653 59.8704Z" fill="#F0BE65"></path></g></g><g id="building-blocks/Layers_8" class="g-item"><path id="Base_11" d="M41.1504 27.3463H121.849L162.81 45.0319V57.1498L123.072 75.818H39.9277L0.189697 57.1498V45.0319L41.1504 27.3463Z" fill="white"></path><path id="Base_12" opacity="0.7" d="M41.1504 27.3463H121.849L162.81 45.0319V57.1498L123.072 75.818H39.9277L0.189697 57.1498V45.0319L41.1504 27.3463Z" fill="#F19059"></path><g id="Deco_8"><path id="Vector_8" opacity="0.3" d="M39.9277 64.4599L0.189697 45.1367V57.2547L39.9277 75.9228H123.072L162.81 57.2547V45.1367L123.072 64.4599H39.9277Z" fill="#F19059"></path><path id="Rectangle 20_8" d="M162.81 45.1367L123.072 64.4599V75.9228L162.81 57.2546V45.1367Z" fill="url(#paint14_linear_110_1684)" fill-opacity="0.25"></path><path id="Rectangle 21_8" d="M0.189697 45.1367L39.9277 64.4599V75.9228L0.189697 57.2546V45.1367Z" fill="url(#paint15_linear_110_1684)" fill-opacity="0.25"></path><path id="Rectangle_8" d="M116.653 29.0887H46.6526L10.5828 45.1367L45.1242 60.8573H118.181L152.417 45.1367L116.653 29.0887Z" fill="#F19059"></path></g></g></g></g><defs><lineargradient id="paint0_linear_110_1684" x1="162.81" y1="266.34" x2="122.377" y2="283.141" gradientUnits="userSpaceOnUse"><stop></stop><stop offset="1" stop-color="white"></stop></lineargradient><lineargradient id="paint1_linear_110_1684" x1="0.189697" y1="266.34" x2="40.6226" y2="283.141" gradientUnits="userSpaceOnUse"><stop></stop><stop offset="1" stop-color="white"></stop></lineargradient><lineargradient id="paint2_linear_110_1684" x1="162.81" y1="235.558" x2="122.377" y2="252.359" gradientUnits="userSpaceOnUse"><stop></stop><stop offset="1" stop-color="white"></stop></lineargradient><lineargradient id="paint3_linear_110_1684" x1="0.189697" y1="235.558" x2="40.6226" y2="252.359" gradientUnits="userSpaceOnUse"><stop></stop><stop offset="1" stop-color="white"></stop></lineargradient><lineargradient id="paint4_linear_110_1684" x1="162.81" y1="204.776" x2="122.377" y2="221.577" gradientUnits="userSpaceOnUse"><stop></stop><stop offset="1" stop-color="white"></stop></lineargradient><lineargradient id="paint5_linear_110_1684" x1="0.189697" y1="204.776" x2="40.6226" y2="221.577" gradientUnits="userSpaceOnUse"><stop></stop><stop offset="1" stop-color="white"></stop></lineargradient><lineargradient id="paint6_linear_110_1684" x1="162.81" y1="173.995" x2="122.377" y2="190.796" gradientUnits="userSpaceOnUse"><stop></stop><stop offset="1" stop-color="white"></stop></lineargradient><lineargradient id="paint7_linear_110_1684" x1="0.189697" y1="173.995" x2="40.6226" y2="190.796" gradientUnits="userSpaceOnUse"><stop></stop><stop offset="1" stop-color="white"></stop></lineargradient><lineargradient id="paint8_linear_110_1684" x1="162.81" y1="143.213" x2="122.377" y2="160.014" gradientUnits="userSpaceOnUse"><stop stop-color="#C0C0C0"></stop><stop offset="1" stop-color="white"></stop></lineargradient><lineargradient id="paint9_linear_110_1684" x1="0.189697" y1="143.213" x2="40.6226" y2="160.014" gradientUnits="userSpaceOnUse"><stop stop-color="#C0C0C0"></stop><stop offset="1" stop-color="white"></stop></lineargradient><lineargradient id="paint10_linear_110_1684" x1="162.81" y1="112.432" x2="122.377" y2="129.232" gradientUnits="userSpaceOnUse"><stop stop-color="#C0C0C0"></stop><stop offset="1" stop-color="white"></stop></lineargradient><lineargradient id="paint11_linear_110_1684" x1="0.189697" y1="112.432" x2="40.6226" y2="129.232" gradientUnits="userSpaceOnUse"><stop stop-color="#C0C0C0"></stop><stop offset="1" stop-color="white"></stop></lineargradient><lineargradient id="paint12_linear_110_1684" x1="162.81" y1="81.6498" x2="122.377" y2="98.4507" gradientUnits="userSpaceOnUse"><stop stop-color="#C0C0C0"></stop><stop offset="1" stop-color="white"></stop></lineargradient><lineargradient id="paint13_linear_110_1684" x1="0.189697" y1="81.6498" x2="40.6226" y2="98.4507" gradientUnits="userSpaceOnUse"><stop stop-color="#C0C0C0"></stop><stop offset="1" stop-color="white"></stop></lineargradient><lineargradient id="paint14_linear_110_1684" x1="162.81" y1="50.8682" x2="122.377" y2="67.6691" gradientUnits="userSpaceOnUse"><stop stop-color="#C0C0C0"></stop><stop offset="1" stop-color="white"></stop></lineargradient><lineargradient id="paint15_linear_110_1684" x1="0.189697" y1="50.8682" x2="40.6226" y2="67.6691" gradientUnits="userSpaceOnUse"><stop stop-color="#C0C0C0"></stop><stop offset="1" stop-color="white"></stop></lineargradient></defs></svg>